<?xml version="1.0" encoding="utf-8"?>
<!-- Generator: Adobe Illustrator 21.0.2, SVG Export Plug-In . SVG Version: 6.00 Build 0)  -->
<svg version="1.1" id="Layer_1" xmlns="http://www.w3.org/2000/svg" xmlns:xlink="http://www.w3.org/1999/xlink" x="0px" y="0px"
	 viewBox="0 0 100 100" style="enable-background:new 0 0 100 100;" xml:space="preserve">
<path class="st0" d="M99.6,31.8c-0.3-0.2-0.6-0.2-0.9-0.1L50.5,53.4L7.6,33.7c-1.4-0.6-2.2-2.3-1.9-3.8c0.3-1.6,1.8-2.7,3.4-2.6
	c0,0,0.1,0,0.1,0c0.6,0,1.1,0.1,1.6,0.3l39.3,18c0.2,0.1,0.5,0.1,0.8,0l48.5-21.9c0.3-0.2,0.6-0.5,0.6-0.9c0-0.4-0.2-0.7-0.6-0.9
	L57.2,3.1c-1.2-0.7-2.6-1.1-4-1.1c-0.1,0-0.1,0-0.2,0c0,0,0,0-0.1,0c-1.5,0-2.9,0.4-4.2,1.1L5.5,22.8c-1.5,0.7-2.7,1.7-3.6,3.1
	c-0.4,0.7-0.7,1.4-1,2.1c-0.2,0.7-0.3,1.4-0.3,2l0,0.3c0,0,0,0.1,0,0.1c0,0,0,0,0,0c0,0,0,0.1,0,0.1c0,2.5,1.1,4.9,3,6.4
	C3,37.6,2.5,38.3,2,39c-0.4,0.7-0.7,1.4-1,2.1c-0.2,0.7-0.3,1.4-0.3,2l0,0.3c0,0,0,0.1,0,0.1c0,0,0,0,0,0c0,0,0,0.1,0,0.1
	c0,2.5,1.1,4.8,2.9,6.4C3,50.7,2.4,51.3,2,52c-0.4,0.7-0.7,1.4-1,2.1c-0.2,0.7-0.3,1.4-0.3,2l0,0.3c0,0,0,0.1,0,0.1c0,0,0,0,0,0
	c0,0,0,0.1,0,0.1c0,2.5,1.1,4.9,3,6.4C3,63.7,2.5,64.3,2,65.1c-0.4,0.7-0.7,1.4-1,2.1c-0.2,0.7-0.3,1.4-0.3,2l0,0.3c0,0,0,0.1,0,0.1
	c0,0,0,0,0,0c0,0,0,0.1,0,0.1c0,3.3,1.9,6.2,4.9,7.6C15.6,82,47.9,96.8,50.1,97.8c0,0,0.1,0,0.1,0c0,0,0,0,0,0c0.1,0,0.2,0.1,0.3,0
	c0.1,0,0.3,0,0.4-0.1L99.4,76c0.3-0.2,0.6-0.5,0.6-0.9v-3.4c0-0.3-0.2-0.6-0.4-0.8c-0.3-0.2-0.6-0.2-0.9-0.1L50.5,92.5L7.6,72.9
	c-1.4-0.6-2.2-2.3-1.9-3.8c0.3-1.6,1.8-2.7,3.4-2.6c0,0,0.1,0,0.1,0c0.5,0,1.1,0.1,1.5,0.3c34.4,15.8,38.7,17.7,39.3,18
	c0.2,0.1,0.5,0.1,0.8,0l48.5-21.8c0.3-0.2,0.6-0.5,0.6-0.9v-3.4c0-0.3-0.2-0.6-0.4-0.8c-0.3-0.2-0.6-0.2-0.9-0.1L50.5,79.5L7.6,59.8
	c-1.4-0.6-2.2-2.3-1.9-3.8c0.3-1.6,1.8-2.7,3.4-2.6c0,0,0.1,0,0.1,0c0.3,0,0.6,0,0.9,0.1C35.3,65,48.7,71.1,50.1,71.7
	c0,0,0.1,0,0.1,0c0,0,0,0,0,0c0.1,0,0.2,0,0.3,0c0.1,0,0.3,0,0.4-0.1l48.5-21.8c0.3-0.2,0.6-0.5,0.6-0.9v-3.4c0-0.3-0.2-0.6-0.4-0.8
	c-0.3-0.2-0.6-0.2-0.9-0.1L50.5,66.5L7.6,46.8c-1.4-0.6-2.2-2.3-1.9-3.8c0.3-1.6,1.8-2.7,3.4-2.6c0,0,0.1,0,0.1,0
	c0.6,0,1.1,0.1,1.6,0.3l12.9,5.9c12.7,5.8,21,9.6,24.5,11.2l1.9,0.9c0.2,0.1,0.5,0.1,0.8,0L70,50l29.4-13.2c0.3-0.2,0.6-0.5,0.6-0.9
	v-3.3C100,32.3,99.8,32,99.6,31.8z"/>
</svg>
