<?xml version="1.0" encoding="utf-8"?>
<!-- Generator: Adobe Illustrator 21.0.2, SVG Export Plug-In . SVG Version: 6.00 Build 0)  -->
<svg version="1.1" id="Layer_1" xmlns="http://www.w3.org/2000/svg" xmlns:xlink="http://www.w3.org/1999/xlink" x="0px" y="0px"
	 viewBox="0 0 100 100" style="enable-background:new 0 0 100 100;" xml:space="preserve">
<g>
	<path d="M35.8,19.2H64c1.1,0,1.9-0.9,1.9-1.9V8.5c0-1.1-0.9-1.9-1.9-1.9h-8.5c0,0,0,0,0,0V2c0-0.6-0.4-1-1-1h-9.2c-0.6,0-1,0.4-1,1
		v4.6c0,0,0,0,0,0h-8.5c-1.1,0-1.9,0.9-1.9,1.9v8.8C33.9,18.4,34.7,19.2,35.8,19.2z"/>
	<path d="M76.8,10.2h-7.6v5.7h7.6c1.5,0,2.5,0.8,2.5,1.5v43.1h-9.6l-3.4-7.3c-0.4-0.9-1.3-1.4-2.2-1.3c-0.9,0-1.8,0.6-2.1,1.5
		l-3.2,8.3l-4.4-29.3c-0.2-1.2-1.2-2-2.3-2c0,0,0,0,0,0c-1.2,0-2.2,0.9-2.3,2c-1.6,11-3.9,26.4-5.4,36.4c-1.5-6-3.4-13.6-4.8-19.3
		c-0.2-1-1.1-1.7-2.2-1.8c-1-0.1-2,0.6-2.4,1.6l-4.1,11.3H20.5V17.4c0-0.7,1.1-1.5,2.5-1.5h7.6v-5.7H23c-4.5,0-8.2,3.2-8.2,7.2v73.5
		c0,4,3.7,7.2,8.2,7.2h53.7c4.5,0,8.2-3.2,8.2-7.2V17.4C85,13.5,81.3,10.2,76.8,10.2z M79.3,90.9c0,0.7-1.1,1.5-2.5,1.5H23
		c-1.5,0-2.5-0.8-2.5-1.5V65.4h12c1,0,1.9-0.6,2.2-1.6l2-5.5c5.6,23,5.8,23.1,7.3,23.6c0.2,0.1,0.5,0.1,0.7,0.1
		c0.4,0,0.9-0.1,1.2-0.4c1.3-0.8,1.3-0.8,4.9-25.2c0.4-2.6,0.8-5.1,1.1-7.6l3.4,22.5c0.2,1.1,1,1.9,2.1,2c1.1,0.1,2.1-0.5,2.5-1.5
		l4.4-11.6l1.7,3.6c0.4,0.8,1.2,1.4,2.1,1.4h11.1V90.9z"/>
</g>
</svg>
