<?xml version="1.0" encoding="utf-8"?>
<!-- Generator: Adobe Illustrator 21.0.2, SVG Export Plug-In . SVG Version: 6.00 Build 0)  -->
<svg version="1.1" id="Layer_1" xmlns="http://www.w3.org/2000/svg" xmlns:xlink="http://www.w3.org/1999/xlink" x="0px" y="0px"
	 viewBox="0 0 102 100" style="enable-background:new 0 0 102 100;" xml:space="preserve">
<path class="st0" d="M57.5,36.1c7,5.6,8.1,15.9,2.4,22.9c-5.7,7-15.9,8.1-22.9,2.4c-7-5.7-8.1-15.9-2.4-22.9
	C40.2,31.6,50.5,30.5,57.5,36.1L57.5,36.1z M77.6,42.9l-11.9,4c-0.3-2.7-1.2-5.4-2.6-7.8l11.9-4C75.1,37.8,76,40.6,77.6,42.9
	L77.6,42.9z M33.2,78c5.2,4.2,6.1,11.9,1.8,17.1c-4.2,5.2-11.9,6.1-17.1,1.8c-5.2-4.2-6.1-11.9-1.8-17.1C20.3,74.6,28,73.8,33.2,78
	L33.2,78z M15.9,39.5c4.1,3.3,4.7,9.2,1.4,13.3C14,56.9,8.1,57.5,4,54.2c-4.1-3.3-4.7-9.3-1.4-13.3C5.9,36.8,11.8,36.2,15.9,39.5
	L15.9,39.5z M48.7,2.3c3.9,3.1,4.5,8.8,1.4,12.7c-3.1,3.9-8.8,4.5-12.7,1.4c-3.9-3.1-4.5-8.8-1.4-12.7C39.1-0.3,44.8-0.9,48.7,2.3
	L48.7,2.3z M96.6,25.4c5.1,4.1,5.9,11.6,1.8,16.7c-4.1,5.1-11.6,5.9-16.7,1.8c-5.1-4.1-5.9-11.6-1.8-16.7
	C84,22.1,91.5,21.3,96.6,25.4L96.6,25.4z M77.7,66.5c4,3.3,4.7,9.2,1.4,13.2c-3.3,4-9.2,4.7-13.2,1.4c-4-3.3-4.7-9.2-1.4-13.2
	C67.8,63.8,73.7,63.2,77.7,66.5L77.7,66.5z M62.9,58.9L67,63c-1.6,0.7-3.1,1.9-4.4,3.4c-0.6,0.8-1.1,1.6-1.5,2.4L57,64.6
	c1.7-1.1,3.3-2.5,4.7-4.1C62.1,60,62.5,59.4,62.9,58.9L62.9,58.9z M41.9,66.7l-5.7,10.2c-0.4-0.4-0.8-0.7-1.2-1.1
	c-1.8-1.5-3.9-2.4-6-2.9l5.7-10.2c0.3,0.2,0.5,0.5,0.8,0.7C37.5,64.9,39.7,66,41.9,66.7L41.9,66.7z M28.9,52l-8.1-0.4
	c1.1-2.6,1.3-5.6,0.4-8.2l8.1,0.4C28.6,46.4,28.4,49.3,28.9,52L28.9,52z M41.2,31.2l-1.1-10.4c2.7,0.7,5.7,0.4,8.2-0.9l1.1,10.4
	C46.6,30,43.8,30.3,41.2,31.2L41.2,31.2z"/>
</svg>
