<svg version="1.1" id="Layer_1" xmlns="http://www.w3.org/2000/svg" xmlns:xlink="http://www.w3.org/1999/xlink" x="0px" y="0px"
	 viewBox="0 0 100 100" style="enable-background:new 0 0 100 100;" xml:space="preserve">
<path class="st0" d="M9,8.5c0-4.3,3.5-7.9,7.8-7.9c4.3,0,7.9,3.5,7.9,7.8c0.1,21.1,14.5,27.8,28.8,34.4C72.3,51.5,91,60.2,91,91.1
	c0,4.3-3.5,7.9-7.9,7.9c-4.3,0-7.9-3.5-7.9-7.9c0-20.8-14.1-27.4-28.4-34C28.1,48.4,9.2,39.6,9,8.5L9,8.5z M37.6,65.4h15.8
	c2.6,1.4,5.1,2.9,7.3,4.7H32.2c-1.2,1.3-2.3,2.8-3.3,4.4h36.4c1.2,1.4,2.2,3,3,4.7H26.6c-0.5,1.4-0.9,2.8-1.2,4.4h44.4
	c0.4,1.5,0.6,3,0.8,4.7H24.8c-0.1,0.9-0.1,1.9-0.1,2.9c0,4.3-3.5,7.9-7.9,7.9C12.5,99,9,95.5,9,91.1C9,70.7,17.1,60,28.1,52.6
	c5.3,3.3,11,6,16.7,8.6C42.2,62.5,39.8,63.9,37.6,65.4L37.6,65.4z M75.3,8.4c0-4.3,3.6-7.9,7.9-7.8c4.3,0,7.9,3.6,7.8,7.9
	c-0.1,20.3-8.2,31.1-19,38.6c-5.1-3.1-10.6-5.7-16.2-8.3l-0.4-0.2l-0.1,0l-0.1,0c2.3-1.2,4.6-2.6,6.7-4h-15
	c-2.6-1.4-5.1-2.9-7.4-4.7h27.8c1.2-1.3,2.4-2.8,3.4-4.4H35.1c-1.2-1.4-2.2-3-3.1-4.7h41.1c0.5-1.4,1-2.8,1.3-4.4H30.3
	c-0.4-1.5-0.7-3-0.9-4.7h45.6C75.2,10.6,75.3,9.5,75.3,8.4L75.3,8.4z"/>
</svg>
