<?xml version="1.0" encoding="utf-8"?>
<!-- Generator: Adobe Illustrator 21.0.2, SVG Export Plug-In . SVG Version: 6.00 Build 0)  -->
<svg version="1.1" id="Layer_1" xmlns="http://www.w3.org/2000/svg" xmlns:xlink="http://www.w3.org/1999/xlink" x="0px" y="0px"
	 viewBox="0 0 100 100" style="enable-background:new 0 0 100 100;" xml:space="preserve">
<path class="st0" d="M72.6,53.7c0.7,2.3,1.1,4.7,1.1,7.2C73.7,74.2,62.8,85,49.5,85c-13.3,0-24.1-10.8-24.1-24.1
	c0-2.5,0.4-5,1.1-7.2H72.6L72.6,53.7z M65.9,27.2C78.4,33.3,87,46.1,87,60.9c0,20.7-16.8,37.5-37.5,37.5C28.8,98.4,12,81.6,12,60.9
	c0-14.8,8.6-27.6,21.1-33.7V12.6h-4c-0.6,0-1.1-0.5-1.1-1.1V4.2c0-1.1,0.9-2,2-2h39.1c1.1,0,2,0.9,2,2v7.4c0,0.6-0.5,1.1-1.1,1.1h-4
	V27.2L65.9,27.2z M41.3,12.6v11.7v8.4c-12.2,3.6-21.1,14.8-21.1,28.1c0,16.2,13.1,29.3,29.3,29.3c16.2,0,29.3-13.1,29.3-29.3
	c0-13.3-8.9-24.6-21.1-28.1v-8.4V12.6H41.3L41.3,12.6z"/>
</svg>
