<?xml version="1.0" encoding="utf-8"?>
<!-- Generator: Adobe Illustrator 21.0.2, SVG Export Plug-In . SVG Version: 6.00 Build 0)  -->
<svg version="1.1" id="Layer_1" xmlns="http://www.w3.org/2000/svg" xmlns:xlink="http://www.w3.org/1999/xlink" x="0px" y="0px"
	 viewBox="0 0 100 100" style="enable-background:new 0 0 100 100;" xml:space="preserve">
<path class="st0" d="M39.6,12.6v24.5c0,0.8-0.2,1.6-0.6,2.3L12.9,90h75.7L62.3,39.1c-0.3-0.6-0.5-1.3-0.5-2h0V12.6H39.6L39.6,12.6z
	 M24.9,12.2c-0.6,0-1.1-0.5-1.1-1.1V3.5c0-1.1,0.9-2.1,2.1-2.1h49.6c1.1,0,2.1,0.9,2.1,2.1v7.6c0,0.6-0.5,1.1-1.1,1.1h-6v23.9
	L99.4,92c0.4,0.7,0.6,1.4,0.6,2.3c0,2.4-1.9,4.4-4.4,4.4H5.7v0c-0.7,0-1.4-0.2-2-0.5c-2.1-1.1-3-3.7-1.9-5.8l29-56.2V12.2H24.9
	L24.9,12.2z M36.2,57.4L22.4,84.2H79L65.2,57.4H36.2L36.2,57.4z"/>
</svg>
