<?xml version="1.0" encoding="utf-8"?>
<!-- Generator: Adobe Illustrator 21.0.2, SVG Export Plug-In . SVG Version: 6.00 Build 0)  -->
<svg version="1.1" id="Layer_1" xmlns="http://www.w3.org/2000/svg" xmlns:xlink="http://www.w3.org/1999/xlink" x="0px" y="0px"
	 viewBox="0 0 78 97" style="enable-background:new 0 0 78 97;" xml:space="preserve">
<g>
	<g>
		<path d="M74.4,75c-7.9-14.2-18.9-33.9-20.9-37.5V5.7c1.5-0.1,2.7-1.3,2.7-2.8c0-1.5-1.2-2.8-2.8-2.8h-2.6h-11h-1h-11h-2.6
			c-1.5,0-2.8,1.2-2.8,2.8c0,1.5,1.2,2.7,2.7,2.8v31.7C23,41.1,12.1,60.8,4.1,75c-3.9,6.9-4.7,12.4-2.3,16.4c2.2,3.8,7,5.8,14,5.8
			c6.2,0,19.9-0.1,23.5-0.1c3.6,0,17.3,0.1,23.5,0.1c6.9,0,11.8-2,14-5.8C79,87.4,78.2,81.9,74.4,75z M72.1,88.6
			c-1.2,2-4.6,3.1-9.3,3.1c-5.7,0-17.7-0.1-22.4-0.1c-0.1,0-0.2,0-0.2,0c0,0,0,0,0,0c0,0-0.3,0-0.8,0c-0.5,0-0.8,0-0.8,0
			c0,0,0,0,0,0c-0.1,0-0.2,0-0.2,0c-4.7,0-16.7,0.1-22.4,0.1c-4.8,0-8.2-1.1-9.3-3.1c-1.3-2.2-0.4-6,2.4-11
			C17.6,62,30,39.6,30.1,39.4c0.2-0.4,0.3-0.8,0.3-1.3V5.7H48v32.4c0,0.5,0.1,0.9,0.3,1.3c0.1,0.2,12.5,22.6,21.3,38.2
			C72.5,82.6,73.3,86.5,72.1,88.6z"/>
		<path d="M52.4,54.5h-8.1H34.1h-8.1c-4.3,7.7-9.2,16.5-13.4,24c-4.3,7.8-2.1,8.1-2.2,8.1c0.3,0.3-0.1,1.1,6,1.1
			c5.6,0,16.2-0.1,22.7-0.1c6.5,0,17.2,0.1,22.7,0.1c6.1,0,5.7-0.7,6-1.1c-0.1,0,2.1-0.4-2.2-8.1C61.6,71,56.7,62.3,52.4,54.5z
			 M33.5,73.5c-3.6,0-6.6-2.9-6.6-6.6c0-3.6,2.9-6.6,6.6-6.6c3.6,0,6.6,2.9,6.6,6.6C40.1,70.6,37.1,73.5,33.5,73.5z M48.2,80.9
			c-2,0-3.7-1.7-3.7-3.7c0-2,1.7-3.7,3.7-3.7c2,0,3.7,1.7,3.7,3.7C51.8,79.2,50.2,80.9,48.2,80.9z"/>
		<ellipse cx="42" cy="47" rx="5.7" ry="5.7"/>
	</g>
</g>
</svg>
