<?xml version="1.0" encoding="utf-8"?>
<!-- Generator: Adobe Illustrator 21.1.0, SVG Export Plug-In . SVG Version: 6.00 Build 0)  -->
<svg version="1.1" id="Layer_1" xmlns="http://www.w3.org/2000/svg" xmlns:xlink="http://www.w3.org/1999/xlink" x="0px" y="0px"
	 viewBox="0 0 1792 1792" style="enable-background:new 0 0 1792 1792;" xml:space="preserve">
<path d="M1662,450c-44-44-96.7-66-158-66H832v-32c0-61.3-22-114-66-158s-96.7-66-158-66H288c-61.3,0-114,22-158,66s-66,96.7-66,158
	v960c0,61.3,22,114,66,158s96.7,66,158,66h1216c61.3,0,114-22,158-66s66-96.7,66-158V608C1728,546.7,1706,494,1662,450z
	 M1328.9,1051.8l-43.9,43.9c-14.8,14.8-32.6,22.2-53.2,22.2c-21.1,0-38.6-7.4-52.6-22.2l-171.9-171.3V1336
	c0,20.3-7.3,36.7-21.9,49.4c-14.6,12.7-32.3,19-52.9,19h-74.9c-20.7,0-38.3-6.3-52.9-19c-14.6-12.7-21.9-29.1-21.9-49.4V924.3
	l-171.9,171.3c-14,14.8-31.6,22.2-52.6,22.2c-21.1,0-38.6-7.4-52.6-22.2l-43.9-43.9c-14.8-14.8-22.2-32.4-22.2-52.6
	c0-20.7,7.4-38.4,22.2-53.2l380.7-380.7c13.6-14.4,31.2-21.6,52.6-21.6c21.1,0,38.8,7.2,53.2,21.6l380.7,380.7
	c14.4,15.2,21.6,32.9,21.6,53.2C1350.5,1019,1343.3,1036.6,1328.9,1051.8z"/>
</svg>
