<?xml version="1.0" encoding="utf-8"?>
<!-- Generator: Adobe Illustrator 21.0.2, SVG Export Plug-In . SVG Version: 6.00 Build 0)  -->
<svg version="1.1" id="Layer_1" xmlns="http://www.w3.org/2000/svg" xmlns:xlink="http://www.w3.org/1999/xlink" x="0px" y="0px"
	 viewBox="0 0 100 52" style="enable-background:new 0 0 100 52;" xml:space="preserve">
<g>
	<path d="M20.5,26v12.8h0c0,0,0,0,0,0c0,0.1,0,0.2,0,0.3h0c0,6.6,13,11.9,29.1,11.9c16.1,0,29.1-5.3,29.1-11.9h0c0-0.1,0-0.2,0-0.3
		c0,0,0,0,0,0h0V26l-29.1,9L20.5,26z"/>
	<path d="M90.4,28.2v-0.9c0-0.4-0.2-0.7-0.4-0.8v-3.8V19l9-2.8L49.7,1L0.3,16.2l49.3,15.2l39-12V23v3.4c-0.3,0.1-0.4,0.5-0.4,0.8
		v0.9c0,0.3,0.2,0.6,0.4,0.8l-1.5,8.3h2.2h2.2L90,29C90.3,28.8,90.4,28.5,90.4,28.2z"/>
</g>
</svg>
