<?xml version="1.0" encoding="utf-8"?>
<!-- Generator: Adobe Illustrator 21.0.2, SVG Export Plug-In . SVG Version: 6.00 Build 0)  -->
<svg version="1.1" id="Layer_1" xmlns="http://www.w3.org/2000/svg" xmlns:xlink="http://www.w3.org/1999/xlink" x="0px" y="0px"
	 viewBox="0 0 100 88" style="enable-background:new 0 0 100 88;" xml:space="preserve">
<g>
	<polygon points="42.6,69.5 42.6,72.2 57.6,72.2 57.6,69.5 55,69.5 55,41.8 57.6,41.8 57.6,39.1 42.6,39.1 42.6,41.8 45.2,41.8 
		45.2,69.5 	"/>
	<polygon points="14.2,69.5 14.2,72.2 29.1,72.2 29.1,69.5 26.6,69.5 26.6,41.8 29.1,41.8 29.1,39.1 14.2,39.1 14.2,41.8 16.7,41.8 
		16.7,69.5 	"/>
	<polygon points="71.1,69.5 71.1,72.2 86,72.2 86,69.5 83.5,69.5 83.5,41.8 86,41.8 86,39.1 71.1,39.1 71.1,41.8 73.6,41.8 
		73.6,69.5 	"/>
	<path d="M7.1,77.5v1.1c0,1,0.8,1.7,1.7,1.7h82.5c1,0,1.7-0.8,1.7-1.7v-1.1c0-1-0.8-1.7-1.7-1.7H8.8C7.9,75.7,7.1,76.5,7.1,77.5z"/>
	<path d="M97.8,83.4H2.4c-1,0-1.7,0.8-1.7,1.7v1.1c0,1,0.8,1.7,1.7,1.7h95.4c1,0,1.7-0.8,1.7-1.7v-1.1
		C99.6,84.1,98.8,83.4,97.8,83.4z"/>
	<path d="M5.8,35.9h88.7c0.8,0,1.5-0.5,1.7-1.3s0-1.6-0.7-2L51.2,0.4c-0.6-0.5-1.5-0.5-2.1,0L4.7,32.6c-0.6,0.5-0.9,1.3-0.7,2
		C4.3,35.4,5,35.9,5.8,35.9z M50.1,12.6c3.9,0,7.1,3.2,7.1,7.1s-3.2,7.1-7.1,7.1S43,23.6,43,19.7C43,15.7,46.2,12.6,50.1,12.6z"/>
</g>
</svg>
