<?xml version="1.0" encoding="utf-8"?>
<!-- Generator: Adobe Illustrator 21.1.0, SVG Export Plug-In . SVG Version: 6.00 Build 0)  -->
<svg version="1.1" id="Layer_2" xmlns="http://www.w3.org/2000/svg" xmlns:xlink="http://www.w3.org/1999/xlink" x="0px" y="0px"
	 viewBox="0 0 49 78" style="enable-background:new 0 0 49 78;" xml:space="preserve">
<path d="M48.4,25c0-10-8-24-24-24s-24,14-24,24s8,18,9,20s2.7,4.4,2.7,6.4s0,4.3,1,5.3c0.9,0.9,2.3,0.8,2.3,0.8l17.9,0
	c0,0,1.5,0,2.3-0.8c1-1,1-3.3,1-5.3s1.7-4.4,2.7-6.4S48.4,35,48.4,25z"/>
<path id="SVGID_1_" d="M19.7,71.7c-0.5,0-0.9,0.2-1.2,0.5c-0.3,0.3-0.4,0.8-0.2,1.2c0.8,2.2,3.2,3.8,6.1,3.8c2.8,0,5.2-1.6,6.1-3.8
	c0.2-0.4,0.1-0.8-0.2-1.2c-0.3-0.3-0.7-0.5-1.2-0.5H19.7z"/>
<path d="M32.9,64h-17c-1.3,0-2.4-1.1-2.4-2.4v-0.3c0-1.3,1.1-2.4,2.4-2.4h17c1.3,0,2.4,1.1,2.4,2.4v0.3C35.3,62.9,34.3,64,32.9,64z"
	/>
<path d="M32.9,70.4h-17c-1.3,0-2.4-1.1-2.4-2.4v-0.3c0-1.3,1.1-2.4,2.4-2.4h17c1.3,0,2.4,1.1,2.4,2.4V68
	C35.3,69.3,34.3,70.4,32.9,70.4z"/>
</svg>
