<svg version="1.1" xmlns="http://www.w3.org/2000/svg" xmlns:xlink="http://www.w3.org/1999/xlink" x="0px" y="0px" width="24px"
	 height="24px" viewBox="0 0 24 24" style="enable-background:new 0 0 24 24;" xml:space="preserve">
<g id="Line_Icons">
	<g>
		<path d="M21.414,18.586l-3.959-3.959c0.984-1.519,1.518-3.288,1.518-5.141c0-2.533-0.986-4.916-2.779-6.707
			C14.402,0.987,12.02,0,9.486,0S4.57,0.987,2.779,2.778C0.987,4.57,0,6.953,0,9.486c0,2.534,0.987,4.917,2.779,6.708
			c1.791,1.792,4.174,2.778,6.707,2.778c1.854,0,3.622-0.532,5.141-1.517l3.959,3.959C18.964,21.792,19.466,22,20,22
			s1.036-0.208,1.414-0.586C21.792,21.037,22,20.535,22,20C22,19.465,21.792,18.963,21.414,18.586z M4.193,14.778
			C2.779,13.365,2,11.486,2,9.486c0-2,0.779-3.879,2.193-5.292C5.607,2.779,7.486,2,9.486,2s3.879,0.779,5.293,2.194
			c1.414,1.413,2.193,3.292,2.193,5.292c0,2-0.779,3.879-2.193,5.293c-1.414,1.415-3.293,2.193-5.293,2.193
			S5.607,16.194,4.193,14.778z"/>
	</g>
</g>
</svg>
