<?xml version="1.0" encoding="utf-8"?>
<!-- Generator: Adobe Illustrator 21.1.0, SVG Export Plug-In . SVG Version: 6.00 Build 0)  -->
<svg version="1.1" id="Layer_2" xmlns="http://www.w3.org/2000/svg" xmlns:xlink="http://www.w3.org/1999/xlink" x="0px" y="0px"
	 viewBox="0 0 323.9 270" style="enable-background:new 0 0 323.9 270;" xml:space="preserve">
<path d="M323.2,230.6l-67-217.9c-2.9-9.5-13-14.8-22.5-11.9l-4,1.2c-9.5,2.9-14.8,13-11.9,22.5l2.1,6.9L37.1,155.8
	c-4.2-6.7-12.6-10.1-20.5-7.7l-3.8,1.2c-9.5,2.9-14.8,13-11.9,22.5l21.8,70.7c2.9,9.5,13,14.8,22.5,11.9l3.8-1.2
	c7.9-2.4,13-9.9,12.7-17.9l28.3,0v12.7c0,12,9.9,21.9,21.9,21.9h55c12,0,21.9-9.9,21.9-21.9v-12.6l94,0.1l2.1,6.9
	c2.9,9.5,13,14.8,22.5,11.9l4-1.2C320.7,250.2,326.1,240,323.2,230.6z M174.1,241.4c0,8-6.6,14.6-14.6,14.6h-40.4
	c-8,0-14.6-6.6-14.6-14.6v-6l69.6,0.1V241.4z"/>
</svg>
