<?xml version="1.0" encoding="utf-8"?>
<!-- Generator: Adobe Illustrator 21.0.2, SVG Export Plug-In . SVG Version: 6.00 Build 0)  -->
<svg version="1.1" id="Layer_1" xmlns="http://www.w3.org/2000/svg" xmlns:xlink="http://www.w3.org/1999/xlink" x="0px" y="0px"
	 viewBox="0 0 100 100" style="enable-background:new 0 0 100 100;" xml:space="preserve">
<path class="st0" d="M32.5,48.6l-1,3.7c-0.3,0.9,0.3,1.9,1.3,2.2l7.4,2c0.9,0.3,1.9-0.3,2.2-1.3l1-3.7L32.5,48.6L32.5,48.6z
	 M50.4,83.1c-2.7,0-5,2.2-5,5c0,2.7,2.2,5,5,5c2.7,0,5-2.2,5-5C55.4,85.3,53.2,83.1,50.4,83.1L50.4,83.1z M46.1,66.9H16.7
	c-0.9,0-1.6,0.7-1.6,1.6v4c0,0.9,0.7,1.6,1.6,1.6h4.6c3.8,5.5,9.1,9.8,15.4,12.3c-5.6,1.5-9.7,4.1-9.7,7.8v3.8
	c0,0.6,0.5,1.1,1.1,1.1h42.8c0.6,0,1.1-0.5,1.1-1.1v-3.8c0-3.6-3.9-6.2-9.4-7.7C75.1,81.5,84,69.1,84,54.6c0-16.9-12.2-31-28.3-33.9
	l2-7.3l-18.5-5l-9.6,35.7c-0.2,0.6,0.2,1.3,0.9,1.5L46.6,50c0.6,0.2,1.3-0.2,1.5-0.9l4.2-15.7c10.5,1.3,18.6,10.3,18.6,21.2
	c0,11.8-9.6,21.3-21.3,21.3c-3,0-5.9-0.6-8.5-1.8h5.1c0.9,0,1.6-0.7,1.6-1.6v-4C47.7,67.7,47,66.9,46.1,66.9L46.1,66.9z M58.3,6.3
	L42.2,1.9c-0.6-0.2-1.3,0.2-1.5,0.9l-0.8,3l18.5,5l0.8-3C59.4,7.1,59,6.5,58.3,6.3L58.3,6.3z"/>
</svg>
