<?xml version="1.0" encoding="utf-8"?>
<!-- Generator: Adobe Illustrator 21.0.2, SVG Export Plug-In . SVG Version: 6.00 Build 0)  -->
<svg version="1.1" id="Layer_1" xmlns="http://www.w3.org/2000/svg" xmlns:xlink="http://www.w3.org/1999/xlink" x="0px" y="0px"
	 viewBox="0 0 100 100" style="enable-background:new 0 0 100 100;" xml:space="preserve">
<path class="st0" d="M30.3,26.9H36c-0.4,1.1-0.7,2.2-0.7,3.5c0,1.2,0.2,2.4,0.7,3.5h-5.8c0.4-1.1,0.7-2.2,0.7-3.5
	C30.9,29.1,30.7,27.9,30.3,26.9L30.3,26.9z M90.7,62.9c4,0,7.3,3.3,7.3,7.3c0,4-3.3,7.3-7.3,7.3c-4,0-7.3-3.3-7.3-7.3
	C83.4,66.2,86.7,62.9,90.7,62.9L90.7,62.9z M79.2,82.9c4,0,7.3,3.3,7.3,7.3c0,4-3.3,7.3-7.3,7.3c-4,0-7.3-3.3-7.3-7.3
	C71.9,86.1,75.2,82.9,79.2,82.9L79.2,82.9z M56.2,82.9c4,0,7.3,3.3,7.3,7.3c0,4-3.3,7.3-7.3,7.3c-4,0-7.3-3.3-7.3-7.3
	C48.9,86.1,52.2,82.9,56.2,82.9L56.2,82.9z M21.6,23c4,0,7.3,3.3,7.3,7.3c0,4-3.3,7.3-7.3,7.3c-4,0-7.3-3.3-7.3-7.3
	C14.4,26.3,17.6,23,21.6,23L21.6,23z M10.1,43c4,0,7.3,3.3,7.3,7.3c0,4-3.3,7.3-7.3,7.3c-4,0-7.3-3.3-7.3-7.3
	C2.8,46.2,6.1,43,10.1,43L10.1,43z M21.6,62.9c4,0,7.3,3.3,7.3,7.3c0,4-3.3,7.3-7.3,7.3c-4,0-7.3-3.3-7.3-7.3
	C14.4,66.2,17.6,62.9,21.6,62.9L21.6,62.9z M44.7,62.9c4,0,7.3,3.3,7.3,7.3c0,4-3.3,7.3-7.3,7.3c-4,0-7.3-3.3-7.3-7.3
	C37.4,66.2,40.6,62.9,44.7,62.9L44.7,62.9z M56.2,43c4,0,7.3,3.3,7.3,7.3c0,4-3.3,7.3-7.3,7.3c-4,0-7.3-3.3-7.3-7.3
	C48.9,46.2,52.2,43,56.2,43L56.2,43z M44.7,23c4,0,7.3,3.3,7.3,7.3c0,4-3.3,7.3-7.3,7.3c-4,0-7.3-3.3-7.3-7.3
	C37.4,26.3,40.6,23,44.7,23L44.7,23z M56.2,3.1c4,0,7.3,3.3,7.3,7.3c0,4-3.3,7.3-7.3,7.3c-4,0-7.3-3.3-7.3-7.3
	C48.9,6.4,52.2,3.1,56.2,3.1L56.2,3.1z M79.2,3.1c4,0,7.3,3.3,7.3,7.3c0,4-3.3,7.3-7.3,7.3c-4,0-7.3-3.3-7.3-7.3
	C71.9,6.4,75.2,3.1,79.2,3.1L79.2,3.1z M90.7,23c4,0,7.3,3.3,7.3,7.3c0,4-3.3,7.3-7.3,7.3c-4,0-7.3-3.3-7.3-7.3
	C83.4,26.3,86.7,23,90.7,23L90.7,23z M79.2,43c4,0,7.3,3.3,7.3,7.3s-3.3,7.3-7.3,7.3c-4,0-7.3-3.3-7.3-7.3S75.2,43,79.2,43L79.2,43z
	 M46,21.1l2.9-5c1.4,1.8,3.6,3.1,6,3.5l-2.9,5C50.5,22.8,48.4,21.5,46,21.1L46,21.1z M64.8,6.9h5.8c-0.4,1.1-0.7,2.2-0.7,3.5
	c0,1.2,0.2,2.4,0.7,3.5h-5.8c0.4-1.1,0.7-2.2,0.7-3.5C65.5,9.2,65.2,8,64.8,6.9L64.8,6.9z M86.5,16.1l2.9,5c-2.4,0.3-4.6,1.6-6,3.5
	l-2.9-5C82.9,19.2,85.1,18,86.5,16.1L86.5,16.1z M89.4,39.5l-2.9,5c-1.4-1.8-3.6-3.1-6-3.5l2.9-5C84.8,37.9,87,39.2,89.4,39.5
	L89.4,39.5z M86.5,56l2.9,5c-2.4,0.3-4.6,1.6-6,3.5l-2.9-5C82.9,59.1,85.1,57.8,86.5,56L86.5,56z M89.4,79.4l-2.9,5
	c-1.4-1.8-3.6-3.1-6-3.5l2.9-5C84.8,77.8,87,79.1,89.4,79.4L89.4,79.4z M70.6,93.6h-5.8c0.4-1.1,0.7-2.2,0.7-3.5
	c0-1.2-0.2-2.4-0.7-3.5h5.8c-0.4,1.1-0.7,2.2-0.7,3.5C69.9,91.4,70.1,92.5,70.6,93.6L70.6,93.6z M48.9,84.4l-2.9-5
	c2.4-0.3,4.6-1.6,6-3.5l2.9,5C52.4,81.3,50.3,82.6,48.9,84.4L48.9,84.4z M36,73.7h-5.8c0.4-1.1,0.7-2.2,0.7-3.5
	c0-1.2-0.2-2.4-0.7-3.5H36c-0.4,1.1-0.7,2.2-0.7,3.5C35.4,71.4,35.6,72.6,36,73.7L36,73.7z M14.3,64.5l-2.9-5c2.4-0.3,4.5-1.6,6-3.5
	l2.9,5C17.9,61.4,15.8,62.6,14.3,64.5L14.3,64.5z M11.5,41.1l2.9-5c1.4,1.8,3.6,3.1,6,3.5l-2.9,5C16,42.7,13.9,41.4,11.5,41.1
	L11.5,41.1z M70.6,53.7h-5.8c0.4-1.1,0.7-2.2,0.7-3.5c0-1.2-0.2-2.4-0.7-3.5h5.8c-0.4,1.1-0.7,2.2-0.7,3.5
	C69.9,51.5,70.1,52.7,70.6,53.7L70.6,53.7z M54.9,59.5l-2.9,5c-1.4-1.8-3.6-3.1-6-3.5l2.9-5C50.3,57.8,52.4,59.1,54.9,59.5
	L54.9,59.5z M52,36.1l2.9,5c-2.4,0.3-4.6,1.6-6,3.5l-2.9-5C48.4,39.2,50.5,37.9,52,36.1L52,36.1z"/>
</svg>
