<?xml version="1.0" encoding="utf-8"?>
<!-- Generator: Adobe Illustrator 21.1.0, SVG Export Plug-In . SVG Version: 6.00 Build 0)  -->
<svg version="1.1" id="Layer_2" xmlns="http://www.w3.org/2000/svg" xmlns:xlink="http://www.w3.org/1999/xlink" x="0px" y="0px"
	 viewBox="0 0 91 81" style="enable-background:new 0 0 91 81;" xml:space="preserve">
<g>
	<rect x="53.8" y="42.2" width="24" height="19.8"/>
	<g>
		<rect x="13.8" y="42" width="34" height="4"/>
		<rect x="13.8" y="50" width="34" height="4"/>
		<rect x="13.8" y="58" width="34" height="4"/>
	</g>
</g>
<g>
	<path d="M7,0C3.2,0,0,3.2,0,7v67c0,3.8,3.2,7,7,7h77c3.8,0,7-3.2,7-7V7c0-3.8-3.2-7-7-7H7z M86,69c0,3.8-3.2,7-7,7H12
		c-3.9,0-7-3.2-7-7V12c0-3.9,3.1-7,7-7h67c3.8,0,7,3.1,7,7V69z"/>
</g>
<rect x="13.7" y="13.8" width="63.5" height="15.3"/>
</svg>
