<?xml version="1.0" encoding="utf-8"?>
<!-- Generator: Adobe Illustrator 21.0.2, SVG Export Plug-In . SVG Version: 6.00 Build 0)  -->
<svg version="1.1" id="Layer_1" xmlns="http://www.w3.org/2000/svg" xmlns:xlink="http://www.w3.org/1999/xlink" x="0px" y="0px"
	 viewBox="0 0 100 100" style="enable-background:new 0 0 100 100;" xml:space="preserve">
<g>
	<path d="M98,42.8c0-0.1,0-0.2,0-0.3c0-0.1,0-0.2,0-0.3V42h0C97.7,21.9,76.4,5.7,50.3,5.7C23.9,5.7,2.5,22.2,2.5,42.5
		c0,0.4,0,0.9,0,1.3v12.7c0,0.4,0,0.9,0,1.3c0,0.4,0,0.9,0,1.3v0.2h0c1.1,19.5,22,35.2,47.7,35.2c25.6,0,46.6-15.7,47.7-35.2h0v-1.2
		c0-0.1,0-0.2,0-0.3c0-0.1,0-0.2,0-0.3V42.8z M50.3,89.8c-23.1,0-42-13.7-42.9-30.7v-0.5c7.8,12.2,24.1,20.7,42.9,20.7
		c18.8,0,35.1-8.4,42.9-20.7C92.6,75.8,73.6,89.8,50.3,89.8z M93.2,42.8C93,60.3,73.8,74.5,50.3,74.5c-23.1,0-42-13.7-42.9-30.7
		v-2.2h0C8,24.4,27,10.5,50.3,10.5c23.5,0,42.7,14.2,42.9,31.7V42.8z"/>
	<path d="M10.2,37.7c-0.9,1-0.7,2.5,0.3,3.4c0.5,0.4,1,0.6,1.5,0.6c0.7,0,1.4-0.3,1.8-0.9c7.9-9.4,21.5-15,36.4-15
		c14.8,0,28.4,5.6,36.3,15c0.9,1,2.4,1.1,3.4,0.3c1-0.9,1.1-2.4,0.3-3.4C81.4,27.2,66.5,21,50.3,21C34,21,19,27.3,10.2,37.7z"/>
	<path d="M66.5,42.1c-1.6,0-3.2,0.2-4.6,0.6c0.6-1,1-2,1-3.1c0-4.3-5.4-7.9-12.1-7.9s-12.1,3.5-12.1,7.9s5.4,7.9,12.1,7.9
		c1.6,0,3.2-0.2,4.6-0.6c-0.6,1-1,2-1,3.1c0,4.3,5.4,7.9,12.1,7.9c6.7,0,12.1-3.5,12.1-7.9C78.6,45.6,73.2,42.1,66.5,42.1z"/>
	<ellipse cx="32.4" cy="56" rx="9.4" ry="6.1"/>
</g>
</svg>
