<?xml version="1.0" encoding="utf-8"?>
<!-- Generator: Adobe Illustrator 21.0.2, SVG Export Plug-In . SVG Version: 6.00 Build 0)  -->
<svg version="1.1" id="Layer_1" xmlns="http://www.w3.org/2000/svg" xmlns:xlink="http://www.w3.org/1999/xlink" x="0px" y="0px"
	 viewBox="0 0 18.6 15.1" style="enable-background:new 0 0 18.6 15.1;" xml:space="preserve">
<g>
	<path d="M7.9,1.5C4.5,4.1,3.2,6.2,3.2,9.1c0.4-0.3,1.1-0.4,1.7-0.4c1.7,0,2.9,1.3,2.9,3.1c0,2-1.5,3.4-3.8,3.4
		C1.4,15.1,0,13.2,0,9.8C0,6.1,1.6,3.7,6.6,0L7.9,1.5z M18.6,1.5c-3.4,2.6-4.7,4.7-4.7,7.6c0.4-0.3,1.1-0.4,1.7-0.4
		c1.7,0,2.9,1.3,2.9,3.1c0,2-1.5,3.4-3.8,3.4c-2.6,0-3.9-1.8-3.9-5.2c0-3.8,1.6-6.1,6.6-9.8L18.6,1.5z"/>
</g>
</svg>
