<?xml version="1.0" encoding="utf-8"?>
<!-- Generator: Adobe Illustrator 21.0.2, SVG Export Plug-In . SVG Version: 6.00 Build 0)  -->
<svg version="1.1" id="Layer_1" xmlns="http://www.w3.org/2000/svg" xmlns:xlink="http://www.w3.org/1999/xlink" x="0px" y="0px"
	 viewBox="0 0 100 100" style="enable-background:new 0 0 100 100;" xml:space="preserve">
<path d="M87.7,94.3h-5.2c0.1-0.1,0.2-0.3,0.2-0.4l5.7-36.2c0-0.3,0-0.7,0-1.2c-0.1-1-0.5-1.9-1.2-2.6l-6-6c8.3-15,8.3-31.8-0.7-42.7
	c-0.4-0.6-0.8-1.1-1.3-1.6c-1.8-1.8-4.4-2.8-7.6-2.8c-9.3,0-23.4,8-36.3,20.5l-7.4-7.4c1-2.3,0.5-5-1.3-6.9c-2.4-2.4-6.4-2.4-8.8,0
	c-2.4,2.4-2.4,6.4,0,8.8c1.8,1.8,4.6,2.3,6.8,1.3l7.4,7.4c-7.7,8-13.7,16.5-17.3,24.2c-4.1,9-4.2,16-0.4,19.8c0.5,0.5,1,0.9,1.6,1.3
	c14,11.6,37.6,8.1,54.6-8.2l1.8,1.8c-4.1,4-8.7,7.3-13.5,9.8l-13.7,20c-0.2,0.4-0.2,0.7-0.3,1.1H33.2c-1.3,0-2.3,1-2.3,2.3
	c0,1.3,1,2.3,2.3,2.3h54.5c1.3,0,2.3-1,2.3-2.3C90,95.3,89,94.3,87.7,94.3z M74.3,21.3c-3.5,7.7-9.9,16.4-17.9,24.4
	C44.1,58.1,30.2,66.4,21.9,66.4c-1.9,0-3.3-0.5-4.1-1.3c-2.2-2.2-1.7-7.6,1.4-14.3c3.3-7.2,9-15.2,16.3-22.8l15.2,15.1
	c0.5,0.5,1,0.7,1.6,0.7c0.6,0,1.2-0.2,1.6-0.7c0.9-0.9,0.9-2.4,0-3.3L38.7,24.7C50.6,13.2,63.7,5.6,71.6,5.6c1.9,0,3.3,0.4,4.1,1.3
	C77.9,9.1,77.4,14.5,74.3,21.3z"/>
</svg>
