<?xml version="1.0" encoding="utf-8"?>
<!-- Generator: Adobe Illustrator 21.1.0, SVG Export Plug-In . SVG Version: 6.00 Build 0)  -->
<svg version="1.1" id="Layer_1" xmlns="http://www.w3.org/2000/svg" xmlns:xlink="http://www.w3.org/1999/xlink" x="0px" y="0px"
	 viewBox="0 0 85.8 85.8" style="enable-background:new 0 0 85.8 85.8;" xml:space="preserve">
<g>
	<path class="st0" d="M84.6,1.2L84.6,1.2c-1.6-1.6-4.1-1.6-5.7,0l-12,12L48.5,8.6c-1-0.3-2.2-0.1-3.1,0.7L17,37.7l0,0
		c-1.2,1.2-1.2,3.1,0,4.3l26.6,26.6c0.1,0.1,0.1,0.1,0.2,0.2c1.2,1.2,3.1,1.2,4.3,0l28.4-28.4l0,0c0.7-0.7,1.1-1.8,0.8-2.9
		l-4.6-18.6l12-12C86.2,5.3,86.2,2.7,84.6,1.2z M45.3,61.8L24,40.5l24.4-24.4l16.8,4.5l4.5,16.8L45.3,61.8z"/>
	<path class="st0" d="M46.2,21.4l-2.9,2.9l5.8,5.8c0.8,0.8,2.1,0.8,2.9,0c0.8-0.8,0.8-2.1,0-2.9L46.2,21.4z"/>
	<path class="st0" d="M34.7,32.9l-2.9,2.9l5.8,5.8c0.8,0.8,2.1,0.8,2.9,0s0.8-2.1,0-2.9L34.7,32.9z"/>
	<path class="st0" d="M40.5,27.2l-2.9,2.9l5.8,5.8c0.8,0.8,2.1,0.8,2.9,0c0.8-0.8,0.8-2.1,0-2.9L40.5,27.2z"/>
	<path class="st0" d="M19,50.4l-6.5,6.5l-4.3-4.3c-1.9-1.9-5-1.9-6.8,0l0,0c-1.9,1.9-1.9,5,0,6.8l25,25c1.9,1.9,5,1.9,6.8,0v0
		c1.9-1.9,1.9-5,0-6.8l-4.3-4.3l6.5-6.5L19,50.4z"/>
</g>
</svg>
