<?xml version="1.0" encoding="utf-8"?>
<!-- Generator: Adobe Illustrator 21.0.2, SVG Export Plug-In . SVG Version: 6.00 Build 0)  -->
<svg version="1.1" id="Layer_2" xmlns="http://www.w3.org/2000/svg" xmlns:xlink="http://www.w3.org/1999/xlink" x="0px" y="0px"
	 viewBox="0 0 81.4 78.7" style="enable-background:new 0 0 81.4 78.7;" xml:space="preserve">
<path d="M81.3,70.3H11.8c-0.9-2.3-3.1-3.9-5.7-3.9c-3.4,0-6.1,2.7-6.1,6.1s2.7,6.1,6.1,6.1c2.6,0,4.8-1.6,5.7-3.9h69.4V70.3z"/>
<path d="M77.4,0H3.8c-1.6,0-3,1.4-3,3v54.1c0,1.7,1.4,3,3,3h73.6c1.7,0,3-1.3,3-3V3C80.4,1.4,79.1,0,77.4,0z M75.8,55.9H5.4V4.2
	h70.4V55.9z"/>
<g>
	<path d="M50.3,32.6c2.4-1.4,2.4-3.6,0-5L31,16.4c-2.4-1.4-4.3-0.2-4.3,2.5v22.2c0,2.8,1.9,3.9,4.3,2.5L50.3,32.6z"/>
</g>
</svg>
