<?xml version="1.0" encoding="utf-8"?>
<!-- Generator: Adobe Illustrator 21.1.0, SVG Export Plug-In . SVG Version: 6.00 Build 0)  -->
<svg version="1.1" id="Layer_1" xmlns="http://www.w3.org/2000/svg" xmlns:xlink="http://www.w3.org/1999/xlink" x="0px" y="0px"
	 viewBox="0 0 561 85.8" style="enable-background:new 0 0 561 85.8;" xml:space="preserve">
<g>
	<g>
		<path fill="#ffffff" d="M137.6,33c-3,1.6-5.5,2.5-9.7,2.5c-9.4,0-16-6.1-16-15.4c0-8.7,6.8-16,16.1-16c2.4,0,5.1,0.5,6.9,1.5l2-1.6
			h0.5l0.4,10.1l-0.8,0.1c-3.1-6.3-6.3-8.6-11-8.6c-4.1,0-8.7,4-8.7,13.8c0,9.6,5.4,14.6,11.8,14.6c1.4,0,2.6-0.2,3.7-0.7l5.3-6.6
			l0.4,0.2L137.6,33z"/>
		<path fill="#ffffff" d="M146.7,22.1c0,6.3,2.1,10.5,7.4,10.5c2.3,0,4.2-0.5,6.9-1.9l0.3,0.6c-2.9,2.8-5.5,4.2-8.6,4.2
			c-6,0-10.3-4.4-10.3-11c0-6.6,4.6-11.6,10.4-11.6s8.7,3.9,8.7,9.1H146.7z M157,20.8c-0.3-4-1.6-6.8-4.6-6.8c-3,0-5.5,2.8-5.7,7.1
			L157,20.8z"/>
		<path fill="#ffffff" d="M185.6,33.4l3.1,0.8v0.6h-10v-0.6l3-0.8V21.6c0-3.6-1.3-5.3-4.4-5.3c-2,0-3.4,0.4-5.3,1.5v15.6l2.9,0.8v0.6
			h-10v-0.6l3.1-0.8V17.1l-3.1-2v-0.4l6.6-1.7l0.2,0.1l-0.1,3.8l0.2,0.1c2.8-2.6,5.5-3.9,8-3.9c4.2,0,5.8,3.2,5.8,6.5V33.4z"/>
		<path fill="#ffffff" d="M198.3,35.2c-3.6,0-4.6-1.6-4.6-4.9V15.9h-3.3v-0.6l3.7-2.4l2.8-4.3h0.8v5.3h7.1v2h-7.1v12.8
			c0,1.7,0.1,2.8,1.1,3.4c0.7,0.4,1.8,0.6,3.5,0.6c0.8,0,1.6,0,2.6-0.1l0,0.5C202.9,34.3,200.5,35.2,198.3,35.2z"/>
		<path fill="#ffffff" d="M211,22.1c0,6.3,2.1,10.5,7.4,10.5c2.3,0,4.2-0.5,6.9-1.9l0.3,0.6c-2.9,2.8-5.5,4.2-8.6,4.2
			c-6,0-10.3-4.4-10.3-11c0-6.6,4.6-11.6,10.4-11.6s8.7,3.9,8.7,9.1H211z M221.3,20.8c-0.3-4-1.6-6.8-4.6-6.8c-3,0-5.5,2.8-5.7,7.1
			L221.3,20.8z"/>
		<path fill="#ffffff" d="M243,18.3c-1.3,0-2.3-1-2.5-2.5c-1.7,0.1-3.5,1.5-4.2,3.1v14.5l3.2,0.8v0.6h-10.3v-0.6l3.1-0.8V17.1l-3.1-2
			v-0.4l6.6-1.7l0.2,0.1l-0.1,4.6l0.2,0.1c1.5-2.9,4-4.8,6.2-4.8c2.1,0,3.1,1.3,3.1,2.7C245.4,17.2,244.4,18.3,243,18.3z"/>
		<path fill="#ffffff" d="M266.3,15.9v17.4l3.8,0.8v0.6h-10.9v-0.6l3.1-0.8V15.9h-4.2v-0.8l4.2-1.2v-2.3c0-4.6,1.3-7.3,3.7-9.4
			c1.7-1.5,3.8-2.3,5.9-2.3c2.5,0,3.8,1.2,3.8,2.6s-0.9,2.4-2.4,2.4c-1.5,0-2.8-0.9-4.2-3.4c-2,1.2-2.9,3.6-2.9,8.2v4.2h5.8v1.9
			H266.3z"/>
		<path fill="#ffffff" d="M283.9,35.6c-6.6,0-10.2-4.8-10.2-11.3c0-6,4-11.3,10.9-11.3c6.7,0,10.2,4.7,10.2,11.1
			C294.7,30.2,290.8,35.6,283.9,35.6z M284,14.1c-3.2,0-5.8,3.3-5.8,10.4c0,6.9,2.9,10.1,6.2,10.1c3.5,0,5.8-3.3,5.8-10.4
			C290.1,17.3,287.5,14.1,284,14.1z"/>
		<path fill="#ffffff" d="M311.8,18.3c-1.3,0-2.3-1-2.5-2.5c-1.7,0.1-3.5,1.5-4.2,3.1v14.5l3.2,0.8v0.6H298v-0.6l3.1-0.8V17.1l-3.1-2
			v-0.4l6.6-1.7l0.2,0.1l-0.1,4.6l0.2,0.1c1.5-2.9,4-4.8,6.2-4.8c2.1,0,3.1,1.3,3.1,2.7C314.2,17.2,313.2,18.3,311.8,18.3z"/>
		<path fill="#ffffff" d="M353.3,33c-3,1.6-5.5,2.5-9.7,2.5c-9.4,0-16-6.1-16-15.4c0-8.7,6.8-16,16.1-16c2.4,0,5.1,0.5,6.9,1.5l2-1.6
			h0.5l0.4,10.1l-0.8,0.1c-3.1-6.3-6.3-8.6-11-8.6c-4.1,0-8.7,4-8.7,13.8c0,9.6,5.4,14.6,11.8,14.6c1.4,0,2.6-0.2,3.7-0.7l5.3-6.6
			l0.4,0.2L353.3,33z"/>
		<path fill="#ffffff" d="M368.2,34.2v0.6h-10.4v-0.6l3.3-0.8v-29l-3.4-2V1.8l7.2-1.8l0.2,0.1v33.3L368.2,34.2z"/>
		<path fill="#ffffff" d="M370.9,15.1v-0.4l6.9-1.7l0.2,0.1v20.3l3.1,0.8v0.6h-10.4v-0.6l3.3-0.8V17.1L370.9,15.1z M376.2,3.3
			c1.5,0,2.5,1.1,2.5,2.5c0,1.5-1.2,2.9-2.8,2.9c-1.5,0-2.5-1.1-2.5-2.6C373.4,4.7,374.6,3.3,376.2,3.3z"/>
		<path fill="#ffffff" d="M404.6,33.4l3.1,0.8v0.6h-10v-0.6l3-0.8V21.6c0-3.6-1.3-5.3-4.4-5.3c-2,0-3.4,0.4-5.3,1.5v15.6l2.9,0.8v0.6
			h-10v-0.6l3.1-0.8V17.1l-3.1-2v-0.4l6.6-1.7l0.2,0.1l-0.1,3.8l0.2,0.1c2.8-2.6,5.5-3.9,8-3.9c4.2,0,5.8,3.2,5.8,6.5V33.4z"/>
		<path fill="#ffffff" d="M410.4,15.1v-0.4l6.9-1.7l0.2,0.1v20.3l3.1,0.8v0.6h-10.4v-0.6l3.3-0.8V17.1L410.4,15.1z M415.6,3.3
			c1.5,0,2.5,1.1,2.5,2.5c0,1.5-1.2,2.9-2.8,2.9c-1.5,0-2.5-1.1-2.5-2.6C412.8,4.7,414,3.3,415.6,3.3z"/>
		<path fill="#ffffff" d="M438.9,20.1c-1.7,0-2.7-1.4-2.7-2.8c0-1,0.4-2.1,1-2.8c-0.7-0.1-1.2-0.2-2-0.2c-3.9,0-7.7,2.8-7.7,9.5
			c0,5,2.7,8.9,7.5,8.9c2.3,0,4.4-0.7,6.6-1.7l0.2,0.6c-2.2,2.4-5.2,4-8.2,4c-6.1,0-10.3-4.4-10.3-10.9c0-6.5,4.8-11.7,11.6-11.7
			c3.9,0,6.5,1.9,6.5,4.2C441.4,18.8,440.4,20.1,438.9,20.1z"/>
		<path fill="#ffffff" d="M461.3,32.1c0,1.4,1.1,1.8,3.9,1.5l0.1,0.5c-0.9,0.6-3.2,1.4-4.9,1.4c-1.8,0-2.7-1-2.9-3.5l-0.2-0.1
			c-2.2,2.2-4.6,3.6-7.1,3.6c-3.1,0-5-1.8-5-4.7c0-4.2,5-6.5,12.1-7.5v-3.5c0-3.1-2-4.8-4.8-4.8c-1,0-2.3,0.2-3.5,0.7
			c1,0.8,1.5,1.8,1.5,2.7c0,1.2-0.9,2.3-2.2,2.3c-1.4,0-2.3-1.1-2.3-2.3c0-3,4.9-5.5,9.4-5.5c4.1,0,5.9,2.2,5.9,6.4V32.1z
			 M457.4,24.8c-6,0-8,2.2-8,4.7c0,2,1.3,3.2,3.4,3.2c1.3,0,2.9-0.5,4.6-1.4V24.8z"/>
		<path fill="#ffffff" d="M476.8,34.2v0.6h-10.4v-0.6l3.3-0.8v-29l-3.4-2V1.8l7.2-1.8l0.2,0.1v33.3L476.8,34.2z"/>
		<path fill="#ffffff" d="M506.8,32.1c0,1.4,1.1,1.8,3.9,1.5l0.1,0.5c-0.9,0.6-3.2,1.4-4.9,1.4c-1.8,0-2.7-1-2.9-3.5l-0.2-0.1
			c-2.2,2.2-4.6,3.6-7.1,3.6c-3.1,0-5-1.8-5-4.7c0-4.2,5-6.5,12.1-7.5v-3.5c0-3.1-2-4.8-4.8-4.8c-1,0-2.3,0.2-3.5,0.7
			c1,0.8,1.5,1.8,1.5,2.7c0,1.2-0.9,2.3-2.2,2.3c-1.4,0-2.3-1.1-2.3-2.3c0-3,4.9-5.5,9.4-5.5c4.1,0,5.9,2.2,5.9,6.4V32.1z
			 M502.8,24.8c-6,0-8,2.2-8,4.7c0,2,1.3,3.2,3.4,3.2c1.3,0,2.9-0.5,4.6-1.4V24.8z"/>
		<path fill="#ffffff" d="M532.9,33.4l3.1,0.8v0.6h-10v-0.6l3-0.8V21.6c0-3.6-1.3-5.3-4.4-5.3c-2,0-3.4,0.4-5.3,1.5v15.6l2.9,0.8v0.6
			h-10v-0.6l3.1-0.8V17.1l-3.1-2v-0.4l6.6-1.7l0.2,0.1l-0.1,3.8L519,17c2.8-2.6,5.5-3.9,8-3.9c4.2,0,5.8,3.2,5.8,6.5V33.4z"/>
		<path fill="#ffffff" d="M561,33.4v0.5l-6.3,1.7l-0.2-0.1l-0.4-3.1l-0.2-0.1l-1.2,1c-1.4,1.3-3.1,2.2-5.5,2.2c-4.3,0-8.6-3.7-8.6-10.6
			c0-6.1,3.9-11.9,11.8-11.9c1.5,0,2.4,0.1,3.6,0.3v-9l-3.4-2V1.8l7.2-1.8l0.2,0.1v32.1L561,33.4z M549.5,32.9
			c1.8,0,3.3-0.6,4.4-1.8V17c-1.2-1.7-2.8-2.9-5-2.9c-3,0-6.2,3-6.2,10C542.7,29.3,545.5,32.9,549.5,32.9z"/>
		<path fill="#ffffff" d="M139.7,63.6l-2.9-3.6c-2.3-2.8-3.1-3.6-5.5-3.6h-3.1v26.7l5,0.8v0.8h-14.7V84l5-0.8V56.4h-3.5
			c-2.4,0-3.2,0.8-5.5,3.6l-2.9,3.6l-0.5-0.3l1.6-8.5h25.7l1.7,8.5L139.7,63.6z"/>
		<path fill="#ffffff" d="M155.7,68.3c-1.3,0-2.3-1-2.5-2.5c-1.7,0.1-3.5,1.5-4.2,3.1v14.5l3.2,0.8v0.6h-10.3v-0.6l3.1-0.8V67.1l-3.1-2
			v-0.4l6.6-1.7l0.2,0.1l-0.1,4.6l0.2,0.1c1.5-2.9,4-4.8,6.2-4.8c2.1,0,3.1,1.3,3.1,2.7C158.1,67.2,157.1,68.3,155.7,68.3z"/>
		<path fill="#ffffff" d="M176.6,82.1c0,1.4,1.1,1.8,3.9,1.5l0.1,0.5c-0.9,0.6-3.2,1.4-4.9,1.4c-1.8,0-2.7-1-2.9-3.5l-0.2-0.1
			c-2.2,2.2-4.6,3.6-7.1,3.6c-3.1,0-5-1.8-5-4.7c0-4.2,5-6.5,12.1-7.5v-3.5c0-3.1-2-4.8-4.8-4.8c-1,0-2.3,0.2-3.5,0.7
			c1,0.8,1.5,1.8,1.5,2.7c0,1.2-0.9,2.3-2.2,2.3c-1.4,0-2.3-1.1-2.3-2.3c0-3,4.9-5.5,9.4-5.5c4.1,0,5.9,2.2,5.9,6.4V82.1z
			 M172.7,74.8c-6,0-8,2.2-8,4.7c0,2,1.3,3.2,3.4,3.2c1.3,0,2.9-0.5,4.6-1.4V74.8z"/>
		<path fill="#ffffff" d="M202.7,83.4l3.1,0.8v0.6h-10v-0.6l3-0.8V71.6c0-3.6-1.3-5.3-4.4-5.3c-2,0-3.4,0.4-5.3,1.5v15.6l2.9,0.8v0.6
			h-10v-0.6l3.1-0.8V67.1l-3.1-2v-0.4l6.6-1.7l0.2,0.1l-0.1,3.8l0.2,0.1c2.8-2.6,5.5-3.9,8-3.9c4.2,0,5.8,3.2,5.8,6.5V83.4z"/>
		<path fill="#ffffff" d="M215,85.5c-2.3,0-4.3-0.3-6.4-1.3v-5.9l1-0.1c1.6,4.3,3.7,6.1,6.3,6.1c2.5,0,4.1-1.5,4.1-3.9
			c0-2.5-2.5-3.5-5.1-4.6c-2.9-1.2-5.9-2.6-5.9-6.2c0-3.7,2.9-6.6,7.4-6.6c1.8,0,4.3,0.4,5.5,0.9l0.1,5.3l-0.8,0.2
			c-1.8-3.8-3.6-5.3-5.7-5.3c-2.1,0-3.5,1.2-3.5,3.2c0,2.5,2.5,3.5,5.2,4.7c2.9,1.2,6,2.6,6,6.4C223.2,82.8,219.6,85.5,215,85.5z"/>
		<path fill="#ffffff" d="M236.6,84.2v0.6h-10.4v-0.6l3.3-0.8v-29l-3.4-2v-0.5l7.2-1.8l0.2,0.1v33.3L236.6,84.2z"/>
		<path fill="#ffffff" d="M255.8,82.1c0,1.4,1.1,1.8,3.9,1.5l0.1,0.5c-0.9,0.6-3.2,1.4-4.9,1.4c-1.8,0-2.7-1-2.9-3.5l-0.2-0.1
			c-2.2,2.2-4.6,3.6-7.1,3.6c-3.1,0-5-1.8-5-4.7c0-4.2,5-6.5,12.1-7.5v-3.5c0-3.1-2-4.8-4.8-4.8c-1,0-2.3,0.2-3.5,0.7
			c1,0.8,1.5,1.8,1.5,2.7c0,1.2-0.9,2.3-2.2,2.3c-1.4,0-2.3-1.1-2.3-2.3c0-3,4.9-5.5,9.4-5.5c4.1,0,5.9,2.2,5.9,6.4V82.1z
			 M251.8,74.8c-6,0-8,2.2-8,4.7c0,2,1.3,3.2,3.4,3.2c1.3,0,2.9-0.5,4.6-1.4V74.8z"/>
		<path fill="#ffffff" d="M268.3,85.2c-3.6,0-4.6-1.6-4.6-4.9V65.9h-3.3v-0.6l3.7-2.4l2.8-4.3h0.8v5.3h7.1v2h-7.1v12.8
			c0,1.7,0.1,2.8,1.1,3.4c0.7,0.4,1.8,0.6,3.5,0.6c0.8,0,1.6,0,2.6-0.1l0,0.5C272.9,84.3,270.5,85.2,268.3,85.2z"/>
		<path fill="#ffffff" d="M276.9,65.1v-0.4l6.9-1.7l0.2,0.1v20.3l3.1,0.8v0.6h-10.4v-0.6l3.3-0.8V67.1L276.9,65.1z M282.2,53.3
			c1.5,0,2.5,1.1,2.5,2.5c0,1.5-1.2,2.9-2.8,2.9c-1.5,0-2.5-1.1-2.5-2.6C279.4,54.7,280.6,53.3,282.2,53.3z"/>
		<path fill="#ffffff" d="M300.2,85.6c-6.6,0-10.2-4.8-10.2-11.3c0-6,4-11.3,10.9-11.3c6.7,0,10.2,4.7,10.2,11.1
			C311.1,80.2,307.1,85.6,300.2,85.6z M300.3,64.1c-3.2,0-5.8,3.3-5.8,10.4c0,6.9,2.9,10.1,6.2,10.1c3.5,0,5.8-3.3,5.8-10.4
			C306.5,67.3,303.9,64.1,300.3,64.1z"/>
		<path fill="#ffffff" d="M335,83.4l3.1,0.8v0.6h-10v-0.6l3-0.8V71.6c0-3.6-1.3-5.3-4.4-5.3c-2,0-3.4,0.4-5.3,1.5v15.6l2.9,0.8v0.6h-10
			v-0.6l3.1-0.8V67.1l-3.1-2v-0.4l6.6-1.7l0.2,0.1l-0.1,3.8l0.2,0.1c2.8-2.6,5.5-3.9,8-3.9c4.2,0,5.8,3.2,5.8,6.5V83.4z"/>
		<path fill="#ffffff" d="M357.2,82.1c0,1.4,1.1,1.8,3.9,1.5l0.1,0.5c-0.9,0.6-3.2,1.4-4.9,1.4c-1.8,0-2.7-1-2.9-3.5l-0.2-0.1
			c-2.2,2.2-4.6,3.6-7.1,3.6c-3.1,0-5-1.8-5-4.7c0-4.2,5-6.5,12.1-7.5v-3.5c0-3.1-2-4.8-4.8-4.8c-1,0-2.3,0.2-3.5,0.7
			c1,0.8,1.5,1.8,1.5,2.7c0,1.2-0.9,2.3-2.2,2.3c-1.4,0-2.3-1.1-2.3-2.3c0-3,4.9-5.5,9.4-5.5c4.1,0,5.9,2.2,5.9,6.4V82.1z
			 M353.2,74.8c-6,0-8,2.2-8,4.7c0,2,1.3,3.2,3.4,3.2c1.3,0,2.9-0.5,4.6-1.4V74.8z"/>
		<path fill="#ffffff" d="M372.6,84.2v0.6h-10.4v-0.6l3.3-0.8v-29l-3.4-2v-0.5l7.2-1.8l0.2,0.1v33.3L372.6,84.2z"/>
		<path fill="#ffffff" d="M396.8,85.5c-2.4,0-5.1-0.6-6.9-1.5l-1.9,1.6h-0.7l-0.6-10.3l0.8-0.1c3.1,7,6.2,8.9,9.5,8.9
			c3.4,0,5.8-2.3,5.8-5.8c0-2.9-1.1-4.3-5.7-6.3c-1.6-0.6-3.1-1.2-4.6-1.9c-3.3-1.6-4.8-3.9-4.8-7.4c0-6,4.9-8.6,9.3-8.6
			c2,0,3.5,0.6,5,1.5l1.9-1.6h0.7l0.8,9l-0.8,0.1c-2.7-5.4-5.3-7.6-8.5-7.6c-2.6,0-4.6,1.9-4.6,5.1c0,2.3,1,4,4.4,5.5
			c1.6,0.8,3.5,1.4,5.2,2.3c3.8,1.8,5.5,4,5.5,7.5C406.7,82.3,401.1,85.5,396.8,85.5z"/>
		<path fill="#ffffff" d="M425.7,70.1c-1.7,0-2.7-1.4-2.7-2.8c0-1,0.4-2.1,1-2.8c-0.7-0.1-1.2-0.2-2-0.2c-3.9,0-7.7,2.8-7.7,9.5
			c0,5,2.7,8.9,7.5,8.9c2.3,0,4.4-0.7,6.6-1.7l0.2,0.6c-2.2,2.4-5.2,4-8.2,4c-6.1,0-10.3-4.4-10.3-10.9c0-6.5,4.8-11.7,11.6-11.7
			c3.9,0,6.5,1.9,6.5,4.2C428.3,68.8,427.2,70.1,425.7,70.1z"/>
		<path fill="#ffffff" d="M431.8,65.1v-0.4l6.9-1.7l0.2,0.1v20.3l3.1,0.8v0.6h-10.4v-0.6l3.3-0.8V67.1L431.8,65.1z M437,53.3
			c1.5,0,2.5,1.1,2.5,2.5c0,1.5-1.2,2.9-2.8,2.9c-1.5,0-2.5-1.1-2.5-2.6C434.2,54.7,435.4,53.3,437,53.3z"/>
		<path fill="#ffffff" d="M449.1,72.1c0,6.3,2.1,10.5,7.4,10.5c2.3,0,4.2-0.5,6.9-1.9l0.3,0.6c-2.9,2.8-5.5,4.2-8.6,4.2
			c-6,0-10.3-4.4-10.3-11c0-6.6,4.6-11.6,10.4-11.6s8.7,3.9,8.7,9.1H449.1z M459.4,70.8c-0.3-4-1.6-6.8-4.6-6.8
			c-3,0-5.5,2.8-5.7,7.1L459.4,70.8z"/>
		<path fill="#ffffff" d="M488,83.4l3.1,0.8v0.6h-10v-0.6l3-0.8V71.6c0-3.6-1.3-5.3-4.4-5.3c-2,0-3.4,0.4-5.3,1.5v15.6l2.9,0.8v0.6h-10
			v-0.6l3.1-0.8V67.1l-3.1-2v-0.4l6.6-1.7l0.2,0.1l-0.1,3.8l0.2,0.1c2.8-2.6,5.5-3.9,8-3.9c4.2,0,5.8,3.2,5.8,6.5V83.4z"/>
		<path fill="#ffffff" d="M509,70.1c-1.7,0-2.7-1.4-2.7-2.8c0-1,0.4-2.1,1-2.8c-0.7-0.1-1.2-0.2-2-0.2c-3.9,0-7.7,2.8-7.7,9.5
			c0,5,2.7,8.9,7.5,8.9c2.3,0,4.4-0.7,6.6-1.7l0.2,0.6c-2.2,2.4-5.2,4-8.2,4c-6.1,0-10.3-4.4-10.3-10.9c0-6.5,4.8-11.7,11.6-11.7
			c3.9,0,6.5,1.9,6.5,4.2C511.6,68.8,510.5,70.1,509,70.1z"/>
		<path fill="#ffffff" d="M519.1,72.1c0,6.3,2.1,10.5,7.4,10.5c2.3,0,4.2-0.5,6.9-1.9l0.3,0.6c-2.9,2.8-5.5,4.2-8.6,4.2
			c-6,0-10.3-4.4-10.3-11c0-6.6,4.6-11.6,10.4-11.6s8.7,3.9,8.7,9.1H519.1z M529.5,70.8c-0.3-4-1.6-6.8-4.6-6.8
			c-3,0-5.5,2.8-5.7,7.1L529.5,70.8z"/>
	</g>
	<g>
		<polygon fill="#ffffff" points="28.6,44.7 23.2,44.7 23.2,16.1 28.6,16.1 28.6,8.9 3.6,8.9 3.6,16.1 8.9,16.1 8.9,44.7 16.1,51.8 
			28.6,51.8 		"/>
		<polygon fill="#ffffff" points="46.5,51.8 59,51.8 66.2,44.7 66.2,16.1 71.5,16.1 71.5,8.9 46.5,8.9 46.5,16.1 51.9,16.1 51.9,44.7 
			46.5,44.7 		"/>
		<polygon fill="#ffffff" points="72,58.6 87.6,42.9 94.8,42.9 94.8,35.8 68,35.8 68,42.9 70.6,42.9 59.9,53.6 44.7,53.6 44.7,42.9 
			50.1,42.9 50.1,35.8 25,35.8 25,42.9 30.4,42.9 30.4,75.1 25,75.1 25,82.2 50.1,82.2 50.1,75.1 44.7,75.1 44.7,64.4 59.9,64.4 
			70.6,75.1 68,75.1 68,82.2 94.8,82.2 94.8,75.1 88.5,75.1 		"/>
		<path fill="#ffffff" d="M96.6,84H66.2V73.3h0L59,66.2H46.5v7.2h5.4V84H23.2V73.3h5.4V53.6H15.2l-8-8V17.9h0H1.8V7.1h28.6v10.7H25V34
			h25V17.9h-5.4V7.1h28.6v10.7H68V34h28.6v10.7h-8L74.7,58.6l14.8,14.8h7.2V84z M90.3,71.5l-13-13l12.1-12.1h8.9l0-14.3l-28.6,0
			V19.7h5.4V5.4H42.9h0v14.3h0h5.4v12.5H26.8V19.7h5.4h0V5.4h0H0v14.3h5.4v26.8h0l0,0l8.9,8.9h12.5v16.1h-5.4v14.3h32.2V71.5h-5.4
			v-3.6h9.8l6.3,6.3v11.6h34l0-14.3h0H90.3z"/>
	</g>
</g>
</svg>
