<?xml version="1.0" encoding="utf-8"?>
<!-- Generator: Adobe Illustrator 21.1.0, SVG Export Plug-In . SVG Version: 6.00 Build 0)  -->
<svg version="1.1" id="Layer_1" xmlns="http://www.w3.org/2000/svg" xmlns:xlink="http://www.w3.org/1999/xlink" x="0px" y="0px"
	 viewBox="0 0 435.8 81.5" style="enable-background:new 0 0 435.8 81.5;" xml:space="preserve">
<style type="text/css">
	.st0{fill:#FFFFFF;}
</style>
<g>
	<g>
		<path class="st0" d="M122.4,31.5c-2.4,0-5.1-0.6-6.9-1.5l-1.9,1.6h-0.7l-0.6-10.3l0.8-0.1c3.1,7,6.2,8.9,9.5,8.9
			c3.4,0,5.8-2.3,5.8-5.8c0-2.9-1.1-4.3-5.7-6.3c-1.6-0.6-3.1-1.2-4.6-1.9c-3.3-1.6-4.8-3.9-4.8-7.4c0-6,4.9-8.6,9.3-8.6
			c2,0,3.5,0.6,5,1.5l1.9-1.6h0.7l0.8,9l-0.8,0.1c-2.7-5.4-5.3-7.6-8.5-7.6c-2.6,0-4.6,1.9-4.6,5.1c0,2.3,1,4,4.4,5.5
			c1.6,0.8,3.5,1.4,5.2,2.3c3.8,1.8,5.5,4,5.5,7.5C132.3,28.3,126.7,31.5,122.4,31.5z"/>
		<path class="st0" d="M158.8,29.4v0.5l-6.6,1.6l-0.2-0.1l0.1-3.7l-0.2-0.1c-2.8,2.6-5.5,3.9-8,3.9c-4.2,0-5.8-3.2-5.8-6.5V12.7
			l-3.1-1.6v-0.4l6.9-1.7l0.2,0.1V23c0,3.6,1.3,5.3,4.4,5.3c2,0,3.4-0.4,5.3-1.5V12.7l-3.1-1.6v-0.4l6.9-1.7l0.2,0.1v19.1
			L158.8,29.4z"/>
		<path class="st0" d="M175,14.2c-1.3,0-2.3-1-2.5-2.5c-1.7,0.1-3.5,1.5-4.2,3.1v14.5l3.2,0.8v0.6h-10.3v-0.6l3.1-0.8V13l-3.1-2
			v-0.4l6.6-1.7l0.2,0.1l-0.1,4.6l0.2,0.1c1.5-2.9,4-4.8,6.2-4.8c2.1,0,3.1,1.3,3.1,2.7C177.3,13.2,176.4,14.2,175,14.2z"/>
		<path class="st0" d="M191.3,25.9h0.2l2.4-6.2l2.9-8.1l-3-1.4V9.7h8.3v0.6l-3.4,1.5l-8,19.5h-1.1l-8.4-20l-2.9-1V9.7H189v0.6
			l-3.3,1L191.3,25.9z"/>
		<path class="st0" d="M207,18.1c0,6.3,2.1,10.5,7.4,10.5c2.3,0,4.2-0.5,6.9-1.9l0.3,0.6c-2.9,2.8-5.5,4.2-8.6,4.2
			c-6,0-10.3-4.4-10.3-11c0-6.6,4.6-11.6,10.4-11.6s8.7,3.9,8.7,9.1H207z M217.3,16.8c-0.3-4-1.6-6.8-4.6-6.8c-3,0-5.5,2.8-5.7,7.1
			L217.3,16.8z"/>
		<path class="st0" d="M234.6,34.9c-1.6,3.9-3.5,5.7-6.2,5.7c-2.2,0-3.1-1.4-3.1-2.6c0-1.3,1.1-2.3,2.4-2.3c1.5,0,2.3,0.9,3.3,2.2
			c0.9-0.8,1.7-2.1,2.4-3.7l1.4-3.1l-8.2-19.9l-2.9-1V9.7h10.7v0.6l-3.3,1l5.5,14.6h0.2l5.1-14.2l-3-1.4V9.7h8v0.6l-3.2,1.5
			L234.6,34.9z"/>
		<path class="st0" d="M128.2,66v0.2c2.5,0.8,4.3,3,5.3,5.1c1.6,3,2.8,5.6,4.1,6.8c1.5,1.2,2.3,1.6,4.2,1.9v0.8h-5.5
			c-3.7,0-4.3-1.4-6-5l-2.6-5.4c-1.6-3.1-2.9-3.6-5-3.6H121v12.4l4.7,0.8v0.8h-14V80l4.7-0.8V52.5l-4.7-0.8v-0.8h13.6
			c7.1,0,11.3,3.1,11.3,7.7C136.6,62.1,133.5,64.9,128.2,66z M124.3,52.1c-1.3,0-2.3,0.1-3.2,0.3v13.1h3.2c3.8,0,7.1-2.3,7.1-6.7
			C131.4,54.3,128.1,52.1,124.3,52.1z"/>
		<path class="st0" d="M145.9,68.1c0,6.3,2.1,10.5,7.4,10.5c2.3,0,4.2-0.5,6.9-1.9l0.3,0.6c-2.9,2.8-5.5,4.2-8.6,4.2
			c-6,0-10.3-4.4-10.3-11c0-6.6,4.6-11.6,10.4-11.6s8.7,3.9,8.7,9.1H145.9z M156.2,66.8c-0.3-4-1.6-6.8-4.6-6.8
			c-3,0-5.5,2.8-5.7,7.1L156.2,66.8z"/>
		<path class="st0" d="M171,81.5c-2.3,0-4.3-0.3-6.4-1.3v-5.9l1-0.1c1.6,4.3,3.7,6.1,6.3,6.1c2.5,0,4.1-1.5,4.1-3.9
			c0-2.5-2.5-3.5-5.1-4.6c-2.9-1.2-5.9-2.6-5.9-6.2c0-3.7,2.9-6.6,7.4-6.6c1.8,0,4.3,0.4,5.5,0.9l0.1,5.3l-0.8,0.2
			c-1.8-3.8-3.6-5.3-5.7-5.3c-2.1,0-3.5,1.2-3.5,3.2c0,2.5,2.5,3.5,5.2,4.7c2.9,1.2,6,2.6,6,6.4C179.1,78.7,175.6,81.5,171,81.5z"/>
		<path class="st0" d="M186.8,68.1c0,6.3,2.1,10.5,7.4,10.5c2.3,0,4.2-0.5,6.9-1.9l0.3,0.6c-2.9,2.8-5.5,4.2-8.6,4.2
			c-6,0-10.3-4.4-10.3-11c0-6.6,4.6-11.6,10.4-11.6s8.7,3.9,8.7,9.1H186.8z M197.1,66.8c-0.3-4-1.6-6.8-4.6-6.8
			c-3,0-5.5,2.8-5.7,7.1L197.1,66.8z"/>
		<path class="st0" d="M221.6,78.1c0,1.4,1.1,1.8,3.9,1.5l0.1,0.5c-0.9,0.6-3.2,1.4-4.9,1.4c-1.8,0-2.7-1-2.9-3.5l-0.2-0.1
			c-2.2,2.2-4.6,3.6-7.1,3.6c-3.1,0-5-1.8-5-4.7c0-4.2,5-6.5,12.1-7.5v-3.5c0-3.1-2-4.8-4.8-4.8c-1,0-2.3,0.2-3.5,0.7
			c1,0.8,1.5,1.8,1.5,2.7c0,1.2-0.9,2.3-2.2,2.3c-1.4,0-2.3-1.1-2.3-2.3c0-3,4.9-5.5,9.4-5.5c4.1,0,5.9,2.2,5.9,6.4V78.1z
			 M217.6,70.8c-6,0-8,2.2-8,4.7c0,2,1.3,3.2,3.4,3.2c1.3,0,2.9-0.5,4.6-1.4V70.8z"/>
		<path class="st0" d="M240.8,64.2c-1.3,0-2.3-1-2.5-2.5c-1.7,0.1-3.5,1.5-4.2,3.1v14.5l3.2,0.8v0.6h-10.3v-0.6l3.1-0.8V63l-3.1-2
			v-0.4l6.6-1.7l0.2,0.1l-0.1,4.6l0.2,0.1c1.5-2.9,4-4.8,6.2-4.8c2.1,0,3.1,1.3,3.1,2.7C243.1,63.2,242.2,64.2,240.8,64.2z"/>
		<path class="st0" d="M260.5,66c-1.7,0-2.7-1.4-2.7-2.8c0-1,0.4-2.1,1-2.8c-0.7-0.1-1.2-0.2-2-0.2c-3.9,0-7.7,2.8-7.7,9.5
			c0,5,2.7,8.9,7.5,8.9c2.3,0,4.4-0.7,6.6-1.7l0.2,0.6c-2.2,2.4-5.2,4-8.2,4c-6.1,0-10.3-4.4-10.3-10.9c0-6.5,4.8-11.7,11.6-11.7
			c3.9,0,6.5,1.9,6.5,4.2C263.1,64.8,262,66,260.5,66z"/>
		<path class="st0" d="M278.7,62.3c-2,0-3.5,0.4-5.4,1.5v15.6l2.9,0.8v0.6h-10v-0.6l3.1-0.8v-29l-3.4-2v-0.5l7.2-1.8l0.2,0.1v16.6
			l0.2,0.1c2.8-2.6,5.4-3.8,7.9-3.8c4.2,0,6.1,3.2,6.1,6.5v13.8l3.1,0.8v0.6h-10v-0.6l3-0.8V67.5C283.6,64,281.8,62.3,278.7,62.3z"
			/>
		<path class="st0" d="M328,79c-3,1.6-5.5,2.5-9.7,2.5c-9.4,0-16-6.1-16-15.4c0-8.7,6.8-16,16.1-16c2.4,0,5.1,0.5,6.9,1.5l2-1.6h0.5
			l0.4,10.1l-0.8,0.1c-3.1-6.3-6.3-8.6-11-8.6c-4.1,0-8.7,4-8.7,13.8c0,9.6,5.4,14.6,11.8,14.6c1.4,0,2.6-0.2,3.7-0.7l5.3-6.6
			l0.4,0.2L328,79z"/>
		<path class="st0" d="M337.1,68.1c0,6.3,2.1,10.5,7.4,10.5c2.3,0,4.2-0.5,6.9-1.9l0.3,0.6c-2.9,2.8-5.5,4.2-8.6,4.2
			c-6,0-10.3-4.4-10.3-11c0-6.6,4.6-11.6,10.4-11.6s8.7,3.9,8.7,9.1H337.1z M347.4,66.8c-0.3-4-1.6-6.8-4.6-6.8
			c-3,0-5.5,2.8-5.7,7.1L347.4,66.8z"/>
		<path class="st0" d="M376,79.3l3.1,0.8v0.6h-10v-0.6l3-0.8V67.5c0-3.6-1.3-5.3-4.4-5.3c-2,0-3.4,0.4-5.3,1.5v15.6l2.9,0.8v0.6h-10
			v-0.6l3.1-0.8V63l-3.1-2v-0.4l6.6-1.7l0.2,0.1l-0.1,3.8l0.2,0.1c2.8-2.6,5.5-3.9,8-3.9c4.2,0,5.8,3.2,5.8,6.5V79.3z"/>
		<path class="st0" d="M388.7,81.2c-3.6,0-4.6-1.6-4.6-4.9V61.8h-3.3v-0.6l3.7-2.4l2.8-4.3h0.8v5.3h7.1v2H388v12.8
			c0,1.7,0.1,2.8,1.1,3.4c0.7,0.4,1.8,0.6,3.5,0.6c0.8,0,1.6,0,2.6-0.1l0,0.5C393.2,80.3,390.9,81.2,388.7,81.2z"/>
		<path class="st0" d="M401.3,68.1c0,6.3,2.1,10.5,7.4,10.5c2.3,0,4.2-0.5,6.9-1.9l0.3,0.6c-2.9,2.8-5.5,4.2-8.6,4.2
			c-6,0-10.3-4.4-10.3-11c0-6.6,4.6-11.6,10.4-11.6s8.7,3.9,8.7,9.1H401.3z M411.7,66.8c-0.3-4-1.6-6.8-4.6-6.8
			c-3,0-5.5,2.8-5.7,7.1L411.7,66.8z"/>
		<path class="st0" d="M433.4,64.2c-1.3,0-2.3-1-2.5-2.5c-1.7,0.1-3.5,1.5-4.2,3.1v14.5l3.2,0.8v0.6h-10.3v-0.6l3.1-0.8V63l-3.1-2
			v-0.4l6.6-1.7l0.2,0.1l-0.1,4.6l0.2,0.1c1.5-2.9,4-4.8,6.2-4.8c2.1,0,3.1,1.3,3.1,2.7C435.8,63.2,434.8,64.2,433.4,64.2z"/>
	</g>
	<g>
		<polygon class="st0" points="28.6,40.2 23.2,40.2 23.2,11.5 28.6,11.5 28.6,4.4 3.6,4.4 3.6,11.5 8.9,11.5 8.9,40.2 16.1,47.3 
			28.6,47.3 		"/>
		<polygon class="st0" points="46.5,47.3 59,47.3 66.2,40.2 66.2,11.5 71.5,11.5 71.5,4.4 46.5,4.4 46.5,11.5 51.9,11.5 51.9,40.2 
			46.5,40.2 		"/>
		<polygon class="st0" points="72,54 87.6,38.4 94.8,38.4 94.8,31.2 68,31.2 68,38.4 70.6,38.4 59.9,49.1 44.7,49.1 44.7,38.4 
			50.1,38.4 50.1,31.2 25,31.2 25,38.4 30.4,38.4 30.4,70.6 25,70.6 25,77.7 50.1,77.7 50.1,70.6 44.7,70.6 44.7,59.8 59.9,59.8 
			70.6,70.6 68,70.6 68,77.7 94.8,77.7 94.8,70.6 88.5,70.6 		"/>
		<path class="st0" d="M96.6,79.5H66.2V68.8h0L59,61.6H46.5v7.2h5.4v10.7H23.2V68.8h5.4V49.1H15.2l-8-8V13.3h0H1.8V2.6h28.6v10.7H25
			v16.1h25V13.3h-5.4V2.6h28.6v10.7H68v16.1h28.6v10.7h-8L74.7,54l14.8,14.8h7.2V79.5z M90.3,67l-13-13l12.1-12.1h8.9l0-14.3
			l-28.6,0V15.1h5.4V0.8H42.9h0v14.3h0h5.4v12.5H26.8V15.1h5.4h0V0.8h0H0v14.3h5.4v26.8h0l0,0l8.9,8.9h12.5V67h-5.4v14.3h32.2V67
			h-5.4v-3.6h9.8l6.3,6.3v11.6h34l0-14.3h0H90.3z"/>
	</g>
</g>
</svg>
