<?xml version="1.0" encoding="utf-8"?>
<!-- Generator: Adobe Illustrator 21.1.0, SVG Export Plug-In . SVG Version: 6.00 Build 0)  -->
<svg version="1.1" id="Layer_1" xmlns="http://www.w3.org/2000/svg" xmlns:xlink="http://www.w3.org/1999/xlink" x="0px" y="0px"
	 viewBox="0 0 586 94.6" style="enable-background:new 0 0 586 94.6;" xml:space="preserve">
<style type="text/css">
	.st0{fill:#FFFFFF;}
</style>
<g>
	<g>
		<path class="st0" d="M137.6,33c-3,1.6-5.5,2.5-9.7,2.5c-9.4,0-16-6.1-16-15.4c0-8.7,6.8-16,16.1-16c2.4,0,5.1,0.5,6.9,1.5l2-1.6
			h0.5l0.4,10.1l-0.8,0.1c-3.1-6.3-6.3-8.6-11-8.6c-4.1,0-8.7,4-8.7,13.8c0,9.6,5.4,14.6,11.8,14.6c1.4,0,2.6-0.2,3.7-0.7l5.3-6.6
			l0.4,0.2L137.6,33z"/>
		<path class="st0" d="M146.7,22.1c0,6.3,2.1,10.5,7.4,10.5c2.3,0,4.2-0.5,6.9-1.9l0.3,0.6c-2.9,2.8-5.5,4.2-8.6,4.2
			c-6,0-10.3-4.4-10.3-11c0-6.6,4.6-11.6,10.4-11.6s8.7,3.9,8.7,9.1H146.7z M157,20.8c-0.3-4-1.6-6.8-4.6-6.8c-3,0-5.5,2.8-5.7,7.1
			L157,20.8z"/>
		<path class="st0" d="M185.6,33.3l3.1,0.8v0.6h-10v-0.6l3-0.8V21.5c0-3.6-1.3-5.3-4.4-5.3c-2,0-3.4,0.4-5.3,1.5v15.6l2.9,0.8v0.6
			h-10v-0.6l3.1-0.8V17l-3.1-2v-0.4l6.6-1.7l0.2,0.1l-0.1,3.8l0.2,0.1c2.8-2.6,5.5-3.9,8-3.9c4.2,0,5.8,3.2,5.8,6.5V33.3z"/>
		<path class="st0" d="M198.3,35.2c-3.6,0-4.6-1.6-4.6-4.9V15.8h-3.3v-0.6l3.7-2.4l2.8-4.3h0.8v5.3h7.1v2h-7.1v12.8
			c0,1.7,0.1,2.8,1.1,3.4c0.7,0.4,1.8,0.6,3.5,0.6c0.8,0,1.6,0,2.6-0.1l0,0.5C202.9,34.3,200.5,35.2,198.3,35.2z"/>
		<path class="st0" d="M211,22.1c0,6.3,2.1,10.5,7.4,10.5c2.3,0,4.2-0.5,6.9-1.9l0.3,0.6c-2.9,2.8-5.5,4.2-8.6,4.2
			c-6,0-10.3-4.4-10.3-11c0-6.6,4.6-11.6,10.4-11.6s8.7,3.9,8.7,9.1H211z M221.3,20.8c-0.3-4-1.6-6.8-4.6-6.8c-3,0-5.5,2.8-5.7,7.1
			L221.3,20.8z"/>
		<path class="st0" d="M243,18.2c-1.3,0-2.3-1-2.5-2.5c-1.7,0.1-3.5,1.5-4.2,3.1v14.5l3.2,0.8v0.6h-10.3v-0.6l3.1-0.8V17l-3.1-2
			v-0.4l6.6-1.7l0.2,0.1l-0.1,4.6l0.2,0.1c1.5-2.9,4-4.8,6.2-4.8c2.1,0,3.1,1.3,3.1,2.7C245.4,17.2,244.4,18.2,243,18.2z"/>
		<path class="st0" d="M266.3,15.9v17.4l3.8,0.8v0.6h-10.9v-0.6l3.1-0.8V15.9h-4.2v-0.8l4.2-1.2v-2.3c0-4.6,1.3-7.3,3.7-9.4
			c1.7-1.5,3.8-2.3,5.9-2.3c2.5,0,3.8,1.2,3.8,2.6S274.8,5,273.4,5c-1.5,0-2.8-0.9-4.2-3.4c-2,1.2-2.9,3.6-2.9,8.2V14h5.8v1.9H266.3
			z"/>
		<path class="st0" d="M283.9,35.5c-6.6,0-10.2-4.8-10.2-11.3c0-6,4-11.3,10.9-11.3c6.7,0,10.2,4.7,10.2,11.1
			C294.7,30.1,290.8,35.5,283.9,35.5z M284,14c-3.2,0-5.8,3.3-5.8,10.4c0,6.9,2.9,10.1,6.2,10.1c3.5,0,5.8-3.3,5.8-10.4
			C290.1,17.2,287.5,14,284,14z"/>
		<path class="st0" d="M311.8,18.2c-1.3,0-2.3-1-2.5-2.5c-1.7,0.1-3.5,1.5-4.2,3.1v14.5l3.2,0.8v0.6H298v-0.6l3.1-0.8V17l-3.1-2
			v-0.4l6.6-1.7l0.2,0.1l-0.1,4.6l0.2,0.1c1.5-2.9,4-4.8,6.2-4.8c2.1,0,3.1,1.3,3.1,2.7C314.2,17.2,313.2,18.2,311.8,18.2z"/>
		<path class="st0" d="M137.6,83c-3,1.6-5.5,2.5-9.7,2.5c-9.4,0-16-6.1-16-15.4c0-8.7,6.8-16,16.1-16c2.4,0,5.1,0.5,6.9,1.5l2-1.6
			h0.5l0.4,10.1l-0.8,0.1c-3.1-6.3-6.3-8.6-11-8.6c-4.1,0-8.7,4-8.7,13.8c0,9.6,5.4,14.6,11.8,14.6c1.4,0,2.6-0.2,3.7-0.7l5.3-6.6
			l0.4,0.2L137.6,83z"/>
		<path class="st0" d="M152.7,85.5c-6.6,0-10.2-4.8-10.2-11.3c0-6,4-11.3,10.9-11.3c6.7,0,10.2,4.7,10.2,11.1
			C163.5,80.1,159.6,85.5,152.7,85.5z M152.8,64c-3.2,0-5.8,3.3-5.8,10.4c0,6.9,2.9,10.1,6.2,10.1c3.5,0,5.8-3.3,5.8-10.4
			C159,67.2,156.3,64,152.8,64z"/>
		<path class="st0" d="M192.1,66.3c-2,0-3.1,0.7-5,1.7v15.3l3.1,0.8v0.6h-10v-0.6l2.9-0.8V71.2c0-3.6-1.2-5-4.3-5
			c-2,0-3,0.4-4.9,1.5v15.6l2.9,0.8v0.6h-10v-0.6l3.1-0.8V67l-3.1-2v-0.4l6.6-1.7l0.2,0.1l-0.1,3.8l0.2,0.1c2.8-2.6,5.1-3.9,7.7-3.9
			c3.1,0,4.7,2,5.3,4.1l0.2,0.1c2.8-2.6,5.3-4.3,7.8-4.3c4.2,0,5.7,3.2,5.7,6.6v13.8l3.1,0.8v0.6h-10.1v-0.6l3-0.8V71.5
			C196.4,68,195.2,66.3,192.1,66.3z"/>
		<path class="st0" d="M216.9,85.5c-1.5,0-2.8-0.2-4.1-0.5v7.9l3.6,1.1v0.6h-10.7V94l3.1-1.1V67l-3.1-2v-0.4l6.6-1.7l0.2,0.1
			l-0.1,3.8l0.2,0.1c2.3-2.5,4.6-3.9,7.4-3.9c4.7,0,8.4,4.1,8.4,10.7C228.3,79.7,224,85.5,216.9,85.5z M217.3,65.9
			c-1.6,0-3.4,0.8-4.6,1.6v14.5c1.6,1.5,3.3,2.3,5.4,2.3c3,0,6.1-3,6.1-9.7C224.2,69.4,221.7,65.9,217.3,65.9z"/>
		<path class="st0" d="M255,83.4v0.5l-6.6,1.6l-0.2-0.1l0.1-3.7l-0.2-0.1c-2.8,2.6-5.5,3.9-8,3.9c-4.2,0-5.8-3.2-5.8-6.5V66.7
			l-3.1-1.6v-0.4l6.9-1.7l0.2,0.1V77c0,3.6,1.3,5.3,4.4,5.3c2,0,3.4-0.4,5.3-1.5V66.7l-3.1-1.6v-0.4l6.9-1.7l0.2,0.1v19.1L255,83.4z
			"/>
		<path class="st0" d="M264.5,85.2c-3.6,0-4.6-1.6-4.6-4.9V65.8h-3.3v-0.6l3.7-2.4l2.8-4.3h0.8v5.3h7.1v2h-7.1v12.8
			c0,1.7,0.1,2.8,1.1,3.4c0.7,0.4,1.8,0.6,3.5,0.6c0.8,0,1.6,0,2.6-0.1l0,0.5C269,84.3,266.7,85.2,264.5,85.2z"/>
		<path class="st0" d="M289.5,82.1c0,1.4,1.1,1.8,3.9,1.5l0.1,0.5c-0.9,0.6-3.2,1.4-4.9,1.4c-1.8,0-2.7-1-2.9-3.5l-0.2-0.1
			c-2.2,2.2-4.6,3.6-7.1,3.6c-3.1,0-5-1.8-5-4.7c0-4.2,5-6.5,12.1-7.5v-3.5c0-3.1-2-4.8-4.8-4.8c-1,0-2.3,0.2-3.5,0.7
			c1,0.8,1.5,1.8,1.5,2.7c0,1.2-0.9,2.3-2.2,2.3c-1.4,0-2.3-1.1-2.3-2.3c0-3,4.9-5.5,9.4-5.5c4.1,0,5.9,2.2,5.9,6.4V82.1z
			 M285.5,74.8c-6,0-8,2.2-8,4.7c0,2,1.3,3.2,3.4,3.2c1.3,0,2.9-0.5,4.6-1.4V74.8z"/>
		<path class="st0" d="M302,85.2c-3.6,0-4.6-1.6-4.6-4.9V65.8h-3.3v-0.6l3.7-2.4l2.8-4.3h0.8v5.3h7.1v2h-7.1v12.8
			c0,1.7,0.1,2.8,1.1,3.4c0.7,0.4,1.8,0.6,3.5,0.6c0.8,0,1.6,0,2.6-0.1l0,0.5C306.6,84.3,304.2,85.2,302,85.2z"/>
		<path class="st0" d="M310.6,65v-0.4l6.9-1.7l0.2,0.1v20.3l3.1,0.8v0.6h-10.4v-0.6l3.3-0.8V67L310.6,65z M315.9,53.2
			c1.5,0,2.5,1.1,2.5,2.5c0,1.5-1.2,2.9-2.8,2.9c-1.5,0-2.5-1.1-2.5-2.6C313.1,54.6,314.3,53.2,315.9,53.2z"/>
		<path class="st0" d="M333.9,85.5c-6.6,0-10.2-4.8-10.2-11.3c0-6,4-11.3,10.9-11.3c6.7,0,10.2,4.7,10.2,11.1
			C344.8,80.1,340.8,85.5,333.9,85.5z M334,64c-3.2,0-5.8,3.3-5.8,10.4c0,6.9,2.9,10.1,6.2,10.1c3.5,0,5.8-3.3,5.8-10.4
			C340.2,67.2,337.6,64,334,64z"/>
		<path class="st0" d="M368.7,83.3l3.1,0.8v0.6h-10v-0.6l3-0.8V71.5c0-3.6-1.3-5.3-4.4-5.3c-2,0-3.4,0.4-5.3,1.5v15.6l2.9,0.8v0.6
			h-10v-0.6l3.1-0.8V67l-3.1-2v-0.4l6.6-1.7l0.2,0.1l-0.1,3.8l0.2,0.1c2.8-2.6,5.5-3.9,8-3.9c4.2,0,5.8,3.2,5.8,6.5V83.3z"/>
		<path class="st0" d="M390.9,82.1c0,1.4,1.1,1.8,3.9,1.5l0.1,0.5c-0.9,0.6-3.2,1.4-4.9,1.4c-1.8,0-2.7-1-2.9-3.5l-0.2-0.1
			c-2.2,2.2-4.6,3.6-7.1,3.6c-3.1,0-5-1.8-5-4.7c0-4.2,5-6.5,12.1-7.5v-3.5c0-3.1-2-4.8-4.8-4.8c-1,0-2.3,0.2-3.5,0.7
			c1,0.8,1.5,1.8,1.5,2.7c0,1.2-0.9,2.3-2.2,2.3c-1.4,0-2.3-1.1-2.3-2.3c0-3,4.9-5.5,9.4-5.5c4.1,0,5.9,2.2,5.9,6.4V82.1z
			 M386.9,74.8c-6,0-8,2.2-8,4.7c0,2,1.3,3.2,3.4,3.2c1.3,0,2.9-0.5,4.6-1.4V74.8z"/>
		<path class="st0" d="M406.3,84.2v0.6h-10.4v-0.6l3.3-0.8v-29l-3.4-2v-0.5L403,50l0.2,0.1v33.3L406.3,84.2z"/>
		<path class="st0" d="M430.5,85.5c-2.4,0-5.1-0.6-6.9-1.5l-1.9,1.6H421l-0.6-10.3l0.8-0.1c3.1,7,6.2,8.9,9.5,8.9
			c3.4,0,5.8-2.3,5.8-5.8c0-2.9-1.1-4.3-5.7-6.3c-1.6-0.6-3.1-1.2-4.6-1.9c-3.3-1.6-4.8-3.9-4.8-7.4c0-6,4.9-8.6,9.3-8.6
			c2,0,3.5,0.6,5,1.5l1.9-1.6h0.7l0.8,9l-0.8,0.1c-2.7-5.4-5.3-7.6-8.5-7.6c-2.6,0-4.6,1.9-4.6,5.1c0,2.3,1,4,4.4,5.5
			c1.6,0.8,3.5,1.4,5.2,2.3c3.8,1.8,5.5,4,5.5,7.5C440.4,82.3,434.8,85.5,430.5,85.5z"/>
		<path class="st0" d="M459.4,70c-1.7,0-2.7-1.4-2.7-2.8c0-1,0.4-2.1,1-2.8c-0.7-0.1-1.2-0.2-2-0.2c-3.9,0-7.7,2.8-7.7,9.5
			c0,5,2.7,8.9,7.5,8.9c2.3,0,4.4-0.7,6.6-1.7l0.2,0.6c-2.2,2.4-5.2,4-8.2,4c-6.1,0-10.3-4.4-10.3-10.9S448.8,63,455.5,63
			c3.9,0,6.5,1.9,6.5,4.2C462,68.8,460.9,70,459.4,70z"/>
		<path class="st0" d="M465.5,65v-0.4l6.9-1.7l0.2,0.1v20.3l3.1,0.8v0.6h-10.4v-0.6l3.3-0.8V67L465.5,65z M470.7,53.2
			c1.5,0,2.5,1.1,2.5,2.5c0,1.5-1.2,2.9-2.8,2.9c-1.5,0-2.5-1.1-2.5-2.6C467.9,54.6,469.1,53.2,470.7,53.2z"/>
		<path class="st0" d="M482.8,72.1c0,6.3,2.1,10.5,7.4,10.5c2.3,0,4.2-0.5,6.9-1.9l0.3,0.6c-2.9,2.8-5.5,4.2-8.6,4.2
			c-6,0-10.3-4.4-10.3-11c0-6.6,4.6-11.6,10.4-11.6s8.7,3.9,8.7,9.1H482.8z M493.1,70.8c-0.3-4-1.6-6.8-4.6-6.8
			c-3,0-5.5,2.8-5.7,7.1L493.1,70.8z"/>
		<path class="st0" d="M521.7,83.3l3.1,0.8v0.6h-10v-0.6l3-0.8V71.5c0-3.6-1.3-5.3-4.4-5.3c-2,0-3.4,0.4-5.3,1.5v15.6l2.9,0.8v0.6
			h-10v-0.6l3.1-0.8V67l-3.1-2v-0.4l6.6-1.7l0.2,0.1l-0.1,3.8l0.2,0.1c2.8-2.6,5.5-3.9,8-3.9c4.2,0,5.8,3.2,5.8,6.5V83.3z"/>
		<path class="st0" d="M542.7,70c-1.7,0-2.7-1.4-2.7-2.8c0-1,0.4-2.1,1-2.8c-0.7-0.1-1.2-0.2-2-0.2c-3.9,0-7.7,2.8-7.7,9.5
			c0,5,2.7,8.9,7.5,8.9c2.3,0,4.4-0.7,6.6-1.7l0.2,0.6c-2.2,2.4-5.2,4-8.2,4c-6.1,0-10.3-4.4-10.3-10.9S532.1,63,538.8,63
			c3.9,0,6.5,1.9,6.5,4.2C545.3,68.8,544.2,70,542.7,70z"/>
		<path class="st0" d="M552.8,72.1c0,6.3,2.1,10.5,7.4,10.5c2.3,0,4.2-0.5,6.9-1.9l0.3,0.6c-2.9,2.8-5.5,4.2-8.6,4.2
			c-6,0-10.3-4.4-10.3-11c0-6.6,4.6-11.6,10.4-11.6s8.7,3.9,8.7,9.1H552.8z M563.2,70.8c-0.3-4-1.6-6.8-4.6-6.8
			c-3,0-5.5,2.8-5.7,7.1L563.2,70.8z"/>
		<path class="st0" d="M577.9,85.5c-2.3,0-4.3-0.3-6.4-1.3v-5.9l1-0.1c1.6,4.3,3.7,6.1,6.3,6.1c2.5,0,4.1-1.5,4.1-3.9
			c0-2.5-2.5-3.5-5.1-4.6c-2.9-1.2-5.9-2.6-5.9-6.2c0-3.7,2.9-6.6,7.4-6.6c1.8,0,4.3,0.4,5.5,0.9l0.1,5.3l-0.8,0.2
			c-1.8-3.8-3.6-5.3-5.7-5.3c-2.1,0-3.5,1.2-3.5,3.2c0,2.5,2.5,3.5,5.2,4.7c2.9,1.2,6,2.6,6,6.4C586,82.7,582.5,85.5,577.9,85.5z"/>
	</g>
	<g>
		<polygon class="st0" points="28.6,43.6 23.2,43.6 23.2,15 28.6,15 28.6,7.9 3.6,7.9 3.6,15 8.9,15 8.9,43.6 16.1,50.8 28.6,50.8 
					"/>
		<polygon class="st0" points="46.5,50.8 59,50.8 66.2,43.6 66.2,15 71.5,15 71.5,7.9 46.5,7.9 46.5,15 51.9,15 51.9,43.6 
			46.5,43.6 		"/>
		<polygon class="st0" points="72,57.5 87.6,41.9 94.8,41.9 94.8,34.7 68,34.7 68,41.9 70.6,41.9 59.9,52.6 44.7,52.6 44.7,41.9 
			50.1,41.9 50.1,34.7 25,34.7 25,41.9 30.4,41.9 30.4,74 25,74 25,81.2 50.1,81.2 50.1,74 44.7,74 44.7,63.3 59.9,63.3 70.6,74 
			68,74 68,81.2 94.8,81.2 94.8,74 88.5,74 		"/>
		<path class="st0" d="M96.6,83H66.2V72.3h0L59,65.1H46.5v7.2h5.4V83H23.2V72.3h5.4V52.6H15.2l-8-8V16.8h0H1.8V6.1h28.6v10.7H25
			v16.1h25V16.8h-5.4V6.1h28.6v10.7H68v16.1h28.6v10.7h-8L74.7,57.5l14.8,14.8h7.2V83z M90.3,70.5l-13-13l12.1-12.1h8.9l0-14.3
			l-28.6,0V18.6h5.4V4.3H42.9h0v14.3h0h5.4v12.5H26.8V18.6h5.4h0V4.3h0H0v14.3h5.4v26.8h0l0,0l8.9,8.9h12.5v16.1h-5.4v14.3h32.2
			V70.5h-5.4v-3.6h9.8l6.3,6.3v11.6h34l0-14.3h0H90.3z"/>
	</g>
</g>
</svg>
