<?xml version="1.0" encoding="utf-8"?>
<!-- Generator: Adobe Illustrator 21.1.0, SVG Export Plug-In . SVG Version: 6.00 Build 0)  -->
<svg version="1.1" id="Layer_1" xmlns="http://www.w3.org/2000/svg" xmlns:xlink="http://www.w3.org/1999/xlink" x="0px" y="0px"
	 viewBox="0 0 561.5 132.3" style="enable-background:new 0 0 561.5 132.3;" xml:space="preserve">
<style type="text/css">
	.st0{fill:#FFFFFF;}
</style>
<g>
	<g>
		<path class="st0" d="M139.7,10.3l-2.9-3.6c-2.3-2.8-3.1-3.6-5.5-3.6h-3.1v26.7l5,0.8v0.8h-14.7v-0.8l5-0.8V3.1h-3.5
			c-2.4,0-3.2,0.8-5.5,3.6l-2.9,3.6l-0.5-0.3l1.6-8.5h25.7l1.7,8.5L139.7,10.3z"/>
		<path class="st0" d="M155.7,15c-1.3,0-2.3-1-2.5-2.5c-1.7,0.1-3.5,1.5-4.2,3.1v14.5l3.2,0.8v0.6h-10.3v-0.6l3.1-0.8V13.8l-3.1-2
			v-0.4l6.6-1.7l0.2,0.1l-0.1,4.6l0.2,0.1c1.5-2.9,4-4.8,6.2-4.8c2.1,0,3.1,1.3,3.1,2.7C158.1,14,157.1,15,155.7,15z"/>
		<path class="st0" d="M176.6,28.9c0,1.4,1.1,1.8,3.9,1.5l0.1,0.5c-0.9,0.6-3.2,1.4-4.9,1.4c-1.8,0-2.7-1-2.9-3.5l-0.2-0.1
			c-2.2,2.2-4.6,3.6-7.1,3.6c-3.1,0-5-1.8-5-4.7c0-4.2,5-6.5,12.1-7.5v-3.5c0-3.1-2-4.8-4.8-4.8c-1,0-2.3,0.2-3.5,0.7
			c1,0.8,1.5,1.8,1.5,2.7c0,1.2-0.9,2.3-2.2,2.3c-1.4,0-2.3-1.1-2.3-2.3c0-3,4.9-5.5,9.4-5.5c4.1,0,5.9,2.2,5.9,6.4V28.9z
			 M172.7,21.5c-6,0-8,2.2-8,4.7c0,2,1.3,3.2,3.4,3.2c1.3,0,2.9-0.5,4.6-1.4V21.5z"/>
		<path class="st0" d="M197.5,16.8c-1.7,0-2.7-1.4-2.7-2.8c0-1,0.4-2.1,1-2.8c-0.7-0.1-1.2-0.2-2-0.2c-3.9,0-7.7,2.8-7.7,9.5
			c0,5,2.7,8.9,7.5,8.9c2.3,0,4.4-0.7,6.6-1.7l0.2,0.6c-2.2,2.4-5.2,4-8.2,4c-6.1,0-10.3-4.4-10.3-10.9s4.8-11.7,11.6-11.7
			c3.9,0,6.5,1.9,6.5,4.2C200.1,15.6,199,16.8,197.5,16.8z"/>
		<path class="st0" d="M212.7,35.7c-1.6,3.9-3.5,5.7-6.2,5.7c-2.2,0-3.1-1.4-3.1-2.6c0-1.3,1.1-2.3,2.4-2.3c1.5,0,2.3,0.9,3.3,2.2
			c0.9-0.8,1.7-2.1,2.4-3.7l1.4-3.1l-8.2-19.9l-2.9-1v-0.6h10.7v0.6l-3.3,1l5.5,14.6h0.2l5.1-14.2l-3-1.4v-0.6h8v0.6l-3.2,1.5
			L212.7,35.7z"/>
		<path class="st0" d="M261.5,10l-3.6-4c-1.6-1.8-2.3-2.8-5.2-2.8h-6V16h2.8c2.8,0,3.9-1.2,4.7-4.5l0.4-1.6h0.7v13.2h-0.7l-0.4-1.5
			c-0.8-3.3-1.9-4.4-4.7-4.4h-2.8v12.6l4.9,0.8v0.8h-14.3v-0.8l4.7-0.8V3.2l-4.7-0.8V1.6h23.6l1.1,8L261.5,10z"/>
		<path class="st0" d="M278.9,28.9c0,1.4,1.1,1.8,3.9,1.5l0.1,0.5c-0.9,0.6-3.2,1.4-4.9,1.4c-1.8,0-2.7-1-2.9-3.5l-0.2-0.1
			c-2.2,2.2-4.6,3.6-7.1,3.6c-3.1,0-5-1.8-5-4.7c0-4.2,5-6.5,12.1-7.5v-3.5c0-3.1-2-4.8-4.8-4.8c-1,0-2.3,0.2-3.5,0.7
			c1,0.8,1.5,1.8,1.5,2.7c0,1.2-0.9,2.3-2.2,2.3c-1.4,0-2.3-1.1-2.3-2.3c0-3,4.9-5.5,9.4-5.5c4.1,0,5.9,2.2,5.9,6.4V28.9z M275,21.5
			c-6,0-8,2.2-8,4.7c0,2,1.3,3.2,3.4,3.2c1.3,0,2.9-0.5,4.6-1.4V21.5z"/>
		<path class="st0" d="M298.1,15c-1.3,0-2.3-1-2.5-2.5c-1.7,0.1-3.5,1.5-4.2,3.1v14.5l3.2,0.8v0.6h-10.3v-0.6l3.1-0.8V13.8l-3.1-2
			v-0.4l6.6-1.7l0.2,0.1l-0.1,4.6l0.2,0.1c1.5-2.9,4-4.8,6.2-4.8c2.1,0,3.1,1.3,3.1,2.7C300.5,14,299.5,15,298.1,15z"/>
		<path class="st0" d="M328.1,13c-2,0-3.1,0.7-5,1.7v15.3l3.1,0.8v0.6h-10v-0.6l2.9-0.8V18c0-3.6-1.2-5-4.3-5c-2,0-3,0.4-4.9,1.5
			v15.6l2.9,0.8v0.6h-10v-0.6l3.1-0.8V13.8l-3.1-2v-0.4l6.6-1.7l0.2,0.1l-0.1,3.8l0.2,0.1c2.8-2.6,5.1-3.9,7.7-3.9
			c3.1,0,4.7,2,5.3,4.1l0.2,0.1c2.8-2.6,5.3-4.3,7.8-4.3c4.2,0,5.7,3.2,5.7,6.6v13.8l3.1,0.8v0.6h-10.1v-0.6l3-0.8V18.3
			C332.4,14.7,331.2,13,328.1,13z"/>
		<path class="st0" d="M346.2,18.8c0,6.3,2.1,10.5,7.4,10.5c2.3,0,4.2-0.5,6.9-1.9l0.3,0.6c-2.9,2.8-5.5,4.2-8.6,4.2
			c-6,0-10.3-4.4-10.3-11c0-6.6,4.6-11.6,10.4-11.6s8.7,3.9,8.7,9.1H346.2z M356.6,17.5c-0.3-4-1.6-6.8-4.6-6.8
			c-3,0-5.5,2.8-5.7,7.1L356.6,17.5z"/>
		<path class="st0" d="M378.2,15c-1.3,0-2.3-1-2.5-2.5c-1.7,0.1-3.5,1.5-4.2,3.1v14.5l3.2,0.8v0.6h-10.3v-0.6l3.1-0.8V13.8l-3.1-2
			v-0.4l6.6-1.7l0.2,0.1l-0.1,4.6l0.2,0.1c1.5-2.9,4-4.8,6.2-4.8c2.1,0,3.1,1.3,3.1,2.7C380.6,14,379.6,15,378.2,15z"/>
		<path class="st0" d="M408.7,30.7v0.8h-14.3v-0.8l4.8-0.8V3.2l-4.8-0.8V1.6h14.3v0.8l-4.8,0.8v26.6L408.7,30.7z"/>
		<path class="st0" d="M433.3,30.1l3.1,0.8v0.6h-10v-0.6l3-0.8V18.3c0-3.6-1.3-5.3-4.4-5.3c-2,0-3.4,0.4-5.3,1.5v15.6l2.9,0.8v0.6
			h-10v-0.6l3.1-0.8V13.8l-3.1-2v-0.4l6.6-1.7l0.2,0.1l-0.1,3.8l0.2,0.1c2.8-2.6,5.5-3.9,8-3.9c4.2,0,5.8,3.2,5.8,6.5V30.1z"/>
		<path class="st0" d="M445.6,32.2c-2.4,0-4.3-0.3-6.4-1.3V25l1-0.1c1.6,4.3,3.7,6.1,6.3,6.1c2.5,0,4.1-1.5,4.1-3.9
			c0-2.5-2.5-3.5-5.1-4.6c-2.9-1.2-5.9-2.6-5.9-6.3c0-3.7,2.9-6.6,7.4-6.6c1.8,0,4.3,0.4,5.5,0.9l0.1,5.3l-0.8,0.2
			c-1.8-3.8-3.6-5.3-5.7-5.3c-2.1,0-3.5,1.2-3.5,3.2c0,2.5,2.5,3.5,5.2,4.7c2.9,1.2,6,2.6,6,6.4C453.8,29.5,450.2,32.2,445.6,32.2z"
			/>
		<path class="st0" d="M464,31.9c-3.6,0-4.6-1.6-4.6-4.9V12.6h-3.3V12l3.7-2.4l2.8-4.3h0.8v5.3h7.1v2h-7.1v12.8
			c0,1.7,0.1,2.8,1.1,3.4c0.7,0.4,1.8,0.6,3.5,0.6c0.8,0,1.6,0,2.6-0.1l0,0.5C468.6,31,466.3,31.9,464,31.9z"/>
		<path class="st0" d="M472.6,11.8v-0.4l6.9-1.7l0.2,0.1v20.3l3.1,0.8v0.6h-10.4v-0.6l3.3-0.8V13.8L472.6,11.8z M477.9,0
			c1.5,0,2.5,1.1,2.5,2.5c0,1.5-1.2,2.9-2.8,2.9c-1.5,0-2.5-1.1-2.5-2.6C475.1,1.4,476.3,0,477.9,0z"/>
		<path class="st0" d="M492.8,31.9c-3.6,0-4.6-1.6-4.6-4.9V12.6h-3.3V12l3.7-2.4l2.8-4.3h0.8v5.3h7.1v2h-7.1v12.8
			c0,1.7,0.1,2.8,1.1,3.4c0.7,0.4,1.8,0.6,3.5,0.6c0.8,0,1.6,0,2.6-0.1l0,0.5C497.4,31,495,31.9,492.8,31.9z"/>
		<path class="st0" d="M524.4,30.1v0.5l-6.6,1.6l-0.2-0.1l0.1-3.7l-0.2-0.1c-2.8,2.6-5.5,3.9-8,3.9c-4.2,0-5.8-3.2-5.8-6.5V13.4
			l-3.1-1.6v-0.4l6.9-1.7l0.2,0.1v13.9c0,3.6,1.3,5.3,4.4,5.3c2,0,3.4-0.4,5.3-1.5V13.4l-3.1-1.6v-0.4l6.9-1.7l0.2,0.1v19.1
			L524.4,30.1z"/>
		<path class="st0" d="M533.9,31.9c-3.6,0-4.6-1.6-4.6-4.9V12.6H526V12l3.7-2.4l2.8-4.3h0.8v5.3h7.1v2h-7.1v12.8
			c0,1.7,0.1,2.8,1.1,3.4c0.7,0.4,1.8,0.6,3.5,0.6c0.8,0,1.6,0,2.6-0.1l0,0.5C538.5,31,536.1,31.9,533.9,31.9z"/>
		<path class="st0" d="M546.6,18.8c0,6.3,2.1,10.5,7.4,10.5c2.3,0,4.2-0.5,6.9-1.9l0.3,0.6c-2.9,2.8-5.5,4.2-8.6,4.2
			c-6,0-10.3-4.4-10.3-11c0-6.6,4.6-11.6,10.4-11.6s8.7,3.9,8.7,9.1H546.6z M557,17.5c-0.3-4-1.6-6.8-4.6-6.8c-3,0-5.5,2.8-5.7,7.1
			L557,17.5z"/>
		<path class="st0" d="M119.4,62.6v17.4l3.8,0.8v0.6h-10.9v-0.6l3.1-0.8V62.6h-4.2v-0.8l4.2-1.2v-2.3c0-4.6,1.3-7.3,3.7-9.4
			c1.7-1.5,3.8-2.3,5.9-2.3c2.5,0,3.8,1.2,3.8,2.6s-0.9,2.4-2.3,2.4c-1.5,0-2.8-0.9-4.2-3.4c-2,1.2-2.9,3.6-2.9,8.2v4.2h5.8v1.9
			H119.4z"/>
		<path class="st0" d="M136.9,82.3c-6.6,0-10.2-4.8-10.2-11.3c0-6,4-11.3,10.9-11.3c6.7,0,10.2,4.7,10.2,11.1
			C147.8,76.9,143.8,82.3,136.9,82.3z M137.1,60.8c-3.2,0-5.8,3.3-5.8,10.4c0,6.9,2.9,10.1,6.2,10.1c3.5,0,5.8-3.3,5.8-10.4
			C143.2,64,140.6,60.8,137.1,60.8z"/>
		<path class="st0" d="M164.8,65c-1.3,0-2.3-1-2.5-2.5c-1.7,0.1-3.5,1.5-4.2,3.1v14.5l3.2,0.8v0.6H151v-0.6l3.1-0.8V63.8l-3.1-2
			v-0.4l6.6-1.7l0.2,0.1l-0.1,4.6l0.2,0.1c1.5-2.9,4-4.8,6.2-4.8c2.1,0,3.1,1.3,3.1,2.7C167.2,64,166.3,65,164.8,65z"/>
		<path class="st0" d="M191.2,82.2c-2.4,0-5.1-0.6-6.9-1.5l-1.9,1.6h-0.7l-0.6-10.3l0.8-0.1c3.1,7,6.2,8.9,9.5,8.9
			c3.4,0,5.8-2.3,5.8-5.8c0-2.9-1.1-4.3-5.7-6.3c-1.6-0.6-3.1-1.2-4.6-1.9c-3.3-1.6-4.8-3.9-4.8-7.4c0-6,4.9-8.6,9.3-8.6
			c2,0,3.5,0.6,5,1.5l1.9-1.6h0.7l0.8,9l-0.8,0.1c-2.7-5.4-5.3-7.6-8.5-7.6c-2.6,0-4.6,1.9-4.6,5.1c0,2.3,1,4,4.4,5.5
			c1.6,0.8,3.5,1.4,5.2,2.3c3.8,1.8,5.5,4,5.5,7.5C201,79,195.5,82.2,191.2,82.2z"/>
		<path class="st0" d="M227.6,80.1v0.5l-6.6,1.6l-0.2-0.1l0.1-3.7l-0.2-0.1c-2.8,2.6-5.5,3.9-8,3.9c-4.2,0-5.8-3.2-5.8-6.5V63.4
			l-3.1-1.6v-0.4l6.9-1.7l0.2,0.1v13.9c0,3.6,1.3,5.3,4.4,5.3c2,0,3.4-0.4,5.3-1.5V63.4l-3.1-1.6v-0.4l6.9-1.7l0.2,0.1v19.1
			L227.6,80.1z"/>
		<path class="st0" d="M236.8,82.2c-2.3,0-4.3-0.3-6.4-1.3V75l1-0.1c1.6,4.3,3.7,6.1,6.3,6.1c2.5,0,4.1-1.5,4.1-3.9
			c0-2.5-2.5-3.5-5.1-4.6c-2.9-1.2-5.9-2.6-5.9-6.3c0-3.7,2.9-6.6,7.4-6.6c1.8,0,4.3,0.4,5.5,0.9l0.1,5.3l-0.8,0.2
			c-1.8-3.8-3.6-5.3-5.7-5.3c-2.1,0-3.5,1.2-3.5,3.2c0,2.5,2.5,3.5,5.2,4.7c2.9,1.2,6,2.6,6,6.4C244.9,79.5,241.4,82.2,236.8,82.2z"
			/>
		<path class="st0" d="M255.2,81.9c-3.6,0-4.6-1.6-4.6-4.9V62.6h-3.3V62l3.7-2.4l2.8-4.3h0.8v5.3h7.1v2h-7.1v12.8
			c0,1.7,0.1,2.8,1.1,3.4c0.7,0.4,1.8,0.6,3.5,0.6c0.8,0,1.6,0,2.6-0.1l0,0.5C259.7,81,257.4,81.9,255.2,81.9z"/>
		<path class="st0" d="M280.2,78.9c0,1.4,1.1,1.8,3.9,1.5l0.1,0.5c-0.9,0.6-3.2,1.4-4.9,1.4c-1.8,0-2.7-1-2.9-3.5l-0.2-0.1
			c-2.2,2.2-4.6,3.6-7.1,3.6c-3.1,0-5-1.8-5-4.7c0-4.2,5-6.5,12.1-7.5v-3.5c0-3.1-2-4.8-4.8-4.8c-1,0-2.3,0.2-3.5,0.7
			c1,0.8,1.5,1.8,1.5,2.7c0,1.2-0.9,2.3-2.2,2.3c-1.4,0-2.3-1.1-2.3-2.3c0-3,4.9-5.5,9.4-5.5c4.1,0,5.9,2.2,5.9,6.4V78.9z
			 M276.2,71.5c-6,0-8,2.2-8,4.7c0,2,1.3,3.2,3.4,3.2c1.3,0,2.9-0.5,4.6-1.4V71.5z"/>
		<path class="st0" d="M285.8,61.8v-0.4l6.9-1.7l0.2,0.1v20.3l3.1,0.8v0.6h-10.4v-0.6l3.3-0.8V63.8L285.8,61.8z M291,50
			c1.5,0,2.5,1.1,2.5,2.5c0,1.5-1.2,2.9-2.8,2.9c-1.5,0-2.5-1.1-2.5-2.6C288.2,51.4,289.4,50,291,50z"/>
		<path class="st0" d="M319.5,80.1l3.1,0.8v0.6h-10v-0.6l3-0.8V68.3c0-3.6-1.3-5.3-4.4-5.3c-2,0-3.4,0.4-5.3,1.5v15.6l2.9,0.8v0.6
			h-10v-0.6l3.1-0.8V63.8l-3.1-2v-0.4l6.6-1.7l0.2,0.1l-0.1,3.8l0.2,0.1c2.8-2.6,5.5-3.9,8-3.9c4.2,0,5.8,3.2,5.8,6.5V80.1z"/>
		<path class="st0" d="M341.6,78.9c0,1.4,1.1,1.8,3.9,1.5l0.1,0.5c-0.9,0.6-3.2,1.4-4.9,1.4c-1.8,0-2.7-1-2.9-3.5l-0.2-0.1
			c-2.2,2.2-4.6,3.6-7.1,3.6c-3.1,0-5-1.8-5-4.7c0-4.2,5-6.5,12.1-7.5v-3.5c0-3.1-2-4.8-4.8-4.8c-1,0-2.3,0.2-3.5,0.7
			c1,0.8,1.5,1.8,1.5,2.7c0,1.2-0.9,2.3-2.2,2.3c-1.4,0-2.3-1.1-2.3-2.3c0-3,4.9-5.5,9.4-5.5c4.1,0,5.9,2.2,5.9,6.4V78.9z
			 M337.7,71.5c-6,0-8,2.2-8,4.7c0,2,1.3,3.2,3.4,3.2c1.3,0,2.9-0.5,4.6-1.4V71.5z"/>
		<path class="st0" d="M356.2,82.3c-2.4,0-5.6-0.8-7.5-1.7V51l-3.4-2v-0.5l7.2-1.8l0.2,0.1v15.9l0.2,0.1c1.6-1.6,3.8-3.1,6.8-3.1
			c4.2,0,8.6,4,8.6,11C368.4,76.8,363.5,82.3,356.2,82.3z M357,62.7c-1.8,0-3.1,0.4-4.2,1.1v14.8c1.6,1.5,3.9,2.3,5.9,2.3
			c3,0,5.5-2.6,5.5-9.4C364.2,65.7,361.4,62.7,357,62.7z"/>
		<path class="st0" d="M372,61.8v-0.4l6.9-1.7l0.2,0.1v20.3l3.1,0.8v0.6h-10.4v-0.6l3.3-0.8V63.8L372,61.8z M377.2,50
			c1.5,0,2.5,1.1,2.5,2.5c0,1.5-1.2,2.9-2.8,2.9c-1.5,0-2.5-1.1-2.5-2.6C374.4,51.4,375.6,50,377.2,50z"/>
		<path class="st0" d="M395,80.9v0.6h-10.4v-0.6l3.3-0.8V51l-3.4-2v-0.5l7.2-1.8l0.2,0.1v33.3L395,80.9z"/>
		<path class="st0" d="M397.8,61.8v-0.4l6.9-1.7l0.2,0.1v20.3l3.1,0.8v0.6h-10.4v-0.6l3.3-0.8V63.8L397.8,61.8z M403,50
			c1.5,0,2.5,1.1,2.5,2.5c0,1.5-1.2,2.9-2.8,2.9c-1.5,0-2.5-1.1-2.5-2.6C400.3,51.4,401.5,50,403,50z"/>
		<path class="st0" d="M418,81.9c-3.6,0-4.6-1.6-4.6-4.9V62.6h-3.3V62l3.7-2.4l2.8-4.3h0.8v5.3h7.1v2h-7.1v12.8
			c0,1.7,0.1,2.8,1.1,3.4c0.7,0.4,1.8,0.6,3.5,0.6c0.8,0,1.6,0,2.6-0.1l0,0.5C422.5,81,420.2,81.9,418,81.9z"/>
		<path class="st0" d="M435.8,85.7c-1.6,3.9-3.5,5.7-6.2,5.7c-2.2,0-3.1-1.4-3.1-2.6s1.1-2.3,2.4-2.3c1.5,0,2.3,0.9,3.3,2.2
			c0.9-0.8,1.7-2.1,2.4-3.7l1.4-3.1l-8.2-19.9l-2.9-1v-0.6h10.7v0.6l-3.3,1l5.5,14.6h0.2l5.1-14.2l-3-1.4v-0.6h8v0.6l-3.2,1.5
			L435.8,85.7z"/>
		<path class="st0" d="M128.2,128.9c0,1.4,1.1,1.8,3.9,1.5l0.1,0.5c-0.9,0.6-3.2,1.4-4.9,1.4c-1.8,0-2.7-1-2.9-3.5l-0.2-0.1
			c-2.2,2.2-4.6,3.6-7.1,3.6c-3.1,0-5-1.8-5-4.7c0-4.2,5-6.5,12.1-7.5v-3.5c0-3.1-2-4.8-4.8-4.8c-1,0-2.3,0.2-3.5,0.7
			c1,0.8,1.5,1.8,1.5,2.7c0,1.2-0.9,2.3-2.2,2.3c-1.4,0-2.3-1.1-2.3-2.3c0-3,4.9-5.5,9.4-5.5c4.1,0,5.9,2.2,5.9,6.4V128.9z
			 M124.3,121.5c-6,0-8,2.2-8,4.7c0,2,1.3,3.2,3.4,3.2c1.3,0,2.9-0.5,4.6-1.4V121.5z"/>
		<path class="st0" d="M154.3,130.1l3.1,0.8v0.6h-10v-0.6l3-0.8v-11.8c0-3.6-1.3-5.3-4.4-5.3c-2,0-3.4,0.4-5.3,1.5v15.6l2.9,0.8v0.6
			h-10v-0.6l3.1-0.8v-16.3l-3.1-2v-0.4l6.6-1.7l0.2,0.1l-0.1,3.8l0.2,0.1c2.8-2.6,5.5-3.9,8-3.9c4.2,0,5.8,3.2,5.8,6.5V130.1z"/>
		<path class="st0" d="M182.4,130.1v0.5l-6.3,1.7l-0.2-0.1l-0.4-3.1l-0.2-0.1l-1.2,1c-1.4,1.3-3.1,2.2-5.5,2.2
			c-4.3,0-8.6-3.7-8.6-10.6c0-6.1,3.9-11.9,11.8-11.9c1.5,0,2.4,0.1,3.6,0.3v-9l-3.4-2v-0.5l7.2-1.8l0.2,0.1v32.1L182.4,130.1z
			 M171,129.6c1.8,0,3.3-0.6,4.4-1.8v-14.1c-1.2-1.7-2.8-2.9-5-2.9c-3,0-6.2,3-6.2,10C164.2,126,167,129.6,171,129.6z"/>
		<path class="st0" d="M202.6,131.9c-3.6,0-4.6-1.6-4.6-4.9v-14.4h-3.3V112l3.7-2.4l2.8-4.3h0.8v5.3h7.1v2h-7.1v12.8
			c0,1.7,0.1,2.8,1.1,3.4c0.7,0.4,1.8,0.6,3.5,0.6c0.8,0,1.6,0,2.6-0.1l0,0.5C207.1,131,204.8,131.9,202.6,131.9z"/>
		<path class="st0" d="M223.4,113c-2,0-3.5,0.4-5.4,1.5v15.6l2.9,0.8v0.6h-10v-0.6l3.1-0.8v-29l-3.4-2v-0.5l7.2-1.8l0.2,0.1v16.6
			l0.2,0.1c2.8-2.6,5.4-3.8,7.9-3.8c4.2,0,6.1,3.2,6.1,6.5v13.8l3.1,0.8v0.6h-10v-0.6l3-0.8v-11.8C228.2,114.7,226.5,113,223.4,113z
			"/>
		<path class="st0" d="M242,118.8c0,6.3,2.1,10.5,7.4,10.5c2.3,0,4.2-0.5,6.9-1.9l0.3,0.6c-2.9,2.8-5.5,4.2-8.6,4.2
			c-6,0-10.3-4.4-10.3-11c0-6.6,4.6-11.6,10.4-11.6s8.7,3.9,8.7,9.1H242z M252.3,117.5c-0.3-4-1.6-6.8-4.6-6.8c-3,0-5.5,2.8-5.7,7.1
			L252.3,117.5z"/>
		<path class="st0" d="M295.7,109.6l-0.4,0.3l-3.6-4c-1.7-1.8-2.3-2.8-5.2-2.8h-6.1v12.6h2.5c2.8,0,3.9-1.1,4.7-4.4l0.4-1.6h0.7V123
			h-0.7l-0.4-1.5c-0.8-3.3-1.9-4.5-4.7-4.5h-2.5v12.8h8.2c2.8,0,3.4-0.8,4.7-2.5l4.1-5.3l0.5,0.2l-1.3,9.2h-25.6v-0.8l4.7-0.8v-26.6
			l-4.7-0.8v-0.8h23.5L295.7,109.6z"/>
		<path class="st0" d="M321.8,130.1l3.1,0.8v0.6h-10v-0.6l3-0.8v-11.8c0-3.6-1.3-5.3-4.4-5.3c-2,0-3.4,0.4-5.3,1.5v15.6l2.9,0.8v0.6
			h-10v-0.6l3.1-0.8v-16.3l-3.1-2v-0.4l6.6-1.7l0.2,0.1l-0.1,3.8l0.2,0.1c2.8-2.6,5.5-3.9,8-3.9c4.2,0,5.8,3.2,5.8,6.5V130.1z"/>
		<path class="st0" d="M339,126.7h0.2l2.4-6.2l2.9-8.1l-3-1.4v-0.6h8.3v0.6l-3.4,1.5l-8,19.5h-1.1l-8.4-20l-2.9-1v-0.6h10.8v0.6
			l-3.3,1L339,126.7z"/>
		<path class="st0" d="M350.8,111.8v-0.4l6.9-1.7l0.2,0.1v20.3l3.1,0.8v0.6h-10.4v-0.6l3.3-0.8v-16.3L350.8,111.8z M356,100
			c1.5,0,2.5,1.1,2.5,2.5c0,1.5-1.2,2.9-2.8,2.9c-1.5,0-2.5-1.1-2.5-2.6C353.3,101.4,354.5,100,356,100z"/>
		<path class="st0" d="M377.6,115c-1.3,0-2.3-1-2.5-2.5c-1.7,0.1-3.5,1.5-4.2,3.1v14.5l3.2,0.8v0.6h-10.3v-0.6l3.1-0.8v-16.3l-3.1-2
			v-0.4l6.6-1.7l0.2,0.1l-0.1,4.6l0.2,0.1c1.5-2.9,4-4.8,6.2-4.8c2.1,0,3.1,1.3,3.1,2.7C380,114,379,115,377.6,115z"/>
		<path class="st0" d="M392.1,132.3c-6.6,0-10.2-4.8-10.2-11.3c0-6,4-11.3,10.9-11.3c6.7,0,10.2,4.7,10.2,11.1
			C403,126.9,399,132.3,392.1,132.3z M392.3,110.8c-3.2,0-5.8,3.3-5.8,10.4c0,6.9,2.9,10.1,6.2,10.1c3.5,0,5.8-3.3,5.8-10.4
			C398.4,114,395.8,110.8,392.3,110.8z"/>
		<path class="st0" d="M427,130.1l3.1,0.8v0.6h-10v-0.6l3-0.8v-11.8c0-3.6-1.3-5.3-4.4-5.3c-2,0-3.4,0.4-5.3,1.5v15.6l2.9,0.8v0.6
			h-10v-0.6l3.1-0.8v-16.3l-3.1-2v-0.4l6.6-1.7l0.2,0.1l-0.1,3.8l0.2,0.1c2.8-2.6,5.5-3.9,8-3.9c4.2,0,5.8,3.2,5.8,6.5V130.1z"/>
		<path class="st0" d="M457.8,113c-2,0-3.1,0.7-5,1.7v15.3l3.1,0.8v0.6h-10v-0.6l2.9-0.8V118c0-3.6-1.2-5-4.3-5c-2,0-3,0.4-4.9,1.5
			v15.6l2.9,0.8v0.6h-10v-0.6l3.1-0.8v-16.3l-3.1-2v-0.4l6.6-1.7l0.2,0.1l-0.1,3.8l0.2,0.1c2.8-2.6,5.1-3.9,7.7-3.9
			c3.1,0,4.7,2,5.3,4.1l0.2,0.1c2.8-2.6,5.3-4.3,7.8-4.3c4.2,0,5.7,3.2,5.7,6.6v13.8l3.1,0.8v0.6h-10.1v-0.6l3-0.8v-11.8
			C462.1,114.7,460.9,113,457.8,113z"/>
		<path class="st0" d="M475.9,118.8c0,6.3,2.1,10.5,7.4,10.5c2.3,0,4.2-0.5,6.9-1.9l0.3,0.6c-2.9,2.8-5.5,4.2-8.6,4.2
			c-6,0-10.3-4.4-10.3-11c0-6.6,4.6-11.6,10.4-11.6s8.7,3.9,8.7,9.1H475.9z M486.2,117.5c-0.3-4-1.6-6.8-4.6-6.8
			c-3,0-5.5,2.8-5.7,7.1L486.2,117.5z"/>
		<path class="st0" d="M514.8,130.1l3.1,0.8v0.6h-10v-0.6l3-0.8v-11.8c0-3.6-1.3-5.3-4.4-5.3c-2,0-3.4,0.4-5.3,1.5v15.6l2.9,0.8v0.6
			h-10v-0.6l3.1-0.8v-16.3l-3.1-2v-0.4l6.6-1.7l0.2,0.1l-0.1,3.8l0.2,0.1c2.8-2.6,5.5-3.9,8-3.9c4.2,0,5.8,3.2,5.8,6.5V130.1z"/>
		<path class="st0" d="M527.5,131.9c-3.6,0-4.6-1.6-4.6-4.9v-14.4h-3.3V112l3.7-2.4l2.8-4.3h0.8v5.3h7.1v2h-7.1v12.8
			c0,1.7,0.1,2.8,1.1,3.4c0.7,0.4,1.8,0.6,3.5,0.6c0.8,0,1.6,0,2.6-0.1l0,0.5C532.1,131,529.7,131.9,527.5,131.9z"/>
	</g>
	<g>
		<polygon class="st0" points="28.6,39.4 23.2,39.4 23.2,10.8 28.6,10.8 28.6,3.6 3.6,3.6 3.6,10.8 8.9,10.8 8.9,39.4 16.1,46.6 
			28.6,46.6 		"/>
		<polygon class="st0" points="46.5,46.6 59,46.6 66.2,39.4 66.2,10.8 71.5,10.8 71.5,3.6 46.5,3.6 46.5,10.8 51.9,10.8 51.9,39.4 
			46.5,39.4 		"/>
		<polygon class="st0" points="72,53.3 87.6,37.6 94.8,37.6 94.8,30.5 68,30.5 68,37.6 70.6,37.6 59.9,48.3 44.7,48.3 44.7,37.6 
			50.1,37.6 50.1,30.5 25,30.5 25,37.6 30.4,37.6 30.4,69.8 25,69.8 25,77 50.1,77 50.1,69.8 44.7,69.8 44.7,59.1 59.9,59.1 
			70.6,69.8 68,69.8 68,77 94.8,77 94.8,69.8 88.5,69.8 		"/>
		<path class="st0" d="M96.6,78.7H66.2V68h0L59,60.9H46.5V68h5.4v10.7H23.2V68h5.4V48.3H15.2l-8-8V12.6h0H1.8V1.9h28.6v10.7H25v16.1
			h25V12.6h-5.4V1.9h28.6v10.7H68v16.1h28.6v10.7h-8L74.7,53.3L89.4,68h7.2V78.7z M90.3,66.2l-13-13l12.1-12.1h8.9l0-14.3l-28.6,0
			V14.4h5.4V0.1H42.9h0v14.3h0h5.4v12.5H26.8V14.4h5.4h0V0.1h0H0v14.3h5.4v26.8h0l0,0l8.9,8.9h12.5v16.1h-5.4v14.3h32.2V66.2h-5.4
			v-3.6h9.8l6.3,6.3v11.6h34l0-14.3h0H90.3z"/>
	</g>
</g>
</svg>
