<?xml version="1.0" encoding="utf-8"?>
<!-- Generator: Adobe Illustrator 21.1.0, SVG Export Plug-In . SVG Version: 6.00 Build 0)  -->
<svg version="1.1" id="Layer_1" xmlns="http://www.w3.org/2000/svg" xmlns:xlink="http://www.w3.org/1999/xlink" x="0px" y="0px"
	 viewBox="0 0 666.8 94.7" style="enable-background:new 0 0 666.8 94.7;" xml:space="preserve">
<style type="text/css">
	.st0{fill:#FFFFFF;}
</style>
<g>
	<g>
		<path class="st0" d="M137.6,33c-3,1.6-5.5,2.5-9.7,2.5c-9.4,0-16-6.1-16-15.4c0-8.7,6.8-16,16.1-16c2.4,0,5.1,0.5,6.9,1.5l2-1.6
			h0.5l0.4,10.1l-0.8,0.1c-3.1-6.3-6.3-8.6-11-8.6c-4.1,0-8.7,4-8.7,13.8c0,9.6,5.4,14.6,11.8,14.6c1.4,0,2.6-0.2,3.7-0.7l5.3-6.6
			l0.4,0.2L137.6,33z"/>
		<path class="st0" d="M146.7,22.1c0,6.3,2.1,10.5,7.4,10.5c2.3,0,4.2-0.5,6.9-1.9l0.3,0.6c-2.9,2.8-5.5,4.2-8.6,4.2
			c-6,0-10.3-4.4-10.3-11c0-6.6,4.6-11.6,10.4-11.6s8.7,3.9,8.7,9.1H146.7z M157,20.8c-0.3-4-1.6-6.8-4.6-6.8c-3,0-5.5,2.8-5.7,7.1
			L157,20.8z"/>
		<path class="st0" d="M185.6,33.4l3.1,0.8v0.6h-10v-0.6l3-0.8V21.6c0-3.6-1.3-5.3-4.4-5.3c-2,0-3.4,0.4-5.3,1.5v15.6l2.9,0.8v0.6
			h-10v-0.6l3.1-0.8V17.1l-3.1-2v-0.4l6.6-1.7l0.2,0.1l-0.1,3.8l0.2,0.1c2.8-2.6,5.5-3.9,8-3.9c4.2,0,5.8,3.2,5.8,6.5V33.4z"/>
		<path class="st0" d="M198.3,35.2c-3.6,0-4.6-1.6-4.6-4.9V15.9h-3.3v-0.6l3.7-2.4l2.8-4.3h0.8v5.3h7.1v2h-7.1v12.8
			c0,1.7,0.1,2.8,1.1,3.4c0.7,0.4,1.8,0.6,3.5,0.6c0.8,0,1.6,0,2.6-0.1l0,0.5C202.9,34.3,200.5,35.2,198.3,35.2z"/>
		<path class="st0" d="M211,22.1c0,6.3,2.1,10.5,7.4,10.5c2.3,0,4.2-0.5,6.9-1.9l0.3,0.6c-2.9,2.8-5.5,4.2-8.6,4.2
			c-6,0-10.3-4.4-10.3-11c0-6.6,4.6-11.6,10.4-11.6s8.7,3.9,8.7,9.1H211z M221.3,20.8c-0.3-4-1.6-6.8-4.6-6.8c-3,0-5.5,2.8-5.7,7.1
			L221.3,20.8z"/>
		<path class="st0" d="M243,18.3c-1.3,0-2.3-1-2.5-2.5c-1.7,0.1-3.5,1.5-4.2,3.1v14.5l3.2,0.8v0.6h-10.3v-0.6l3.1-0.8V17.1l-3.1-2
			v-0.4l6.6-1.7l0.2,0.1l-0.1,4.6l0.2,0.1c1.5-2.9,4-4.8,6.2-4.8c2.1,0,3.1,1.3,3.1,2.7C245.4,17.2,244.4,18.3,243,18.3z"/>
		<path class="st0" d="M266.3,15.9v17.4l3.8,0.8v0.6h-10.9v-0.6l3.1-0.8V15.9h-4.2v-0.8l4.2-1.2v-2.3c0-4.6,1.3-7.3,3.7-9.4
			c1.7-1.5,3.8-2.3,5.9-2.3c2.5,0,3.8,1.2,3.8,2.6s-0.9,2.4-2.4,2.4c-1.5,0-2.8-0.9-4.2-3.4c-2,1.2-2.9,3.6-2.9,8.2v4.2h5.8v1.9
			H266.3z"/>
		<path class="st0" d="M283.9,35.6c-6.6,0-10.2-4.8-10.2-11.3c0-6,4-11.3,10.9-11.3c6.7,0,10.2,4.7,10.2,11.1
			C294.7,30.2,290.8,35.6,283.9,35.6z M284,14.1c-3.2,0-5.8,3.3-5.8,10.4c0,6.9,2.9,10.1,6.2,10.1c3.5,0,5.8-3.3,5.8-10.4
			C290.1,17.3,287.5,14.1,284,14.1z"/>
		<path class="st0" d="M311.8,18.3c-1.3,0-2.3-1-2.5-2.5c-1.7,0.1-3.5,1.5-4.2,3.1v14.5l3.2,0.8v0.6H298v-0.6l3.1-0.8V17.1l-3.1-2
			v-0.4l6.6-1.7l0.2,0.1l-0.1,4.6l0.2,0.1c1.5-2.9,4-4.8,6.2-4.8c2.1,0,3.1,1.3,3.1,2.7C314.2,17.2,313.2,18.3,311.8,18.3z"/>
		<path class="st0" d="M343.9,20v0.2c2.5,0.8,4.3,3,5.3,5.1c1.6,3,2.8,5.6,4.1,6.8c1.5,1.2,2.3,1.6,4.2,1.9v0.8H352
			c-3.7,0-4.3-1.4-6-5l-2.6-5.4c-1.6-3.1-2.9-3.6-5-3.6h-1.8v12.4l4.7,0.8v0.8h-14V34l4.7-0.8V6.5l-4.7-0.8V4.9H341
			c7.1,0,11.3,3.1,11.3,7.7C352.3,16.1,349.2,18.9,343.9,20z M340,6.1c-1.3,0-2.3,0.1-3.2,0.3v13.1h3.2c3.8,0,7.1-2.3,7.1-6.7
			C347.1,8.3,343.8,6.1,340,6.1z"/>
		<path class="st0" d="M361.6,22.1c0,6.3,2.1,10.5,7.4,10.5c2.3,0,4.2-0.5,6.9-1.9l0.3,0.6c-2.9,2.8-5.5,4.2-8.6,4.2
			c-6,0-10.3-4.4-10.3-11c0-6.6,4.6-11.6,10.4-11.6s8.7,3.9,8.7,9.1H361.6z M371.9,20.8c-0.3-4-1.6-6.8-4.6-6.8
			c-3,0-5.5,2.8-5.7,7.1L371.9,20.8z"/>
		<path class="st0" d="M386.6,35.5c-2.4,0-4.3-0.3-6.4-1.3v-5.9l1-0.1c1.6,4.3,3.7,6.1,6.3,6.1c2.5,0,4.1-1.5,4.1-3.9
			c0-2.5-2.5-3.5-5.1-4.6c-2.9-1.2-5.9-2.6-5.9-6.3c0-3.7,2.9-6.6,7.4-6.6c1.8,0,4.3,0.4,5.5,0.9l0.1,5.3l-0.8,0.2
			c-1.8-3.8-3.6-5.3-5.7-5.3c-2.1,0-3.5,1.2-3.5,3.2c0,2.5,2.5,3.5,5.2,4.7c2.9,1.2,6,2.6,6,6.4C394.8,32.8,391.2,35.5,386.6,35.5z"
			/>
		<path class="st0" d="M402.4,22.1c0,6.3,2.1,10.5,7.4,10.5c2.3,0,4.2-0.5,6.9-1.9l0.3,0.6c-2.9,2.8-5.5,4.2-8.6,4.2
			c-6,0-10.3-4.4-10.3-11c0-6.6,4.6-11.6,10.4-11.6s8.7,3.9,8.7,9.1H402.4z M412.8,20.8c-0.3-4-1.6-6.8-4.6-6.8
			c-3,0-5.5,2.8-5.7,7.1L412.8,20.8z"/>
		<path class="st0" d="M437.3,32.1c0,1.4,1.1,1.8,3.9,1.5l0.1,0.5c-0.9,0.6-3.2,1.4-4.9,1.4c-1.8,0-2.7-1-2.9-3.5l-0.2-0.1
			c-2.2,2.2-4.6,3.6-7.1,3.6c-3.1,0-5-1.8-5-4.7c0-4.2,5-6.5,12.1-7.5v-3.5c0-3.1-2-4.8-4.8-4.8c-1,0-2.3,0.2-3.5,0.7
			c1,0.8,1.5,1.8,1.5,2.7c0,1.2-0.9,2.3-2.2,2.3c-1.4,0-2.3-1.1-2.3-2.3c0-3,4.9-5.5,9.4-5.5c4.1,0,5.9,2.2,5.9,6.4V32.1z
			 M433.3,24.8c-6,0-8,2.2-8,4.7c0,2,1.3,3.2,3.4,3.2c1.3,0,2.9-0.5,4.6-1.4V24.8z"/>
		<path class="st0" d="M456.4,18.3c-1.3,0-2.3-1-2.5-2.5c-1.7,0.1-3.5,1.5-4.2,3.1v14.5l3.2,0.8v0.6h-10.3v-0.6l3.1-0.8V17.1l-3.1-2
			v-0.4l6.6-1.7l0.2,0.1l-0.1,4.6l0.2,0.1c1.5-2.9,4-4.8,6.2-4.8c2.1,0,3.1,1.3,3.1,2.7C458.8,17.2,457.8,18.3,456.4,18.3z"/>
		<path class="st0" d="M476.2,20.1c-1.7,0-2.7-1.4-2.7-2.8c0-1,0.4-2.1,1-2.8c-0.7-0.1-1.2-0.2-2-0.2c-3.9,0-7.7,2.8-7.7,9.5
			c0,5,2.7,8.9,7.5,8.9c2.3,0,4.4-0.7,6.6-1.7l0.2,0.6c-2.2,2.4-5.2,4-8.2,4c-6.1,0-10.3-4.4-10.3-10.9S465.5,13,472.3,13
			c3.9,0,6.5,1.9,6.5,4.2C478.8,18.8,477.7,20.1,476.2,20.1z"/>
		<path class="st0" d="M494.4,16.3c-2,0-3.5,0.4-5.4,1.5v15.6l2.9,0.8v0.6h-10v-0.6l3.1-0.8v-29l-3.4-2V1.8l7.2-1.8l0.2,0.1v16.6
			l0.2,0.1c2.8-2.6,5.4-3.8,7.9-3.8c4.2,0,6.1,3.2,6.1,6.5v13.8l3.1,0.8v0.6h-10v-0.6l3-0.8V21.6C499.2,18,497.5,16.3,494.4,16.3z"
			/>
		<path class="st0" d="M121.9,85.6c-6.6,0-10.2-4.8-10.2-11.3c0-6,4-11.3,10.9-11.3c6.7,0,10.2,4.7,10.2,11.1
			C132.7,80.2,128.8,85.6,121.9,85.6z M122,64.1c-3.2,0-5.8,3.3-5.8,10.4c0,6.9,2.9,10.1,6.2,10.1c3.5,0,5.8-3.3,5.8-10.4
			C128.2,67.3,125.6,64.1,122,64.1z"/>
		<path class="st0" d="M156.7,83.4l3.1,0.8v0.6h-10v-0.6l3-0.8V71.6c0-3.6-1.3-5.3-4.4-5.3c-2,0-3.4,0.4-5.3,1.5v15.6l2.9,0.8v0.6
			h-10v-0.6l3.1-0.8V67.1l-3.1-2v-0.4l6.6-1.7l0.2,0.1l-0.1,3.8l0.2,0.1c2.8-2.6,5.5-3.9,8-3.9c4.2,0,5.8,3.2,5.8,6.5V83.4z"/>
		<path class="st0" d="M188.4,85.1h-1.6l-11.2-28.3l-4.1-1.1v-0.8h13.7v0.8l-4.7,0.8l8.6,22.7l8.6-22.3l-3.3-1.3v-0.8h8.6v0.8
			l-3.4,1.3L188.4,85.1z"/>
		<path class="st0" d="M203.8,65.1v-0.4l6.9-1.7l0.2,0.1v20.3l3.1,0.8v0.6h-10.4v-0.6l3.3-0.8V67.1L203.8,65.1z M209,53.3
			c1.5,0,2.5,1.1,2.5,2.5c0,1.5-1.2,2.9-2.8,2.9c-1.5,0-2.5-1.1-2.5-2.6C206.3,54.7,207.5,53.3,209,53.3z"/>
		<path class="st0" d="M227.1,85.6c-6.6,0-10.2-4.8-10.2-11.3c0-6,4-11.3,10.9-11.3c6.7,0,10.2,4.7,10.2,11.1
			C237.9,80.2,234,85.6,227.1,85.6z M227.2,64.1c-3.2,0-5.8,3.3-5.8,10.4c0,6.9,2.9,10.1,6.2,10.1c3.5,0,5.8-3.3,5.8-10.4
			C233.4,67.3,230.7,64.1,227.2,64.1z"/>
		<path class="st0" d="M251.3,84.2v0.6h-10.4v-0.6l3.3-0.8v-29l-3.4-2v-0.5L248,50l0.2,0.1v33.3L251.3,84.2z"/>
		<path class="st0" d="M258.1,72.1c0,6.3,2.1,10.5,7.4,10.5c2.3,0,4.2-0.5,6.9-1.9l0.3,0.6c-2.9,2.8-5.5,4.2-8.6,4.2
			c-6,0-10.3-4.4-10.3-11c0-6.6,4.6-11.6,10.4-11.6s8.7,3.9,8.7,9.1H258.1z M268.5,70.8c-0.3-4-1.6-6.8-4.6-6.8
			c-3,0-5.5,2.8-5.7,7.1L268.5,70.8z"/>
		<path class="st0" d="M297.1,83.4l3.1,0.8v0.6h-10v-0.6l3-0.8V71.6c0-3.6-1.3-5.3-4.4-5.3c-2,0-3.4,0.4-5.3,1.5v15.6l2.9,0.8v0.6
			h-10v-0.6l3.1-0.8V67.1l-3.1-2v-0.4L283,63l0.2,0.1l-0.1,3.8l0.2,0.1c2.8-2.6,5.5-3.9,8-3.9c4.2,0,5.8,3.2,5.8,6.5V83.4z"/>
		<path class="st0" d="M318.1,70.1c-1.7,0-2.7-1.4-2.7-2.8c0-1,0.4-2.1,1-2.8c-0.7-0.1-1.2-0.2-2-0.2c-3.9,0-7.7,2.8-7.7,9.5
			c0,5,2.7,8.9,7.5,8.9c2.3,0,4.4-0.7,6.6-1.7l0.2,0.6c-2.2,2.4-5.2,4-8.2,4c-6.1,0-10.3-4.4-10.3-10.9c0-6.5,4.8-11.7,11.6-11.7
			c3.9,0,6.5,1.9,6.5,4.2C320.7,68.8,319.6,70.1,318.1,70.1z"/>
		<path class="st0" d="M328.2,72.1c0,6.3,2.1,10.5,7.4,10.5c2.3,0,4.2-0.5,6.9-1.9l0.3,0.6c-2.9,2.8-5.5,4.2-8.6,4.2
			c-6,0-10.3-4.4-10.3-11c0-6.6,4.6-11.6,10.4-11.6s8.7,3.9,8.7,9.1H328.2z M338.6,70.8c-0.3-4-1.6-6.8-4.6-6.8
			c-3,0-5.5,2.8-5.7,7.1L338.6,70.8z"/>
		<path class="st0" d="M385.9,84v0.8h-13.4V84l4.7-0.8l-3.5-9.4h-10.3l-3.4,9.1l3.4,1.1v0.8h-8.5V84l3.3-1.3L369,54.6h2.2l10.9,28.3
			L385.9,84z M368.5,60.2L368.5,60.2l-4.6,12.1h9.1L368.5,60.2z"/>
		<path class="st0" d="M396,77.5c-1.4,0-2.6-0.3-3.6-0.8c-0.7,0.7-1,2-1,3c0,1.4,1,1.8,3.4,1.9l5.8,0.1c4.8,0.1,6.8,1.8,6.8,5
			c0,3.7-4.1,7.9-12,7.9c-6.1,0-9.4-2.4-9.4-5.2c0-2,2-3.9,5-4.8l0-0.2c-1.9-0.6-3-1.8-3-3.3c0-1.4,1.1-3.1,3.7-4.6v-0.2
			c-2.4-1.2-3.9-3.1-3.9-6c0-4.5,4-7.3,8.8-7.3c2.2,0,4.1,0.6,5.5,1.6c2.3-1.5,3.9-2.1,5.4-2.1c1.6,0,2.4,0.9,2.4,2.1
			c0,1.2-0.9,2.2-2.1,2.2s-2-0.8-2.1-1.9l-2.7,0.3l-0.1,0.2c1.2,1.2,1.8,2.7,1.8,4.4C404.5,74.4,401,77.5,396,77.5z M399.8,85.1
			L392,85c-1.2,0.8-2,2.3-2,3.9c0,2.5,2.4,4.5,7.1,4.5c4.5,0,7-2.4,7-4.8C404.1,86.4,402.8,85.2,399.8,85.1z M395.9,64
			c-2.5,0-3.9,1.9-3.9,6.3c0,4.7,1.5,6.2,4.4,6.2c2.5,0,3.9-2.6,3.9-6.2C400.2,66.8,398.7,64,395.9,64z"/>
		<path class="st0" d="M426.6,82.1c0,1.4,1.1,1.8,3.9,1.5l0.1,0.5c-0.9,0.6-3.2,1.4-4.9,1.4c-1.8,0-2.7-1-2.9-3.5l-0.2-0.1
			c-2.2,2.2-4.6,3.6-7.1,3.6c-3.1,0-5-1.8-5-4.7c0-4.2,5-6.5,12.1-7.5v-3.5c0-3.1-2-4.8-4.8-4.8c-1,0-2.3,0.2-3.5,0.7
			c1,0.8,1.5,1.8,1.5,2.7c0,1.2-0.9,2.3-2.2,2.3c-1.4,0-2.3-1.1-2.3-2.3c0-3,4.9-5.5,9.4-5.5c4.1,0,5.9,2.2,5.9,6.4V82.1z
			 M422.7,74.8c-6,0-8,2.2-8,4.7c0,2,1.3,3.2,3.4,3.2c1.3,0,2.9-0.5,4.6-1.4V74.8z"/>
		<path class="st0" d="M432.2,65.1v-0.4l6.9-1.7l0.2,0.1v20.3l3.1,0.8v0.6H432v-0.6l3.3-0.8V67.1L432.2,65.1z M437.4,53.3
			c1.5,0,2.5,1.1,2.5,2.5c0,1.5-1.2,2.9-2.8,2.9c-1.5,0-2.5-1.1-2.5-2.6C434.7,54.7,435.9,53.3,437.4,53.3z"/>
		<path class="st0" d="M465.9,83.4l3.1,0.8v0.6h-10v-0.6l3-0.8V71.6c0-3.6-1.3-5.3-4.4-5.3c-2,0-3.4,0.4-5.3,1.5v15.6l2.9,0.8v0.6
			h-10v-0.6l3.1-0.8V67.1l-3.1-2v-0.4l6.6-1.7l0.2,0.1l-0.1,3.8l0.2,0.1c2.8-2.6,5.5-3.9,8-3.9c4.2,0,5.8,3.2,5.8,6.5V83.4z"/>
		<path class="st0" d="M478.3,85.5c-2.4,0-4.3-0.3-6.4-1.3v-5.9l1-0.1c1.6,4.3,3.7,6.1,6.3,6.1c2.5,0,4.1-1.5,4.1-3.9
			c0-2.5-2.5-3.5-5.1-4.6c-2.9-1.2-5.9-2.6-5.9-6.2c0-3.7,2.9-6.6,7.4-6.6c1.8,0,4.3,0.4,5.5,0.9l0.1,5.3l-0.8,0.2
			c-1.8-3.8-3.6-5.3-5.7-5.3c-2.1,0-3.5,1.2-3.5,3.2c0,2.5,2.5,3.5,5.2,4.7c2.9,1.2,6,2.6,6,6.4C486.4,82.8,482.9,85.5,478.3,85.5z"
			/>
		<path class="st0" d="M496.7,85.2c-3.6,0-4.6-1.6-4.6-4.9V65.9h-3.3v-0.6l3.7-2.4l2.8-4.3h0.8v5.3h7.1v2h-7.1v12.8
			c0,1.7,0.1,2.8,1.1,3.4c0.7,0.4,1.8,0.6,3.5,0.6c0.8,0,1.6,0,2.6-0.1l0,0.5C501.3,84.3,498.9,85.2,496.7,85.2z"/>
		<path class="st0" d="M547.2,78.9L547.2,78.9l6.6-21.9l-3.3-1.3v-0.8h8.6v0.8l-3.4,1.3l-9,28.1H545l-7.7-22.4h-0.1L529,85.1h-1.6
			l-8.8-28.3l-4.1-1.1v-0.8h13.4v0.8l-4.4,0.8l6.3,22.2h0.1l6.5-18.8l-1.1-3.2l-3.9-1.1v-0.8h13v0.8l-4.4,0.8L547.2,78.9z"/>
		<path class="st0" d="M567.3,85.6c-6.6,0-10.2-4.8-10.2-11.3c0-6,4-11.3,10.9-11.3c6.7,0,10.2,4.7,10.2,11.1
			C578.1,80.2,574.2,85.6,567.3,85.6z M567.4,64.1c-3.2,0-5.8,3.3-5.8,10.4c0,6.9,2.9,10.1,6.2,10.1c3.5,0,5.8-3.3,5.8-10.4
			C573.6,67.3,570.9,64.1,567.4,64.1z"/>
		<path class="st0" d="M606.7,66.3c-2,0-3.1,0.7-5,1.7v15.3l3.1,0.8v0.6h-10v-0.6l2.9-0.8V71.3c0-3.6-1.2-5-4.3-5
			c-2,0-3,0.4-4.9,1.5v15.6l2.9,0.8v0.6h-10v-0.6l3.1-0.8V67.1l-3.1-2v-0.4L588,63l0.2,0.1l-0.1,3.8l0.2,0.1
			c2.8-2.6,5.1-3.9,7.7-3.9c3.1,0,4.7,2,5.3,4.1l0.2,0.1c2.8-2.6,5.3-4.3,7.8-4.3c4.2,0,5.7,3.2,5.7,6.6v13.8l3.1,0.8v0.6h-10.1
			v-0.6l3-0.8V71.6C611,68,609.8,66.3,606.7,66.3z"/>
		<path class="st0" d="M624.8,72.1c0,6.3,2.1,10.5,7.4,10.5c2.3,0,4.2-0.5,6.9-1.9l0.3,0.6c-2.9,2.8-5.5,4.2-8.6,4.2
			c-6,0-10.3-4.4-10.3-11c0-6.6,4.6-11.6,10.4-11.6s8.7,3.9,8.7,9.1H624.8z M635.1,70.8c-0.3-4-1.6-6.8-4.6-6.8
			c-3,0-5.5,2.8-5.7,7.1L635.1,70.8z"/>
		<path class="st0" d="M663.7,83.4l3.1,0.8v0.6h-10v-0.6l3-0.8V71.6c0-3.6-1.3-5.3-4.4-5.3c-2,0-3.4,0.4-5.3,1.5v15.6l2.9,0.8v0.6
			h-10v-0.6l3.1-0.8V67.1l-3.1-2v-0.4l6.6-1.7l0.2,0.1l-0.1,3.8l0.2,0.1c2.8-2.6,5.5-3.9,8-3.9c4.2,0,5.8,3.2,5.8,6.5V83.4z"/>
	</g>
	<g>
		<polygon class="st0" points="28.6,43.2 23.2,43.2 23.2,14.6 28.6,14.6 28.6,7.4 3.6,7.4 3.6,14.6 8.9,14.6 8.9,43.2 16.1,50.3 
			28.6,50.3 		"/>
		<polygon class="st0" points="46.5,50.3 59,50.3 66.2,43.2 66.2,14.6 71.5,14.6 71.5,7.4 46.5,7.4 46.5,14.6 51.9,14.6 51.9,43.2 
			46.5,43.2 		"/>
		<polygon class="st0" points="72,57.1 87.6,41.4 94.8,41.4 94.8,34.3 68,34.3 68,41.4 70.6,41.4 59.9,52.1 44.7,52.1 44.7,41.4 
			50.1,41.4 50.1,34.3 25,34.3 25,41.4 30.4,41.4 30.4,73.6 25,73.6 25,80.7 50.1,80.7 50.1,73.6 44.7,73.6 44.7,62.9 59.9,62.9 
			70.6,73.6 68,73.6 68,80.7 94.8,80.7 94.8,73.6 88.5,73.6 		"/>
		<path class="st0" d="M96.6,82.5H66.2V71.8h0L59,64.7H46.5v7.2h5.4v10.7H23.2V71.8h5.4V52.1H15.2l-8-8V16.4h0H1.8V5.6h28.6v10.7H25
			v16.1h25V16.4h-5.4V5.6h28.6v10.7H68v16.1h28.6v10.7h-8L74.7,57.1l14.8,14.8h7.2V82.5z M90.3,70l-13-13L89.4,45h8.9l0-14.3
			l-28.6,0V18.2h5.4V3.9H42.9h0v14.3h0h5.4v12.5H26.8V18.2h5.4h0V3.9h0H0v14.3h5.4V45h0l0,0l8.9,8.9h12.5V70h-5.4v14.3h32.2V70h-5.4
			v-3.6h9.8l6.3,6.3v11.6h34l0-14.3h0H90.3z"/>
	</g>
</g>
</svg>
