<?xml version="1.0" encoding="utf-8"?>
<!-- Generator: Adobe Illustrator 21.1.0, SVG Export Plug-In . SVG Version: 6.00 Build 0)  -->
<svg version="1.1" id="Layer_1" xmlns="http://www.w3.org/2000/svg" xmlns:xlink="http://www.w3.org/1999/xlink" x="0px" y="0px"
	 viewBox="0 0 1792 1792" style="enable-background:new 0 0 1792 1792;" xml:space="preserve">
<style type="text/css">
	.st0{fill:#63656A;}
</style>
<path class="st0" d="M979,960c0,8.7-3.3,16.3-10,23l-466,466c-6.7,6.7-14.3,10-23,10s-16.3-3.3-23-10l-50-50c-6.7-6.7-10-14.3-10-23
	s3.3-16.3,10-23l393-393L407,567c-6.7-6.7-10-14.3-10-23s3.3-16.3,10-23l50-50c6.7-6.7,14.3-10,23-10s16.3,3.3,23,10l466,466
	C975.7,943.7,979,951.3,979,960z M1363,960c0,8.7-3.3,16.3-10,23l-466,466c-6.7,6.7-14.3,10-23,10s-16.3-3.3-23-10l-50-50
	c-6.7-6.7-10-14.3-10-23s3.3-16.3,10-23l393-393L791,567c-6.7-6.7-10-14.3-10-23s3.3-16.3,10-23l50-50c6.7-6.7,14.3-10,23-10
	s16.3,3.3,23,10l466,466C1359.7,943.7,1363,951.3,1363,960z"/>
</svg>
