<?xml version="1.0" encoding="utf-8"?>
<!-- Generator: Adobe Illustrator 21.1.0, SVG Export Plug-In . SVG Version: 6.00 Build 0)  -->
<svg version="1.1" id="Layer_1" xmlns="http://www.w3.org/2000/svg" xmlns:xlink="http://www.w3.org/1999/xlink" x="0px" y="0px"
	 viewBox="0 0 333.3 86.4" style="enable-background:new 0 0 333.3 86.4;" xml:space="preserve">
<style type="text/css">
	.st0{clip-path:url(#SVGID_2_);fill:#FFFFFE;}
	.st1{clip-path:url(#SVGID_4_);fill:#FFFFFE;}
	.st2{clip-path:url(#SVGID_6_);fill:#FFFFFE;}
	.st3{clip-path:url(#SVGID_8_);fill:#FFFFFE;}
	.st4{clip-path:url(#SVGID_10_);fill:#FFFFFE;}
	.st5{clip-path:url(#SVGID_12_);fill:#FFFFFE;}
	.st6{clip-path:url(#SVGID_14_);fill:#FFFFFE;}
	.st7{clip-path:url(#SVGID_16_);fill:#FFFFFE;}
	.st8{clip-path:url(#SVGID_18_);fill:#FFFFFE;}
</style>
<g>
	<defs>
		<path id="SVGID_1_" d="M40.6,44.5h11l6.3-6.1V13.5h4.7V7.3H40.6v6.1h4.7v24.9h-4.7V44.5z M25,38.4h-4.6V13.5H25V7.3H3.2v6.1h4.7
			v24.9l6.3,6.1H25V38.4z"/>
	</defs>
	<clipPath id="SVGID_2_">
		<use xlink:href="#SVGID_1_"  style="overflow:visible;"/>
	</clipPath>
	<rect x="-1.8" y="2.3" class="st0" width="69.4" height="47.2"/>
</g>
<g>
	<defs>
		<polygon id="SVGID_3_" points="62.9,50.4 76.6,36.7 82.8,36.7 82.8,30.5 59.4,30.5 59.4,36.7 61.8,36.7 52.4,46.2 39.1,46.2 
			39.1,36.7 43.8,36.7 43.8,30.5 21.9,30.5 21.9,36.7 26.7,36.7 26.7,64.7 21.9,64.7 21.9,71.1 43.8,71.1 43.8,64.7 39.1,64.7 
			39.1,55.4 52.4,55.4 61.8,64.7 59.4,64.7 59.4,71.1 82.8,71.1 82.8,64.7 77.4,64.7 		"/>
	</defs>
	<clipPath id="SVGID_4_">
		<use xlink:href="#SVGID_3_"  style="overflow:visible;"/>
	</clipPath>
	<rect x="16.9" y="25.5" class="st1" width="70.8" height="50.5"/>
</g>
<g>
	<defs>
		<path id="SVGID_5_" d="M84.4,72.5H57.9v-9.2l-6.3-6.2h-11v6.2h4.7v9.2h-25v-9.2H25V46.2H13.3l-7-7V15.1H1.6V5.8h25v9.3h-4.7v14
			h21.9v-14h-4.7V5.8H64v9.3h-4.7v14h25v9.3h-7l-12.1,12l12.9,12.8h6.3V72.5z M78.9,61.7L67.6,50.4l10.5-10.5h7.8V27.4h-25V16.6h4.7
			V4.2H37.5v12.5h4.7v10.8H23.4V16.7h4.7V4.2H0v12.5h4.7V40l7.8,7.8h11v13.9h-4.7v12.5h28.1V61.7h-4.7v-3.2h8.6l5.4,5.4V74h29.7
			V61.7H78.9z"/>
	</defs>
	<clipPath id="SVGID_6_">
		<use xlink:href="#SVGID_5_"  style="overflow:visible;"/>
	</clipPath>
	<rect x="-5" y="-0.8" class="st2" width="95.9" height="79.9"/>
</g>
<g>
	<defs>
		<path id="SVGID_7_" d="M135.5,24.4l2.2,0.6v0.5h-7.2V25l2.1-0.6V16c0-1.3-0.3-2.2-0.7-2.8s-1.3-0.9-2.4-0.9
			c-0.7,0-1.4,0.1-1.9,0.3c-0.5,0.2-1.2,0.5-1.8,0.8v11.1l2.1,0.6v0.5h-7.1v-0.5l2.2-0.6V12.7l-2.2-1.4v-0.2l4.6-1.2l0.1,0.1
			l-0.1,2.7l0.1,0.1c2-1.9,3.9-2.8,5.7-2.8c0.7,0,1.5,0.1,1.9,0.4c0.5,0.3,1,0.6,1.3,1c0.4,0.5,0.5,0.9,0.7,1.4
			c0.2,0.5,0.2,1.2,0.2,1.7v9.8H135.5z M113.4,4.7V4.2h6.4v0.5l-2.6,0.9v13c0,1.1-0.2,2.1-0.6,3c-0.5,0.9-1,1.7-1.7,2.3
			c-0.7,0.6-1.6,1.2-2.6,1.5c-1,0.4-2.1,0.5-3.3,0.5c-2.6,0-4.7-0.6-6.3-1.8c-1.5-1.2-2.3-3.1-2.3-5.5V5.3L97,4.7V4.2h10.1v0.5
			l-3.4,0.6V18c0,1.2,0.1,2.2,0.4,3c0.3,0.8,0.6,1.4,1.3,2c0.5,0.5,1.3,0.9,2.1,1.1c0.8,0.2,1.8,0.4,2.9,0.4c1,0,1.9-0.2,2.5-0.5
			c0.7-0.4,1.3-0.8,1.8-1.4c0.5-0.6,0.8-1.3,1-2.1c0.2-0.8,0.4-1.6,0.4-2.5V5.6L113.4,4.7z"/>
	</defs>
	<clipPath id="SVGID_8_">
		<use xlink:href="#SVGID_7_"  style="overflow:visible;"/>
	</clipPath>
	<rect x="92" y="-0.8" class="st3" width="50.6" height="31.9"/>
</g>
<g>
	<defs>
		<path id="SVGID_9_" d="M157,21.9L157,21.9l1.8-4.3l2.1-5.8l-2.2-1v-0.5h5.9v0.5l-2.4,1l-5.7,13.9h-0.8l-6-14.2l-2.1-0.7v-0.5h7.7
			v0.5l-2.4,0.7L157,21.9z M141.7,3.6c0.4-0.5,0.8-0.6,1.5-0.6c0.5,0,0.9,0.2,1.3,0.5c0.4,0.4,0.5,0.8,0.5,1.3c0,0.5-0.2,1-0.5,1.4
			s-0.8,0.6-1.5,0.6c-0.5,0-0.9-0.2-1.3-0.5c-0.4-0.4-0.5-0.8-0.5-1.4C141.1,4.5,141.3,4,141.7,3.6z M139.4,11.4v-0.3l4.9-1.2
			l0.1,0.1v14.4l2.3,0.6v0.5h-7.4V25l2.4-0.6V12.7L139.4,11.4z"/>
	</defs>
	<clipPath id="SVGID_10_">
		<use xlink:href="#SVGID_9_"  style="overflow:visible;"/>
	</clipPath>
	<rect x="134.2" y="-2" class="st4" width="35.4" height="32.8"/>
</g>
<g>
	<defs>
		<path id="SVGID_11_" d="M266.4,11.6v12.7l2.8,0.6v0.5h-8V25l2.3-0.6V11.6h-3.1v-0.5l3.1-0.9V8.6c0-1.7,0.2-3.1,0.7-4.2
			c0.5-1.1,1.1-2,2-2.7c0.6-0.5,1.3-1,2-1.3c0.7-0.3,1.5-0.5,2.3-0.5c0.9,0,1.6,0.2,2.1,0.5c0.5,0.4,0.7,0.8,0.7,1.4
			c0,0.5-0.2,1-0.5,1.3c-0.3,0.4-0.7,0.5-1.3,0.5s-1-0.2-1.5-0.5c-0.5-0.4-1-1-1.5-1.9c-0.7,0.5-1.3,1.1-1.6,2.1
			c-0.4,0.9-0.5,2.3-0.5,4v3h4.3v1.4L266.4,11.6L266.4,11.6z M254.9,12.1c-0.8-1.2-1.9-1.8-3.3-1.8c-1.2,0-2.2,0.6-3,1.9
			c-0.8,1.3-1.3,3.2-1.3,5.7c0,1.3,0.1,2.3,0.4,3.3c0.3,0.9,0.5,1.7,1,2.3c0.5,0.6,0.9,1.1,1.5,1.4c0.5,0.3,1.1,0.5,1.7,0.5
			c1.3,0,2.4-0.6,3.1-1.8c0.8-1.3,1.2-3.2,1.2-5.7C256.3,15.2,255.8,13.3,254.9,12.1z M259.1,20.8c-0.4,1-0.9,1.9-1.5,2.6
			c-0.6,0.7-1.5,1.4-2.5,1.8c-1,0.5-2.1,0.7-3.4,0.7c-1.2,0-2.3-0.2-3.3-0.6c-0.9-0.5-1.7-1-2.4-1.7c-0.6-0.7-1.1-1.6-1.5-2.6
			c-0.4-1-0.5-2.1-0.5-3.3c0-1.1,0.2-2.2,0.5-3.2c0.4-1,0.9-1.9,1.5-2.6c0.7-0.7,1.5-1.4,2.5-1.8s2.1-0.6,3.4-0.6
			c1.3,0,2.4,0.2,3.3,0.6c0.9,0.5,1.7,1,2.4,1.7s1.1,1.5,1.5,2.6c0.4,1,0.5,2.1,0.5,3.3C259.6,18.7,259.4,19.8,259.1,20.8z
			 M230.6,28.4c-1.1,2.7-2.5,4.1-4.4,4.1c-0.8,0-1.4-0.2-1.7-0.6c-0.4-0.4-0.5-0.8-0.5-1.3c0-0.5,0.2-0.8,0.5-1.2
			c0.4-0.3,0.7-0.5,1.2-0.5c0.5,0,0.9,0.2,1.3,0.5c0.4,0.3,0.7,0.6,1.1,1.2c0.6-0.6,1.3-1.5,1.7-2.6l1-2.2L225,11.6l-2.1-0.7v-0.5
			h7.6v0.5l-2.4,0.7l3.9,10.4h0.2l3.6-10.1l-2.1-1v-0.5h5.7v0.5l-2.3,1L230.6,28.4z M220.2,25.2c-0.8,0.3-1.6,0.5-2.4,0.5
			c-1.3,0-2.2-0.3-2.6-0.8c-0.5-0.5-0.7-1.4-0.7-2.6V11.9h-2.4v-0.5l2.6-1.7l2-3.1h0.5v3.8h5.1v1.4h-5.1V21c0,0.6,0,1.1,0.1,1.4
			c0.1,0.4,0.3,0.7,0.6,1c0.5,0.3,1.3,0.4,2.4,0.4h0.9c0.3,0,0.6,0,1-0.1v0.4C221.8,24.6,221,24.9,220.2,25.2z M206.7,3.6
			c0.4-0.5,0.8-0.6,1.5-0.6c0.5,0,0.9,0.2,1.3,0.5c0.4,0.4,0.5,0.8,0.5,1.3c0,0.5-0.2,1-0.5,1.4c-0.4,0.5-0.9,0.6-1.5,0.6
			s-0.9-0.2-1.3-0.5c-0.4-0.4-0.5-0.8-0.5-1.4C206,4.5,206.2,4,206.7,3.6z M204.3,11.4v-0.3l4.9-1.2l0.1,0.1v14.4l2.3,0.6v0.5h-7.4
			V25l2.4-0.6V12.7L204.3,11.4z M201.5,22.9c-0.3,0.6-0.7,1.2-1.3,1.6c-0.5,0.5-1.1,0.8-1.8,1c-0.7,0.3-1.5,0.4-2.3,0.4
			c-0.8,0-1.6-0.1-2.4-0.2c-0.7-0.1-1.5-0.4-2.3-0.7v-4.2l0.7-0.1c0.5,1.5,1.2,2.6,2,3.3c0.7,0.7,1.5,1,2.5,1c0.9,0,1.6-0.3,2.1-0.7
			c0.5-0.5,0.8-1.2,0.8-2.1c0-0.5-0.1-0.8-0.3-1.2c-0.2-0.4-0.5-0.6-0.8-0.9c-0.4-0.3-0.7-0.5-1.2-0.6l-1.4-0.5
			c-0.5-0.2-1-0.5-1.5-0.7c-0.5-0.3-0.9-0.5-1.4-0.9c-0.4-0.4-0.7-0.7-1-1.2c-0.3-0.5-0.4-1-0.4-1.7c0-0.6,0.1-1.3,0.4-1.9
			c0.3-0.6,0.6-1.1,1.1-1.4c0.5-0.5,1-0.7,1.6-1c0.6-0.3,1.4-0.4,2.2-0.4c0.6,0,1.4,0.1,2.1,0.2c0.8,0.1,1.4,0.3,1.8,0.5l0.1,3.8
			l-0.6,0.2c-0.6-1.4-1.3-2.3-2-2.9c-0.6-0.5-1.4-0.9-2.1-0.9c-0.7,0-1.4,0.2-1.8,0.6c-0.5,0.4-0.7,1-0.7,1.7c0,0.5,0.1,0.8,0.4,1.2
			c0.3,0.4,0.5,0.6,0.8,0.9c0.4,0.3,0.7,0.5,1.2,0.6c0.5,0.2,0.9,0.4,1.4,0.6c0.5,0.2,1,0.5,1.5,0.7c0.5,0.3,1,0.5,1.4,0.9
			c0.4,0.4,0.7,0.7,1,1.3c0.3,0.5,0.4,1.1,0.4,1.7C201.9,21.6,201.9,22.3,201.5,22.9z M189.7,13.1c-0.3,0.4-0.7,0.5-1.3,0.5
			c-0.5,0-0.8-0.2-1.2-0.5c-0.4-0.4-0.5-0.7-0.6-1.3c-0.6,0-1.2,0.3-1.8,0.7c-0.5,0.5-1,0.9-1.2,1.4v10.3L186,25v0.5h-7.3V25
			l2.2-0.6V12.7l-2.2-1.4v-0.2l4.7-1.2l0.1,0.1l-0.1,3.3l0.1,0.1c0.5-1.1,1.2-1.9,2-2.5c0.8-0.6,1.6-0.9,2.4-0.9
			c0.7,0,1.4,0.2,1.7,0.5c0.4,0.4,0.5,0.8,0.5,1.4C190.3,12.4,190.1,12.8,189.7,13.1z M174.5,15.4c-0.1-1.4-0.5-2.6-0.9-3.4
			c-0.5-0.9-1.3-1.4-2.4-1.4c-0.5,0-1,0.1-1.5,0.4c-0.5,0.3-0.9,0.5-1.3,1s-0.6,1-0.9,1.5c-0.3,0.6-0.4,1.3-0.5,2.1L174.5,15.4z
			 M167,16.3c0,1.1,0.1,2.2,0.3,3.1c0.2,0.9,0.5,1.7,0.9,2.3c0.4,0.6,1,1.2,1.6,1.5c0.6,0.4,1.5,0.5,2.4,0.5c0.8,0,1.6-0.1,2.4-0.3
			c0.7-0.2,1.6-0.5,2.5-1l0.2,0.4c-1.1,1-2.1,1.7-3,2.3c-1,0.5-2,0.7-3.1,0.7c-1.1,0-2.1-0.2-3-0.5c-0.9-0.4-1.6-0.9-2.4-1.6
			c-0.6-0.7-1.2-1.5-1.5-2.4c-0.4-1-0.5-2-0.5-3.2c0-1.2,0.2-2.3,0.5-3.3c0.4-1,0.9-1.9,1.5-2.6s1.5-1.4,2.4-1.7
			c0.9-0.4,1.9-0.6,2.9-0.6c1,0,1.9,0.2,2.7,0.5c0.8,0.4,1.5,0.8,2,1.4c0.5,0.5,0.9,1.3,1.2,2.1c0.3,0.8,0.4,1.6,0.4,2.6L167,16.3
			L167,16.3z"/>
	</defs>
	<clipPath id="SVGID_12_">
		<use xlink:href="#SVGID_11_"  style="overflow:visible;"/>
	</clipPath>
	<rect x="158.9" y="-5" class="st5" width="119.5" height="42.4"/>
</g>
<g>
	<defs>
		<path id="SVGID_13_" d="M156.1,56.6c-0.2-2.5-0.7-4.5-1.6-6c-0.9-1.5-2.3-2.3-4.1-2.3c-0.9,0-1.8,0.2-2.6,0.6
			c-0.8,0.5-1.5,1-2.2,1.8c-0.6,0.8-1.2,1.7-1.6,2.8c-0.5,1.1-0.6,2.3-0.7,3.6L156.1,56.6z M143.1,58.3c0,2,0.2,3.7,0.5,5.3
			c0.4,1.6,0.9,3,1.6,4.2c0.7,1.2,1.7,2.1,2.9,2.7c1.2,0.6,2.6,1,4.3,1c1.5,0,2.8-0.2,4.2-0.5c1.4-0.4,2.8-1,4.5-1.8l0.4,0.7
			c-1.8,1.7-3.6,3.1-5.4,4c-1.7,0.9-3.5,1.4-5.4,1.4c-1.9,0-3.6-0.4-5.2-1c-1.5-0.6-2.9-1.6-4.1-2.8c-1.2-1.2-2.1-2.6-2.7-4.3
			c-0.6-1.7-0.9-3.5-0.9-5.6c0-2.1,0.4-4,1-5.8c0.6-1.7,1.6-3.3,2.8-4.6c1.2-1.3,2.5-2.3,4.2-3.1c1.5-0.7,3.3-1.1,5.2-1.1
			c1.8,0,3.4,0.3,4.8,0.8c1.4,0.5,2.5,1.4,3.4,2.3c0.9,1,1.6,2.3,2.1,3.6s0.6,2.9,0.6,4.5L143.1,58.3L143.1,58.3z M132.5,71.4l5,1.7
			v1h-16v-1l4-1.4l-12-15.8h-3.4v16.2l5.9,1.1v1H98.4v-1l5.8-1.1V38.8l-5.8-1.1v-1H116v1l-5.9,1.1V54h4l13.1-14.4l-4.4-1.8v-1h12.8
			v1l-5.3,2.1l-12.5,13L132.5,71.4z"/>
	</defs>
	<clipPath id="SVGID_14_">
		<use xlink:href="#SVGID_13_"  style="overflow:visible;"/>
	</clipPath>
	<rect x="93.4" y="31.7" class="st6" width="73.6" height="48.5"/>
</g>
<g>
	<defs>
		<path id="SVGID_15_" d="M210.4,73.9c-1.5,0.5-2.8,0.7-4.2,0.7c-2.3,0-3.7-0.5-4.5-1.5c-0.8-1-1.2-2.5-1.2-4.7V50.5h-4.1v-0.7
			l4.6-3.1l3.4-5.3h1v6.6h9v2.5h-9v16c0,1.1,0.1,1.9,0.3,2.6s0.5,1.3,1.2,1.7c0.8,0.5,2.3,0.7,4.4,0.7h1.5c0.5,0,1.2-0.1,1.8-0.1
			l0.1,0.6C213.2,72.7,211.8,73.3,210.4,73.9z M192.1,72.3l3.9,1.1v0.7h-12.6v-0.7l3.7-1.1V57.6c0-2.3-0.5-3.9-1.3-5
			c-0.8-1.1-2.3-1.6-4.3-1.6c-1.3,0-2.4,0.2-3.4,0.5c-1,0.3-2.1,0.7-3.3,1.4v19.5l3.6,1.1v0.7H166v-0.8l3.9-1.1V51.9l-3.8-2.4v-0.5
			l8.2-2.1l0.3,0.2l-0.1,4.7l0.3,0.1c3.5-3.3,6.9-5,10.2-5c1.4,0,2.4,0.2,3.4,0.6c0.9,0.5,1.6,1.1,2.3,1.8c0.5,0.7,1,1.6,1.3,2.6
			c0.3,1,0.4,2,0.4,3.1v17.3H192.1z"/>
	</defs>
	<clipPath id="SVGID_16_">
		<use xlink:href="#SVGID_15_"  style="overflow:visible;"/>
	</clipPath>
	<rect x="161" y="36.4" class="st7" width="58.7" height="43.2"/>
</g>
<g>
	<defs>
		<path id="SVGID_17_" d="M317.8,79.3c-1.9,4.8-4.5,7.1-7.7,7.1c-1.4,0-2.4-0.4-3-1.1c-0.6-0.7-0.9-1.4-0.9-2.3c0-0.8,0.3-1.4,0.9-2
			c0.5-0.5,1.3-0.8,2.1-0.8c0.9,0,1.6,0.3,2.3,0.7c0.6,0.5,1.3,1.2,1.8,2c1.2-1.1,2.2-2.6,3.1-4.6l1.7-3.9l-10.2-24.8l-3.6-1.3v-0.7
			h13.4v0.7l-4.2,1.3l6.9,18.2h0.3l6.3-17.8l-3.7-1.7v-0.7h10.1v0.7l-4,1.8L317.8,79.3z M300.2,72.1l3.3,1.3v0.7h-11.5v-0.7l2.4-1.3
			l-7.7-10.8h-2.4v11l3.3,1.1v0.7H275v-0.7l4.2-1.1V36l-4.3-2.5V33l9-2.3l0.3,0.1v28.8h2.6l7.7-9.1l-3.1-2.1v-0.5h10.9v0.7l-4,1.5
			l-8.5,8.6L300.2,72.1z M270.5,54.7c-0.6,0.6-1.4,1-2.3,1c-1.1,0-1.9-0.4-2.4-1.1c-0.6-0.7-0.9-1.5-0.9-2.4c0-0.6,0.1-1.3,0.4-1.9
			c0.3-0.6,0.5-1.1,0.9-1.5c-0.7-0.2-1.5-0.3-2.4-0.3c-1.3,0-2.4,0.2-3.6,0.6c-1.2,0.5-2.2,1.2-3.1,2.1c-0.9,0.9-1.6,2.2-2.2,3.7
			c-0.5,1.4-0.8,3.3-0.8,5.4c0,1.5,0.2,3,0.6,4.3s1,2.5,1.8,3.5c0.8,1,1.7,1.8,2.9,2.3c1.2,0.5,2.5,0.8,4,0.8c1.5,0,2.9-0.2,4.2-0.5
			c1.4-0.4,2.7-0.9,4.1-1.6l0.3,0.7c-1.4,1.4-3,2.7-4.8,3.6c-1.8,0.9-3.6,1.4-5.5,1.4s-3.6-0.4-5.3-1c-1.6-0.6-3-1.5-4.1-2.8
			c-1.2-1.2-2.1-2.6-2.7-4.3c-0.6-1.7-0.9-3.5-0.9-5.6c0-2.1,0.4-4,1.1-5.7c0.7-1.8,1.7-3.3,3-4.6c1.3-1.4,2.8-2.3,4.5-3.1
			c1.8-0.7,3.7-1.1,5.8-1.1c2.4,0,4.4,0.5,5.9,1.5c1.5,1,2.2,2.3,2.2,3.8C271.4,53.2,271.1,54.1,270.5,54.7z M245.8,72.4V73
			l-8.3,2.1l-0.3-0.1l0.1-4.6l-0.3-0.1c-3.5,3.3-6.9,5-10.1,5c-1.4,0-2.4-0.2-3.4-0.6c-0.9-0.5-1.6-1.1-2.3-1.8
			c-0.5-0.7-1-1.6-1.3-2.6c-0.3-1-0.4-2-0.4-3.1V51.8l-3.8-2.1v-0.5l8.5-2.1l0.3,0.2v17.1c0,2.3,0.5,4,1.3,5.1
			c0.8,1.1,2.3,1.6,4.3,1.6c1.3,0,2.4-0.2,3.4-0.5c1-0.3,2.1-0.8,3.3-1.4V51.6l-3.9-2.1v-0.5l8.6-2.1l0.3,0.2v23.8L245.8,72.4z"/>
	</defs>
	<clipPath id="SVGID_18_">
		<use xlink:href="#SVGID_17_"  style="overflow:visible;"/>
	</clipPath>
	<rect x="211" y="25.7" class="st8" width="127.3" height="65.7"/>
</g>
</svg>
