<?xml version="1.0" encoding="utf-8"?>
<!-- Generator: Adobe Illustrator 21.0.2, SVG Export Plug-In . SVG Version: 6.00 Build 0)  -->
<svg version="1.1" id="Layer_1" xmlns="http://www.w3.org/2000/svg" xmlns:xlink="http://www.w3.org/1999/xlink" x="0px" y="0px"
	 viewBox="0 0 319.3 107.3" style="enable-background:new 0 0 319.3 107.3;" xml:space="preserve">
<style type="text/css">
	.st0{fill:none;}
	.st1{enable-background:new    ;}
	.st2{fill:#FFFFFF;}
</style>
<rect x="124.1" y="30.7" class="st0" width="181" height="48.5"/>
<g class="st1">
	<path class="st2" d="M141.9,50.3v0.2c2.4,0.8,4.2,2.9,5.2,5c1.5,2.9,2.7,5.5,4,6.7c1.4,1.1,2.2,1.6,4.1,1.8v0.8h-5.3
		c-3.6,0-4.2-1.4-5.8-4.9l-2.5-5.3c-1.5-3.1-2.8-3.5-4.9-3.5h-1.7v12.1l4.6,0.8v0.8h-13.7V64l4.6-0.8V37.1l-4.6-0.8v-0.8h13.3
		c7,0,11.1,3,11.1,7.5C150.2,46.4,147.2,49.2,141.9,50.3z M138.1,36.6c-1.3,0-2.3,0.1-3.2,0.3v12.8h3.2c3.7,0,6.9-2.2,6.9-6.6
		C145,38.8,141.8,36.6,138.1,36.6z"/>
	<path class="st2" d="M159.2,52.3c0,6.1,2.1,10.3,7.3,10.3c2.3,0,4.1-0.5,6.8-1.8l0.3,0.6c-2.9,2.7-5.4,4.1-8.4,4.1
		c-5.9,0-10.1-4.3-10.1-10.7c0-6.5,4.5-11.4,10.2-11.4c5.7,0,8.6,3.8,8.6,8.9H159.2z M169.4,51c-0.3-4-1.6-6.6-4.5-6.6
		c-2.9,0-5.3,2.8-5.6,6.9L169.4,51z"/>
	<path class="st2" d="M183.8,65.4c-2.3,0-4.2-0.3-6.3-1.2v-5.8l1-0.1c1.5,4.2,3.6,6,6.1,6c2.4,0,4-1.4,4-3.9c0-2.5-2.4-3.5-5-4.5
		c-2.8-1.2-5.8-2.5-5.8-6.1c0-3.6,2.8-6.4,7.2-6.4c1.8,0,4.2,0.4,5.4,0.9l0.1,5.2l-0.8,0.2c-1.8-3.7-3.5-5.2-5.6-5.2
		c-2.1,0-3.5,1.2-3.5,3.1c0,2.5,2.5,3.5,5.1,4.6c2.9,1.2,5.9,2.5,5.9,6.3C191.7,62.7,188.3,65.4,183.8,65.4z"/>
	<path class="st2" d="M199.2,52.3c0,6.1,2.1,10.3,7.3,10.3c2.3,0,4.1-0.5,6.8-1.8l0.3,0.6c-2.9,2.7-5.4,4.1-8.4,4.1
		c-5.9,0-10.1-4.3-10.1-10.7c0-6.5,4.5-11.4,10.2-11.4s8.6,3.8,8.6,8.9H199.2z M209.3,51c-0.3-4-1.6-6.6-4.5-6.6
		c-2.9,0-5.3,2.8-5.6,6.9L209.3,51z"/>
	<path class="st2" d="M233.3,62.1c0,1.3,1.1,1.7,3.9,1.5l0.1,0.5c-0.9,0.6-3.2,1.4-4.8,1.4c-1.7,0-2.7-1-2.8-3.4l-0.2-0.1
		c-2.1,2.1-4.5,3.5-6.9,3.5c-3,0-4.9-1.7-4.9-4.6c0-4.1,4.9-6.4,11.9-7.3v-3.5c0-3.1-2-4.7-4.7-4.7c-1,0-2.2,0.2-3.4,0.7
		c1,0.8,1.4,1.8,1.4,2.7c0,1.2-0.9,2.2-2.2,2.2c-1.4,0-2.2-1.1-2.2-2.3c0-2.9,4.8-5.3,9.2-5.3c4,0,5.8,2.2,5.8,6.3V62.1z M229.4,55
		c-5.9,0-7.8,2.1-7.8,4.6c0,2,1.3,3.2,3.3,3.2c1.2,0,2.8-0.5,4.5-1.4V55z"/>
	<path class="st2" d="M252.1,48.6c-1.2,0-2.3-1-2.5-2.4c-1.7,0.1-3.5,1.5-4.1,3v14.2l3.2,0.8v0.6h-10.1v-0.6l3-0.8v-16l-3-1.9V45
		l6.4-1.7l0.2,0.1l-0.1,4.5l0.2,0.1c1.5-2.9,3.9-4.7,6-4.7c2.1,0,3.1,1.3,3.1,2.7C254.4,47.5,253.5,48.6,252.1,48.6z"/>
	<path class="st2" d="M271.4,50.3c-1.7,0-2.6-1.4-2.6-2.8c0-1,0.4-2,1-2.7c-0.6-0.1-1.2-0.2-1.9-0.2c-3.9,0-7.5,2.7-7.5,9.3
		c0,4.9,2.6,8.7,7.3,8.7c2.3,0,4.3-0.6,6.5-1.7l0.2,0.6c-2.2,2.3-5.1,4-8.1,4c-5.9,0-10.1-4.3-10.1-10.7c0-6.4,4.7-11.4,11.3-11.4
		c3.8,0,6.3,1.8,6.3,4.1C273.9,49.1,272.9,50.3,271.4,50.3z"/>
	<path class="st2" d="M289.2,46.6c-1.9,0-3.5,0.4-5.3,1.4v15.3l2.9,0.8v0.6H277v-0.6l3-0.8V34.9l-3.4-2v-0.5l7.1-1.8l0.2,0.1V47
		l0.2,0.1c2.7-2.6,5.2-3.7,7.7-3.7c4.1,0,6,3.1,6,6.4v13.5l3,0.8v0.6h-9.8v-0.6l2.9-0.8V51.8C294,48.3,292.3,46.6,289.2,46.6z"/>
</g>
<g>
	<polygon class="st2" points="46.4,50.8 41.4,50.8 41.4,24.4 46.4,24.4 46.4,17.8 23.3,17.8 23.3,24.4 28.2,24.4 28.2,50.8 
		34.8,57.4 46.4,57.4 	"/>
	<polygon class="st2" points="62.9,57.4 74.5,57.4 81.1,50.8 81.1,24.4 86,24.4 86,17.8 62.9,17.8 62.9,24.4 67.9,24.4 67.9,50.8 
		62.9,50.8 	"/>
	<polygon class="st2" points="86.4,63.6 100.9,49.1 107.5,49.1 107.5,42.5 82.7,42.5 82.7,49.1 85.2,49.1 75.3,59 61.3,59 
		61.3,49.1 66.2,49.1 66.2,42.5 43.1,42.5 43.1,49.1 48,49.1 48,78.8 43.1,78.8 43.1,85.4 66.2,85.4 66.2,78.8 61.3,78.8 61.3,68.9 
		75.3,68.9 85.2,78.8 82.7,78.8 82.7,85.4 107.5,85.4 107.5,78.8 101.7,78.8 	"/>
	<path class="st2" d="M109.1,87.1h-28v-9.9l0,0l-6.6-6.6H62.9v6.6h5v9.9H41.4v-9.9h5V59H34l-7.4-7.4V26l0,0h-5v-9.9H48V26h-5v14.9
		h23.1V26h-5v-9.9h26.4V26h-5v14.9h26.4v9.9h-7.4L88.9,63.6l13.6,13.6h6.6V87.1z M103.3,75.5l-12-12l11.1-11.1h8.3V39.2H84.3V27.7h5
		V14.5H59.6l0,0v13.2l0,0h5v11.6H44.7V27.7h5l0,0V14.5l0,0H20v13.2h5v24.8l0,0l0,0l8.3,8.3h11.6v14.9h-5v13.2h29.7V75.5h-5v-3.3h9.1
		l5.8,5.8v10.7h31.4V75.5l0,0H103.3z"/>
</g>
</svg>
