<?xml version="1.0" encoding="utf-8"?>
<!-- Generator: Adobe Illustrator 21.1.0, SVG Export Plug-In . SVG Version: 6.00 Build 0)  -->
<svg version="1.1" id="Layer_1" xmlns="http://www.w3.org/2000/svg" xmlns:xlink="http://www.w3.org/1999/xlink" x="0px" y="0px"
	 viewBox="0 0 100 100" style="enable-background:new 0 0 100 100;" xml:space="preserve">
<style type="text/css">
	.st0{fill:#EEF5F8;}
	.st1{fill:#BDD3DC;}
</style>
<rect x="0" class="st0" width="100" height="100"/>
<g>
	<polygon class="st1" points="33.8,49.3 29.5,49.3 29.5,26.6 33.8,26.6 33.8,21 14,21 14,26.6 18.2,26.6 18.2,49.3 23.9,55 33.8,55 
			"/>
	<polygon class="st1" points="47.9,55 57.8,55 63.5,49.3 63.5,26.6 67.7,26.6 67.7,21 47.9,21 47.9,26.6 52.2,26.6 52.2,49.3 
		47.9,49.3 	"/>
	<polygon class="st1" points="68.1,60.3 80.5,47.9 86.1,47.9 86.1,42.2 64.9,42.2 64.9,47.9 67,47.9 58.5,56.4 46.5,56.4 46.5,47.9 
		50.8,47.9 50.8,42.2 31,42.2 31,47.9 35.2,47.9 35.2,73.4 31,73.4 31,79 50.8,79 50.8,73.4 46.5,73.4 46.5,64.8 58.5,64.8 67,73.4 
		64.9,73.4 64.9,79 86.1,79 86.1,73.4 81.2,73.4 	"/>
	<path class="st1" d="M87.5,80.4H63.5v-8.5l0,0l-5.7-5.7h-9.9v5.7h4.3v8.5H29.5v-8.5h4.3V56.4H23.2L16.8,50V28.1l0,0h-4.3v-8.5h22.7
		V28H31v12.7h19.8V28h-4.3v-8.5h22.7V28h-4.3v12.7h22.7v8.5h-6.4l-11,11l11.7,11.7h5.7C87.5,71.9,87.5,80.4,87.5,80.4z M82.6,70.5
		L72.3,60.3l9.5-9.5h7.1V39.4H66.3v-9.9h4.3V18.2H45.1l0,0v11.3l0,0h4.3v9.9h-17v-9.9h4.3l0,0V18.2l0,0H11.1v11.3h4.3v21.2l0,0l0,0
		l7.1,7.1h9.9v12.7h-4.3v11.3h25.5V70.5h-4.3v-2.8h7.8l5,5v9.2h26.9V70.5l0,0H82.6z"/>
</g>
</svg>
