<?xml version="1.0" encoding="utf-8"?>
<!-- Generator: Adobe Illustrator 21.1.0, SVG Export Plug-In . SVG Version: 6.00 Build 0)  -->
<svg version="1.1" id="Layer_1" xmlns="http://www.w3.org/2000/svg" xmlns:xlink="http://www.w3.org/1999/xlink" x="0px" y="0px"
	 viewBox="0 0 205 50" style="enable-background:new 0 0 205 50;" xml:space="preserve">
<style type="text/css">
	.st0{fill:#C8C8C7;}
	.st1{fill:none;stroke:#C8C8C7;stroke-width:3;stroke-miterlimit:10;}
</style>
<g>
	<path class="st0" d="M97.9,4.9c-11.2,8.6-15.5,15.5-15.5,25c1.3-1,3.6-1.3,5.6-1.3c5.6,0,9.5,4.3,9.5,10.2
		c0,6.6-4.9,11.2-12.5,11.2c-8.6-0.3-13.2-6.6-13.2-17.8c0-12.2,5.3-20.1,21.7-32.2L97.9,4.9z M133.1,4.9
		c-11.2,8.6-15.5,15.5-15.5,25c1.3-1,3.6-1.3,5.6-1.3c5.6,0,9.5,4.3,9.5,10.2c0,6.6-4.9,11.2-12.5,11.2c-8.6,0-12.8-5.9-12.8-17.1
		c0-12.5,5.3-20.1,21.7-32.2L133.1,4.9z"/>
</g>
<line class="st1" x1="145" y1="25" x2="205" y2="25"/>
<line class="st1" x1="0" y1="25" x2="60" y2="25"/>
</svg>
