<svg aria-labelledby="title" role="img" id="pinterest" data-name="Layer 1" xmlns="http://www.w3.org/2000/svg" viewBox="0 0 75.36 75.36">
  <title>Pinterest</title>
  <rect width="75.36" height="75.36" fill="#ca2128"/>
  <path d="M37.68,10.42A27.26,27.26,0,0,0,26.74,62.65a24,24,0,0,1,.47-6.26c0.53-2.22,3.51-14.86,3.51-14.86a10.43,10.43,0,0,1-.87-4.31c0-4,2.34-7.05,5.26-7.05,2.48,0,3.68,1.86,3.68,4.09,0,2.49-1.59,6.22-2.41,9.67a4.22,4.22,0,0,0,4.3,5.25c5.17,0,8.64-6.63,8.64-14.49,0-6-4-10.44-11.34-10.44-8.27,0-13.42,6.16-13.42,13.05a7.87,7.87,0,0,0,1.8,5.35,1.31,1.31,0,0,1,.39,1.52c-0.13.5-.43,1.71-0.55,2.19a0.94,0.94,0,0,1-1.36.68c-3.81-1.55-5.58-5.72-5.58-10.41,0-7.74,6.53-17,19.48-17C49.13,19.59,56,27.12,56,35.21,56,45.9,50,53.89,41.28,53.89c-2.94,0-5.71-1.59-6.66-3.4,0,0-1.58,6.28-1.92,7.49A22.9,22.9,0,0,1,30,63.82,27.26,27.26,0,1,0,37.68,10.42Z" fill="#fff"/>
</svg>
