<svg aria-labelledby="title" role="img" id="twitter" data-name="Layer 1" xmlns="http://www.w3.org/2000/svg" viewBox="0 0 75.36 75.36">
  <title>Twitter</title>
  <rect width="75.36" height="75.36" fill="#2aa8e0"/>
  <path d="M62.8,22.1a20.58,20.58,0,0,1-5.92,1.62A10.33,10.33,0,0,0,61.41,18a20.6,20.6,0,0,1-6.54,2.5,10.32,10.32,0,0,0-17.57,9.4A29.25,29.25,0,0,1,16.06,19.15a10.32,10.32,0,0,0,3.19,13.76,10.26,10.26,0,0,1-4.67-1.29v0.13a10.32,10.32,0,0,0,8.27,10.11,10.38,10.38,0,0,1-2.72.36A10.24,10.24,0,0,1,18.19,42a10.32,10.32,0,0,0,9.63,7.16A20.68,20.68,0,0,1,15,53.61a21.27,21.27,0,0,1-2.46-.14,29.19,29.19,0,0,0,15.8,4.63c19,0,29.32-15.7,29.32-29.33,0-.45,0-0.89,0-1.34A21,21,0,0,0,62.8,22.1Z" fill="#fff"/>
</svg>
