<svg aria-labelledby="title" role="img" id="youtube" data-name="Layer 1" xmlns="http://www.w3.org/2000/svg" viewBox="0 0 75.36 75.36">
  <title>YouTube</title>
  <rect width="75.36" height="75.36" fill="#cd332d"/>
  <path d="M32.43,7.36H29l-2.32,8.9-2.41-8.9H20.7c0.71,2.1,1.46,4.21,2.18,6.32A55.71,55.71,0,0,1,25,20.85V30h3.4V20.85Zm9.07,17.2V18.64a6.64,6.64,0,0,0-1-4,4.54,4.54,0,0,0-7.14,0,6.56,6.56,0,0,0-1,4v5.92a6.55,6.55,0,0,0,1,4,4.54,4.54,0,0,0,7.14,0A6.62,6.62,0,0,0,41.51,24.56Zm-3.06.58c0,1.56-.47,2.34-1.46,2.34s-1.46-.78-1.46-2.34V18c0-1.56.47-2.34,1.46-2.34s1.46,0.78,1.46,2.34v7.11ZM52.83,30V13.14H49.76V26a2.69,2.69,0,0,1-1.93,1.43,0.7,0.7,0,0,1-.72-0.72,7,7,0,0,1,0-1.19V13.14H44V26.5A8.52,8.52,0,0,0,44.3,29a1.88,1.88,0,0,0,2,1.26c1.12,0,2.28-.68,3.5-2.08V30h3.06Z" fill="#fff"/>
  <path d="M62.74,50.53a53.52,53.52,0,0,1-.88,11.85,6.33,6.33,0,0,1-5.42,4.92A168.45,168.45,0,0,1,37.68,68a168.43,168.43,0,0,1-18.77-.69,6.33,6.33,0,0,1-5.42-4.92,53.72,53.72,0,0,1-.87-11.85,53.65,53.65,0,0,1,.88-11.85,6.33,6.33,0,0,1,5.42-4.92,168.44,168.44,0,0,1,18.77-.7,168.45,168.45,0,0,1,18.77.7,6.33,6.33,0,0,1,5.42,4.92A53.73,53.73,0,0,1,62.74,50.53Z" fill="#fff"/>
  <path d="M26.92,42.1V38.94H16.35V42.1h3.56V61.38h3.37V42.1h3.63ZM33,61.38V59.55c-1.2,1.38-2.35,2.05-3.46,2.05a1.86,1.86,0,0,1-2-1.24,8.46,8.46,0,0,1-.27-2.49V44.66h3V57a9.3,9.3,0,0,0,0,1.18,0.69,0.69,0,0,0,.71.71A2.66,2.66,0,0,0,33,57.44V44.66h3V61.38H33ZM44.55,56.6c0,1.51-.44,2.25-1.32,2.25a2.17,2.17,0,0,1-1.51-.74V47.92a2.19,2.19,0,0,1,1.51-.74c0.87,0,1.32.77,1.32,2.28V56.6Zm3-.24V49.7a13,13,0,0,0-.31-3.36,2.4,2.4,0,0,0-2.42-1.89,4.11,4.11,0,0,0-3.13,1.81V38.94h-3V61.38h3V59.76a4.13,4.13,0,0,0,3.13,1.85,2.4,2.4,0,0,0,2.42-1.88A13.38,13.38,0,0,0,47.57,56.36ZM56,51h-3V49.5q0-2.32,1.52-2.32c1,0,1.51.77,1.51,2.32V51Zm3,5V55.59H55.91a19.69,19.69,0,0,1-.06,2,1.31,1.31,0,0,1-1.35,1.22c-1,0-1.55-.77-1.55-2.32v-3H59V50.11a6.57,6.57,0,0,0-.94-3.94,4.2,4.2,0,0,0-3.57-1.71,4.3,4.3,0,0,0-3.63,1.71,6.5,6.5,0,0,0-.94,3.94V56a6.46,6.46,0,0,0,1,3.93,4.33,4.33,0,0,0,3.67,1.71,4.2,4.2,0,0,0,3.66-1.81A4.35,4.35,0,0,0,58.94,58C59,57.67,59,57,59,56Z" fill="#cd332d"/>
</svg>
