<?xml version="1.0" encoding="UTF-8"?>
<svg width="42px" height="42px" viewBox="0 0 42 42" version="1.1" xmlns="http://www.w3.org/2000/svg" xmlns:xlink="http://www.w3.org/1999/xlink">
    <g id="Block-collections" stroke="none" stroke-width="1" fill-rule="evenodd">
        <g transform="translate(-156.000000, -945.000000)" id="icon/alert-emergency-dark">
            <g transform="translate(156.000000, 945.000000)">
                <path d="M21,42 C9.40202025,42 0,32.5979797 0,21 C0,9.40202025 9.40202025,0 21,0 C32.5979797,0 42,9.40202025 42,21 C42,32.5979797 32.5979797,42 21,42 Z M18.1621622,8.12331081 L18.1621622,10.7483108 C18.1621622,11.4728108 18.7554528,12.0608108 19.4864716,12.0608108 L22.1350905,12.0608108 C22.8661093,12.0608108 23.4594,11.4728108 23.4594,10.7483108 L23.4594,8.12331081 C23.4594,7.39881081 22.8661093,6.81081081 22.1350905,6.81081081 L19.4864716,6.81081081 C18.7554528,6.81081081 18.1621622,7.39881081 18.1621622,8.12331081 Z M18.1621622,17.2043919 L18.1621622,32.9543919 C18.1621622,33.6788919 18.7554528,34.2668919 19.4864716,34.2668919 L22.1350905,34.2668919 C22.8661093,34.2668919 23.4594,33.6788919 23.4594,32.9543919 L23.4594,17.2043919 C23.4594,16.4798919 22.8661093,15.8918919 22.1350905,15.8918919 L19.4864716,15.8918919 C18.7554528,15.8918919 18.1621622,16.4798919 18.1621622,17.2043919 Z" transform="translate(21.000000, 21.000000) rotate(-180.000000) translate(-21.000000, -21.000000) "></path>
            </g>
        </g>
    </g>
</svg>