<?xml version="1.0" encoding="utf-8"?>
<svg width="1000" height="1000" viewBox="0 0 1000 1000" xmlns="http://www.w3.org/2000/svg">
  <path d="M 796 500 C 796 491.333 792.667 483.667 786 477 L 320 11 C 313.333 4.333 305.667 1 297 1 C 288.333 1 280.667 4.333 274 11 L 224 61 C 217.333 67.667 214 75.333 214 84 C 214 92.667 217.333 100.333 224 107 L 617 500 L 224 893 C 217.333 899.667 214 907.333 214 916 C 214 924.667 217.333 932.333 224 939 L 274 989 C 280.667 995.667 288.333 999 297 999 C 305.667 999 313.333 995.667 320 989 L 786 523 C 792.667 516.333 796 508.667 796 500 Z" transform="matrix(-1, 0, 0, -1, 1010.000053, 999.999994)"/>
</svg>