
<svg width="1000" height="1000" viewBox="0 0 1000 1000" xmlns="http://www.w3.org/2000/svg">
  <path d="M 796 500 C 796 508.667 792.667 516.333 786 523 L 320 989 C 313.333 995.667 305.667 999 297 999 C 288.333 999 280.667 995.667 274 989 L 224 939 C 217.333 932.333 214 924.667 214 916 C 214 907.333 217.333 899.667 224 893 L 617 500 L 224 107 C 217.333 100.333 214 92.667 214 84 C 214 75.333 217.333 67.667 224 61 L 274 11 C 280.667 4.333 288.333 1 297 1 C 305.667 1 313.333 4.333 320 11 L 786 477 C 792.667 483.667 796 491.333 796 500 Z"/>
</svg>
