<?xml version="1.0" encoding="UTF-8"?>
<svg width="43px" height="42px" viewBox="0 0 43 42" version="1.1" xmlns="http://www.w3.org/2000/svg" xmlns:xlink="http://www.w3.org/1999/xlink">
    <!-- Generator: Sketch 49.3 (51167) - http://www.bohemiancoding.com/sketch -->
    <title>icon/timely-dark</title>
    <desc>Created with Sketch.</desc>
    <defs></defs>
    <g id="Block-collections" stroke="none" stroke-width="1" fill-rule="evenodd">
        <g transform="translate(-244.000000, -945.000000)" id="icon/timely-dark">
            <g transform="translate(244.532051, 945.000000)">
                <path d="M42,8.14485981 L39.2523364,11.3831776 L29.635514,3.3364486 L32.3831776,0.0981308411 L42,8.14485981 Z M12.2663551,3.23831776 L2.74766355,11.3831776 L0,8.14485981 L9.51869159,0 L12.2663551,3.23831776 Z M22.0794393,12.8551402 L22.0794393,23.7476636 L30.4205607,28.6542056 L28.8504673,31.3037383 L18.9392523,25.317757 L18.9392523,12.8551402 L22.0794393,12.8551402 Z M7.55607477,10.0093458 C11.2850654,6.34577607 15.766329,4.51401869 21,4.51401869 C26.233671,4.51401869 30.6985796,6.34577607 34.3948598,10.0093458 C38.09114,13.6729155 39.9392523,18.0887592 39.9392523,23.2570093 C39.9392523,28.4252595 38.09114,32.8411032 34.3948598,36.5046729 C30.6985796,40.1682426 26.233671,42 21,42 C15.766329,42 11.3014204,40.1682426 7.60514019,36.5046729 C3.90886002,32.8411032 2.06074766,28.4252595 2.06074766,23.2570093 C2.06074766,18.0887592 3.89250505,13.6729155 7.55607477,10.0093458 Z M10.5981308,33.5607477 C13.4766499,36.4392667 16.943905,37.8785047 21,37.8785047 C25.056095,37.8785047 28.5233501,36.4556217 31.4018692,33.6098131 C34.2803882,30.7640045 35.7196262,27.3131044 35.7196262,23.2570093 C35.7196262,19.2663352 34.2803882,15.8317901 31.4018692,12.953271 C28.5233501,10.074752 25.056095,8.63551402 21,8.63551402 C16.943905,8.63551402 13.4766499,10.074752 10.5981308,12.953271 C7.71961178,15.8317901 6.28037383,19.2663352 6.28037383,23.2570093 C6.28037383,27.2476835 7.71961178,30.6822286 10.5981308,33.5607477 Z"></path>
            </g>
        </g>
    </g>
</svg>