<?xml version="1.0" encoding="UTF-8"?>
<svg width="43px" height="43px" viewBox="0 0 43 43" version="1.1" xmlns="http://www.w3.org/2000/svg" xmlns:xlink="http://www.w3.org/1999/xlink">
    <!-- Generator: Sketch 49.3 (51167) - http://www.bohemiancoding.com/sketch -->
    <title>icon/alert-event-dark</title>
    <desc>Created with Sketch.</desc>
    <defs></defs>
    <g id="Block-collections" stroke="none" stroke-width="1" fill-rule="evenodd">
        <g transform="translate(-500.000000, -944.000000)" id="icon/alert-event-dark">
            <g transform="translate(500.000000, 944.000000)">
                <path d="M34.0416667,23.2916667 L34.0416667,34.0416667 L23.2916667,34.0416667 L23.2916667,23.2916667 L34.0416667,23.2916667 Z M30.4583333,0 L35.8333333,0 L35.8333333,3.58333333 L38.5208333,3.58333333 C39.7152838,3.58333333 40.7604122,4.03124552 41.65625,4.92708333 C42.5520878,5.82292115 43,6.86804958 43,8.0625 L43,38.5208333 C43,39.7152837 42.5520878,40.7604122 41.65625,41.65625 C40.7604122,42.5520878 39.7152838,43 38.5208333,43 L4.47916667,43 C3.28471625,43 2.23958781,42.5520878 1.34375,41.65625 C0.447912188,40.7604122 0,39.7152837 0,38.5208333 L0,8.0625 C0,6.86804958 0.447912188,5.82292115 1.34375,4.92708333 C2.23958781,4.03124552 3.28471625,3.58333333 4.47916667,3.58333333 L7.16666667,3.58333333 L7.16666667,0 L12.5416667,0 L12.5416667,3.58333333 L30.4583333,3.58333333 L30.4583333,0 Z M38.5208333,38.5208333 L38.5208333,14.78125 L4.47916667,14.78125 L4.47916667,38.5208333 L38.5208333,38.5208333 Z"></path>
            </g>
        </g>
    </g>
</svg>