<?xml version="1.0" encoding="utf-8"?>
<svg viewBox="0.0010000000474974513 0.004000000189989805 300 300" xmlns="http://www.w3.org/2000/svg">
  <g transform="matrix(9.322598, 0, 0, 9.337103, -8039.902344, -53471.902344)">
    <path id="a49ba" d="M878.5 5729.72c4.3 0 4.8.01 6.5.09 1.57.07 2.42.33 3 .55a5 5 0 0 1 1.84 1.2 5 5 0 0 1 1.2 1.85c.22.57.49 1.42.56 2.98.08 1.7.1 2.2.1 6.5 0 4.29-.02 4.8-.1 6.49a8.9 8.9 0 0 1-.56 2.98c-.29.75-.64 1.29-1.2 1.85a5 5 0 0 1-1.85 1.2c-.57.22-1.42.48-2.99.55-1.7.08-2.2.1-6.5.1s-4.8-.02-6.5-.1a8.94 8.94 0 0 1-2.99-.55 4.99 4.99 0 0 1-1.85-1.2 4.98 4.98 0 0 1-1.2-1.85 8.9 8.9 0 0 1-.56-2.98c-.07-1.7-.09-2.2-.09-6.5 0-4.28.02-4.8.1-6.49a8.9 8.9 0 0 1 .55-2.98c.29-.75.64-1.29 1.2-1.85a5 5 0 0 1 1.85-1.2 8.94 8.94 0 0 1 2.99-.55c1.7-.08 2.2-.1 6.5-.1m0-2.89c-4.37 0-4.92.02-6.63.1-1.72.07-2.89.35-3.91.74a7.9 7.9 0 0 0-2.85 1.86c-.9.89-1.44 1.79-1.85 2.84-.4 1.02-.67 2.2-.75 3.9-.08 1.72-.1 2.26-.1 6.63 0 4.36.02 4.9.1 6.62.08 1.7.35 2.88.75 3.9a7.87 7.87 0 0 0 1.85 2.84c.9.9 1.8 1.45 2.85 1.86 1.02.4 2.2.67 3.9.74 1.72.08 2.27.1 6.64.1 4.37 0 4.92-.02 6.63-.1 1.72-.07 2.89-.35 3.91-.74a7.9 7.9 0 0 0 2.85-1.86c.9-.89 1.45-1.78 1.86-2.84.4-1.02.67-2.2.74-3.9.08-1.71.1-2.26.1-6.62 0-4.37-.02-4.91-.1-6.63a11.77 11.77 0 0 0-.74-3.9 7.88 7.88 0 0 0-1.86-2.84 7.9 7.9 0 0 0-2.85-1.86c-1.02-.4-2.2-.67-3.9-.74-1.72-.08-2.27-.1-6.64-.1"/>
    <path id="a49bb" d="M878.5 5734.64a8.26 8.26 0 1 0-.01 16.51 8.26 8.26 0 0 0 .01-16.51m0 13.6a5.36 5.36 0 1 1 0-10.71 5.36 5.36 0 0 1 0 10.72"/>
    <path id="a49bc" d="M889.02 5734.3a1.93 1.93 0 1 1-3.86 0 1.93 1.93 0 0 1 3.86 0"/>
  </g>
</svg>