<?xml version="1.0" encoding="utf-8"?>
<svg viewBox="0 0 300 300" xmlns="http://www.w3.org/2000/svg">
  <path id="t6iba" d="M 0 0 L 300 0 L 300 300 L 0 300 Z M 78.283 95.846 C 78.283 109.408 92.94 117.885 104.67 111.108 C 110.111 107.961 113.466 102.14 113.466 95.846 C 113.466 82.284 98.808 73.807 87.079 80.585 C 81.638 83.732 78.283 89.547 78.283 95.846 Z M 80.607 221.712 L 110.576 221.712 L 110.576 126.369 L 80.607 126.369 Z M 158.953 139.27 L 158.953 126.369 L 128.984 126.369 L 128.984 221.712 L 158.953 221.712 L 158.953 170.736 C 158.953 169.1 159.393 150.157 177.047 150.157 C 193.382 150.157 192.314 172.436 192.314 172.436 L 192.314 221.712 L 221.592 221.712 L 221.592 166.394 C 221.592 166.394 225.361 123.222 188.545 123.222 C 188.545 123.222 164.859 121.46 158.953 139.27 Z"/>
</svg>