<svg xmlns="http://www.w3.org/2000/svg" width="19" height="17" viewBox="0 0 19 17">
  <path fill-rule="evenodd" d="M103.757405,175.636085 L107.263456,179.142136 L105.142136,181.263456 L101.636085,177.757405 C100.450435,178.542685 99.0286235,179 97.5,179 C93.3578644,179 90,175.642136 90,171.5 C90,167.357864 93.3578644,164 97.5,164 C101.642136,164 105,167.357864 105,171.5 C105,173.028623 104.542685,174.450435 103.757405,175.636085 Z M97.5,176 C99.9852814,176 102,173.985281 102,171.5 C102,169.014719 99.9852814,167 97.5,167 C95.0147186,167 93,169.014719 93,171.5 C93,173.985281 95.0147186,176 97.5,176 Z" transform="rotate(-2 -4643.645 2640.035)"/>
</svg>
