<?xml version="1.0" encoding="utf-8"?>
<svg viewBox="-0.0010000000474974513 0.0010000000474974513 300 282" xmlns="http://www.w3.org/2000/svg" xmlns:bx="https://boxy-svg.com">
  <g transform="matrix(8.740479, 0, 0, 8.756118, -6155.457031, -50748.726562)" bx:origin="0.5 0.5">
    <path id="4pvma" d="M721.63 5828a5.65 5.65 0 0 1-.43 0c-2.04 0-3.34-.92-4.6-1.8a6.7 6.7 0 0 0-2.66-1.36 8.52 8.52 0 0 0-3.33.1c-.29.05-.53.1-.72.1-.2 0-.41-.04-.5-.36-.08-.27-.14-.53-.2-.79-.14-.66-.25-1.06-.52-1.1-3.22-.5-4.14-1.18-4.35-1.66a.63.63 0 0 1-.05-.2.36.36 0 0 1 .3-.38c4.96-.82 7.18-5.87 7.27-6.09v-.01c.31-.62.37-1.15.18-1.59-.34-.8-1.44-1.15-2.18-1.38l-.48-.16c-1.47-.58-1.59-1.17-1.53-1.48.1-.51.79-.87 1.35-.87.15 0 .28.03.4.08.65.3 1.25.46 1.76.46.7 0 1.02-.3 1.05-.33a90.5 90.5 0 0 0-.06-1.05c-.15-2.34-.33-5.24.41-6.9a8.96 8.96 0 0 1 8.32-5.35l.6-.01h.1c1.38 0 6.1.39 8.32 5.36.74 1.66.56 4.57.41 6.9v.1l-.06.95c.04.03.32.3.96.33a4.42 4.42 0 0 0 1.67-.46c.18-.08.38-.1.51-.1.21 0 .42.04.6.11.5.18.83.53.84.9 0 .34-.26.85-1.54 1.36l-.49.16c-.73.23-1.84.58-2.18 1.38-.18.44-.13.97.18 1.59v.01c.1.22 2.32 5.27 7.27 6.09.18.03.32.19.3.37a.6.6 0 0 1-.05.21c-.2.48-1.12 1.15-4.34 1.65-.27.04-.37.38-.53 1.1-.05.26-.11.52-.2.8-.06.22-.2.33-.45.33h-.04c-.17 0-.42-.03-.72-.09a9.68 9.68 0 0 0-3.34-.08c-.96.16-1.78.74-2.65 1.35-1.27.9-2.57 1.81-4.6 1.81"/>
  </g>
</svg>