<?xml version="1.0" encoding="utf-8"?>
<svg viewBox="0 0 300 300" xmlns="http://www.w3.org/2000/svg">
  <path id="7pija" d="M 0 0 L 300 0 L 300 300 L 0 300 Z M 151.099 233.606 C 161.654 233.606 168.44 228.823 174.974 224.166 C 179.497 220.957 183.77 217.936 188.796 217.118 C 194.557 216.249 200.425 216.4 206.136 217.558 C 207.707 217.873 208.963 218.062 209.906 218.062 L 210.094 218.062 C 211.351 218.062 212.105 217.495 212.482 216.237 L 213.487 212.146 C 214.304 208.433 214.806 206.671 216.188 206.419 C 232.963 203.839 237.738 200.378 238.806 197.86 C 238.951 197.52 239.039 197.162 239.058 196.79 C 239.133 195.79 238.417 194.909 237.424 194.777 C 211.728 190.56 200.23 164.254 199.728 163.121 L 199.665 162.996 C 198.157 159.849 197.78 157.08 198.785 154.814 C 200.544 150.661 206.325 148.836 210.094 147.64 C 211.037 147.388 211.979 147.074 212.607 146.759 C 219.267 144.116 220.649 141.473 220.649 139.711 C 220.586 137.76 218.89 135.997 216.314 135.053 C 215.372 134.676 214.241 134.424 213.173 134.424 C 212.482 134.424 211.414 134.55 210.471 134.991 C 207.267 136.501 204.377 137.256 201.864 137.382 C 198.534 137.256 197.026 135.809 196.838 135.62 L 197.152 130.774 L 197.152 130.145 C 197.969 118.062 198.911 102.895 195.016 94.273 C 183.518 68.408 159.016 66.394 151.791 66.394 L 151.288 66.457 L 148.147 66.457 C 129.474 66.224 112.48 77.206 104.984 94.336 C 101.089 102.895 102.031 118.062 102.848 130.208 L 103.162 135.62 C 102.974 135.872 101.34 137.382 97.696 137.382 C 94.995 137.382 91.916 136.564 88.524 134.991 C 87.87 134.701 87.166 134.55 86.45 134.55 C 83.56 134.55 79.916 136.438 79.414 139.144 C 79.162 140.655 79.791 143.738 87.393 146.759 L 89.906 147.64 C 93.675 148.836 99.455 150.661 101.215 154.877 C 102.22 157.08 101.906 159.912 100.335 163.059 L 100.209 163.121 C 99.77 164.254 88.272 190.56 62.513 194.777 C 61.571 194.902 60.942 195.784 60.942 196.79 C 60.968 197.162 61.049 197.52 61.194 197.86 C 62.262 200.315 67.037 203.902 83.812 206.419 C 85.257 206.671 85.759 208.748 86.513 212.209 C 86.821 213.581 87.179 214.947 87.581 216.3 C 88.021 217.999 89.089 218.188 90.094 218.188 C 91.099 218.188 92.356 217.936 93.864 217.621 C 99.556 216.325 105.449 216.155 111.204 217.118 C 116.23 217.936 120.503 221.02 125.026 224.166 C 131.56 228.823 138.346 233.606 148.901 233.606 C 149.654 233.638 150.408 233.638 151.162 233.606 Z"/>
</svg>