<?xml version="1.0" encoding="utf-8"?>
<svg viewBox="7 11.010000228881836 292 215" xmlns="http://www.w3.org/2000/svg">
  <g transform="matrix(7.372962, 0, 0, 6.679694, -4587.005371, -38242.03125)">
    <path id="8bhra" d="M662.68 5730.62a16.27 16.27 0 0 1-4.67 1.28c1.68-1 2.97-2.6 3.57-4.49-1.57.93-3.3 1.6-5.16 1.97a8.12 8.12 0 0 0-13.84 7.4 23.07 23.07 0 0 1-16.75-8.48 8.11 8.11 0 0 0 2.52 10.83 8.08 8.08 0 0 1-3.68-1.01 8.12 8.12 0 0 0 6.51 8.05c-1.14.32-2.39.39-3.66.14a8.13 8.13 0 0 0 7.59 5.64 16.36 16.36 0 0 1-12.03 3.36c3.6 2.3 7.87 3.64 12.45 3.64 15.08 0 23.6-12.72 23.1-24.13a16.51 16.51 0 0 0 4.05-4.2"/>
  </g>
</svg>