<?xml version="1.0" encoding="utf-8"?>
<svg viewBox="0 0 300 300" xmlns="http://www.w3.org/2000/svg">
  <path id="on8na" d="M 0 0 L 300 0 L 300 300 L 0 300 Z M 232.813 98.875 C 226.556 101.637 219.919 103.45 213.125 104.25 C 220.275 99.975 225.625 93.244 228.187 85.313 C 221.462 89.3 214.106 92.113 206.438 93.625 C 188.425 74.306 156.256 81.725 148.525 106.988 C 146.75 112.787 146.55 118.963 147.938 124.875 C 119.438 123.438 94.188 109.813 77.313 89.063 C 68.194 104.719 72.85 124.775 87.938 134.813 C 82.456 134.65 77.1 133.169 72.313 130.5 C 72.106 146.988 83.65 161.294 99.813 164.563 C 94.781 165.938 89.5 166.15 84.375 165.188 C 88.894 179.113 101.738 188.644 116.375 188.938 C 102 200.188 83.75 205.288 65.625 203.125 C 81.313 213.181 99.556 218.513 118.188 218.5 C 181.938 218.5 217.875 164.75 215.687 116.625 C 222.438 111.75 228.187 105.75 232.813 98.875 Z"/>
</svg>