<?xml version="1.0" encoding="UTF-8"?>
<svg width="43px" height="43px" viewBox="0 0 43 43" version="1.1" xmlns="http://www.w3.org/2000/svg" xmlns:xlink="http://www.w3.org/1999/xlink">
    <!-- Generator: Sketch 49.3 (51167) - http://www.bohemiancoding.com/sketch -->
    <title>icon/alert-info-dark</title>
    <desc>Created with Sketch.</desc>
    <defs></defs>
    <g id="Block-collections" stroke="none" stroke-width="1" fill="none" fill-rule="evenodd">
        <g transform="translate(-333.000000, -944.000000)" id="icon/alert-info-dark">
            <g transform="translate(333.064103, 944.000000)">
                <g>
                    <circle id="Oval-3" stroke="#002678" stroke-width="4" cx="21.5" cy="21.5" r="19.5"></circle>
                    <path d="M18.5945946,10.5218512 C18.5945946,9.78010118 19.2020112,9.17810118 19.9504352,9.17810118 L22.6621165,9.17810118 C23.4105405,9.17810118 24.0179571,9.78010118 24.0179571,10.5218512 L24.0179571,13.2093512 C24.0179571,13.9511012 23.4105405,14.5531012 22.6621165,14.5531012 L19.9504352,14.5531012 C19.2020112,14.5531012 18.5945946,13.9511012 18.5945946,13.2093512 L18.5945946,10.5218512 Z M18.5945946,18.7165844 C18.5945946,17.9748344 19.2020112,17.3728344 19.9504352,17.3728344 L22.6621165,17.3728344 C23.4105405,17.3728344 24.0179571,17.9748344 24.0179571,18.7165844 L24.0179571,32.6364562 C24.0179571,33.3782062 23.4105405,33.9802062 22.6621165,33.9802062 L19.9504352,33.9802062 C19.2020112,33.9802062 18.5945946,33.3782062 18.5945946,32.6364562 L18.5945946,18.7165844 Z" id="icon_alert-copy-3" fill="#002678"></path>
                </g>
            </g>
        </g>
    </g>
</svg>