<?xml version="1.0" encoding="utf-8"?>
<svg viewBox="0 -0.004999999888241291 300 300" xmlns="http://www.w3.org/2000/svg">
  <g transform="matrix(6.282722, 0, 0, 6.293276, -2699.246094, -36005.535156)">
    <path id="2ceha" d="M 429.63 5721.27 L 477.38 5721.27 L 477.38 5768.94 L 429.63 5768.94 Z M 453.5 5734.13 C 457.08 5734.13 457.5 5734.15 458.92 5734.21 C 460.22 5734.27 460.93 5734.49 461.41 5734.67 C 462.03 5734.91 462.48 5735.2 462.95 5735.67 C 463.42 5736.14 463.71 5736.59 463.95 5737.21 C 464.14 5737.68 464.35 5738.39 464.41 5739.7 C 464.48 5741.1 464.49 5741.53 464.49 5745.1 C 464.49 5748.68 464.48 5749.1 464.41 5750.52 C 464.4 5751.367 464.244 5752.206 463.95 5753 C 463.736 5753.582 463.394 5754.108 462.95 5754.54 C 462.48 5755.01 462.03 5755.3 461.41 5755.54 C 460.93 5755.73 460.22 5755.94 458.91 5756 C 457.51 5756.07 457.08 5756.08 453.5 5756.08 C 449.92 5756.08 449.5 5756.07 448.08 5756 C 447.23 5755.991 446.387 5755.835 445.59 5755.54 C 445.009 5755.325 444.483 5754.983 444.05 5754.54 C 443.606 5754.108 443.264 5753.582 443.05 5753 C 442.752 5752.207 442.593 5751.368 442.58 5750.52 C 442.504 5748.718 442.48 5746.914 442.51 5745.11 C 442.51 5741.53 442.52 5741.11 442.58 5739.7 C 442.592 5738.849 442.751 5738.007 443.05 5737.21 C 443.29 5736.59 443.58 5736.14 444.05 5735.67 C 444.52 5735.2 444.97 5734.91 445.59 5734.67 C 446.06 5734.49 446.77 5734.27 448.09 5734.21 C 449.889 5734.131 451.69 5734.104 453.49 5734.13 Z M 453.49 5731.72 C 449.86 5731.72 449.4 5731.74 447.97 5731.8 C 446.54 5731.87 445.57 5732.1 444.72 5732.42 C 443.83 5732.77 443.09 5733.22 442.34 5733.97 C 441.6 5734.71 441.14 5735.46 440.79 5736.34 C 440.401 5737.38 440.191 5738.479 440.17 5739.59 C 440.09 5741.429 440.063 5743.27 440.09 5745.11 C 440.09 5748.74 440.11 5749.2 440.17 5750.63 C 440.24 5752.05 440.47 5753.03 440.79 5753.88 C 441.14 5754.76 441.59 5755.5 442.34 5756.25 C 443.09 5756.99 443.84 5757.45 444.72 5757.79 C 445.57 5758.12 446.54 5758.35 447.97 5758.41 C 449.4 5758.48 449.86 5758.49 453.5 5758.49 C 457.14 5758.49 457.6 5758.48 459.03 5758.41 C 460.45 5758.35 461.43 5758.12 462.28 5757.79 C 463.16 5757.45 463.91 5756.99 464.66 5756.25 C 465.4 5755.5 465.86 5754.75 466.2 5753.88 C 466.53 5753.02 466.76 5752.05 466.83 5750.63 C 466.89 5749.2 466.91 5748.74 466.91 5745.11 C 466.91 5741.47 466.89 5741.01 466.83 5739.59 C 466.805 5738.479 466.592 5737.38 466.2 5736.34 C 465.865 5735.447 465.339 5734.639 464.66 5733.97 C 463.989 5733.286 463.177 5732.757 462.28 5732.42 C 461.239 5732.032 460.141 5731.822 459.03 5731.8 C 457.188 5731.72 455.344 5731.693 453.5 5731.72 Z M 453.5 5738.23 C 448.204 5738.23 444.894 5743.963 447.542 5748.55 C 448.771 5750.679 451.042 5751.99 453.5 5751.99 C 458.796 5751.99 462.106 5746.257 459.458 5741.67 C 458.229 5739.542 455.958 5738.23 453.5 5738.23 Z M 453.5 5749.57 C 450.059 5749.57 447.908 5745.845 449.629 5742.865 C 450.427 5741.482 451.903 5740.63 453.5 5740.63 C 456.941 5740.63 459.092 5744.355 457.371 5747.335 C 456.573 5748.718 455.097 5749.57 453.5 5749.57 Z M 461.465 5736.566 C 460.392 5735.946 459.05 5736.721 459.05 5737.96 C 459.05 5738.535 459.357 5739.067 459.855 5739.354 C 460.928 5739.974 462.27 5739.199 462.27 5737.96 C 462.27 5737.385 461.963 5736.854 461.465 5736.566 Z"/>
  </g>
</svg>