<svg aria-labelledby="title" role="img" id="instagram" data-name="Layer 1" xmlns="http://www.w3.org/2000/svg" viewBox="0 0 75.36 75.36">
  <title>Instagram</title>
  <rect width="75.36" height="75.36" fill="#32669a"/>
  <polygon points="0 75.36 0 75.44 75.44 75.44 75.44 -0.07 -0.07 -0.07 -0.07 75.44 0 75.44 0 75.36 0.07 75.36 0.07 0.07 75.29 0.07 75.29 75.29 0 75.29 0 75.36 0.07 75.36 0 75.36" fill="#231f20"/>
  <path d="M19.24,12.87H56.13a6.39,6.39,0,0,1,6.37,6.37V56.13a6.39,6.39,0,0,1-6.37,6.37H19.24a6.39,6.39,0,0,1-6.37-6.37V19.24A6.39,6.39,0,0,1,19.24,12.87ZM49,18.38a2.24,2.24,0,0,0-2.24,2.24V26A2.24,2.24,0,0,0,49,28.2h5.61A2.24,2.24,0,0,0,56.87,26V20.62a2.24,2.24,0,0,0-2.23-2.24H49Zm7.86,15.48H52.52a14.51,14.51,0,0,1,.64,4.26A15.2,15.2,0,0,1,37.73,53.06,15.2,15.2,0,0,1,22.3,38.12a14.58,14.58,0,0,1,.64-4.26H18.38v21a2,2,0,0,0,2,2H54.92a2,2,0,0,0,2-2v-21ZM37.73,27.92a9.66,9.66,0,1,0,10,9.66A9.82,9.82,0,0,0,37.73,27.92Z" fill="#fff"/>
</svg>
