<?xml version="1.0" encoding="utf-8"?>
<svg viewBox="0 0.0020000000949949026 295 294" xmlns="http://www.w3.org/2000/svg">
  <g transform="matrix(9.116755, 0, 0, 9.114994, -5713.657227, -52829.019531)">
    <path id="y0cva" d="M642.87 5795.87a16.08 16.08 0 0 0-6.46 30.78c-.04-1.12 0-2.47.28-3.69l2.07-8.75s-.51-1.03-.51-2.55c0-2.38 1.38-4.15 3.1-4.15 1.47 0 2.17 1.1 2.17 2.4 0 1.48-.94 3.67-1.42 5.7-.4 1.71.86 3.1 2.54 3.1 3.05 0 5.1-3.9 5.1-8.54 0-3.52-2.37-6.15-6.7-6.15a7.61 7.61 0 0 0-7.91 7.69c0 1.4.4 2.38 1.06 3.15.3.35.33.5.23.9l-.33 1.29c-.1.4-.44.55-.8.4-2.26-.92-3.3-3.38-3.3-6.14 0-4.56 3.85-10.04 11.5-10.04 6.14 0 10.19 4.44 10.19 9.2 0 6.3-3.52 11.02-8.69 11.02-1.73 0-3.37-.94-3.93-2 0 0-.93 3.7-1.13 4.41-.34 1.24-1.01 2.48-1.62 3.44a16.08 16.08 0 0 0 20.65-15.4c0-8.88-7.2-16.07-16.09-16.07"/>
  </g>
</svg>