
<svg width="21" height="21" viewBox="0 0 21 21" xmlns="http://www.w3.org/2000/svg"> 
  <g>
  	<path d="M 20.667 23 L 4.333 23 C 3.046 23 2 21.953 2 20.667 L 2 4.333 C 2 3.048 3.046 2 4.333 2 L 20.667 2 C 21.954 2 23 3.048 23 4.333 L 23 20.667 C 23 21.952 21.954 23 20.667 23 Z M 4.333 4.333 L 4.333 20.667 L 20.669 20.667 L 20.667 4.333 L 4.333 4.333 Z"/>
  	<path d="M 19.5 13.667 L 19.5 11.333 L 17 11.333 C 16.89 10.91 16.722 10.512 16.505 10.145 L 18.274 8.376 L 16.624 6.725 L 14.856 8.493 C 14.487 8.277 14.09 8.109 13.667 7.999 L 13.667 5.5 L 11.333 5.5 L 11.333 7.999 C 10.91 8.11 10.513 8.277 10.144 8.495 L 8.376 6.725 L 6.726 8.375 L 8.493 10.144 C 8.278 10.512 8.109 10.908 8 11.333 L 5.5 11.333 L 5.5 13.667 L 8 13.667 C 8.11 14.09 8.278 14.488 8.495 14.855 L 6.726 16.625 L 8.376 18.275 L 10.145 16.507 C 10.513 16.723 10.91 16.891 11.334 17.002 L 11.334 19.5 L 13.668 19.5 L 13.668 17.001 C 14.092 16.89 14.488 16.722 14.858 16.505 L 16.626 18.274 L 18.276 16.624 L 16.508 14.854 C 16.724 14.487 16.892 14.09 17.002 13.665 L 19.5 13.665 Z M 12.5 14.833 C 11.212 14.833 10.167 13.787 10.167 12.5 C 10.167 11.215 11.212 10.167 12.5 10.167 C 13.788 10.167 14.833 11.215 14.833 12.5 C 14.833 13.785 13.788 14.833 12.5 14.833 Z"/>
  </g>
</svg>
